<?xml version="1.0" standalone="no"?>
<!DOCTYPE svg PUBLIC "-//W3C//DTD SVG 20010904//EN"
 "http://www.w3.org/TR/2001/REC-SVG-20010904/DTD/svg10.dtd">
<svg version="1.0" xmlns="http://www.w3.org/2000/svg"
 width="450.000000pt" height="279.000000pt" viewBox="0 0 450.000000 279.000000"
 preserveAspectRatio="xMidYMid meet">
<metadata>
Created by potrace 1.10, written by Peter Selinger 2001-2011
</metadata>
<g transform="translate(0.000000,279.000000) scale(0.100000,-0.100000)"
fill="#000000" stroke="none">
<path d="M3882 2759 c-12 -11 -29 -33 -38 -50 -9 -17 -32 -53 -51 -80 -26 -37
-34 -55 -29 -74 5 -18 -2 -36 -24 -66 -35 -48 -36 -56 -13 -81 14 -16 15 -21
2 -44 -7 -15 -38 -51 -69 -81 l-54 -55 27 -24 c15 -13 27 -27 27 -32 0 -5 11
-21 25 -36 23 -25 25 -25 34 -7 12 21 5 31 -21 31 -21 0 -22 4 -8 30 8 15 5
19 -27 25 l-36 6 59 58 c32 31 67 71 77 88 17 32 17 32 -5 44 -13 6 -25 13
-26 15 -3 2 43 76 64 103 1 1 8 0 13 -4 7 -4 0 -23 -21 -51 l-32 -46 22 -16
22 -17 -30 -45 c-16 -24 -47 -59 -67 -76 l-38 -32 28 -7 c21 -6 26 -12 22 -25
-4 -13 1 -19 20 -24 l27 -7 -22 -36 c-28 -47 -19 -53 15 -9 22 29 24 38 15 55
-6 12 -14 21 -18 21 -4 0 -12 12 -19 26 -11 24 -9 29 24 62 50 51 65 90 47
117 -13 20 -12 25 7 49 12 16 22 41 21 57 -1 27 62 139 78 139 12 0 56 -72 64
-104 4 -15 14 -40 24 -54 9 -14 15 -36 14 -49 -3 -18 10 -38 47 -75 28 -28 51
-55 51 -59 0 -5 -12 -16 -27 -26 -45 -29 -54 -50 -30 -75 7 -7 26 -34 41 -60
15 -25 33 -52 41 -58 11 -9 12 -16 3 -30 -9 -14 -7 -25 11 -54 13 -20 28 -36
34 -36 7 0 23 -9 36 -19 l23 -18 -36 -21 c-42 -25 -43 -30 -15 -66 22 -28 19
-32 -30 -38 -51 -6 -53 -60 -4 -114 29 -30 63 -50 63 -35 0 4 -11 18 -25 31
-14 13 -34 38 -44 56 l-19 32 36 7 c21 3 48 13 61 22 l24 15 -32 25 c-36 28
-40 43 -11 43 22 0 70 41 70 59 0 6 -21 17 -47 26 l-48 15 64 -4 c35 -2 68 -9
74 -15 19 -19 -10 -60 -54 -79 l-41 -18 37 -33 c20 -18 36 -34 34 -35 -16 -14
-73 -36 -98 -38 -17 -1 -31 -7 -31 -14 0 -6 18 -31 41 -55 l41 -44 -21 36
c-27 46 -27 46 8 54 30 6 81 46 81 63 0 6 -8 20 -18 32 -18 22 -17 23 15 55
56 56 39 102 -44 120 -18 4 -33 12 -33 19 0 7 -11 23 -25 36 -14 13 -39 48
-56 78 l-31 55 41 41 c23 23 41 48 41 55 0 7 -29 42 -65 77 -57 57 -65 70 -63
98 1 24 -6 43 -24 64 -14 17 -28 46 -32 64 -6 33 -83 145 -109 160 -9 4 -22 0
-35 -13z m112 -126 c9 -18 16 -40 16 -51 0 -10 13 -31 29 -46 25 -24 28 -32
19 -52 -13 -29 4 -59 62 -105 22 -18 47 -43 55 -56 15 -22 14 -24 -10 -33 -14
-5 -25 -16 -25 -24 0 -7 -13 -16 -29 -19 l-30 -6 45 -68 c40 -61 51 -83 40
-83 -7 0 -107 162 -103 167 3 2 14 5 26 6 13 1 21 8 21 19 0 11 7 18 20 18 33
0 23 21 -41 82 -52 50 -60 62 -55 84 5 19 0 33 -19 55 -14 17 -25 41 -25 54 0
19 -43 87 -80 129 -5 4 -17 -9 -28 -30 -11 -22 -36 -61 -56 -88 -26 -37 -37
-46 -41 -34 -4 9 12 41 38 79 25 35 52 79 61 97 l17 33 38 -48 c21 -26 46 -62
55 -80z m211 -573 c18 -20 18 -21 -1 -35 -17 -13 -21 -12 -37 7 -13 16 -15 24
-6 34 15 19 23 18 44 -6z"/>
<path d="M563 2743 c-36 -39 -83 -114 -83 -133 0 -9 -14 -37 -30 -62 -23 -35
-29 -53 -24 -73 6 -23 -1 -34 -54 -83 -88 -83 -89 -89 -37 -141 l43 -42 -26
-47 c-14 -26 -40 -64 -59 -85 -18 -20 -33 -41 -33 -46 0 -5 -14 -11 -32 -15
-18 -3 -43 -13 -56 -22 -30 -20 -23 -56 18 -99 29 -30 29 -30 10 -54 -16 -22
-16 -27 -3 -47 8 -12 32 -29 54 -38 21 -9 39 -19 39 -23 0 -5 -9 -23 -20 -41
l-20 -32 23 15 c13 8 33 33 46 55 l22 40 -27 0 c-15 0 -47 10 -72 21 l-44 22
36 29 c20 16 36 33 36 37 0 4 -16 13 -35 20 -21 7 -41 24 -50 42 -15 29 -15
30 12 40 15 6 47 14 71 16 44 6 54 16 25 27 -14 6 -13 10 9 34 24 25 118 167
118 177 0 3 -13 5 -30 5 -23 0 -30 4 -30 20 0 13 -9 22 -26 26 -24 6 -23 9 50
84 42 43 76 81 76 84 0 3 -5 14 -11 24 -9 15 -7 23 15 47 14 15 31 46 37 69
10 37 86 155 100 156 3 0 18 -23 33 -50 15 -28 42 -70 61 -94 22 -29 30 -48
24 -57 -10 -17 -20 -5 -76 86 -20 33 -38 62 -40 64 -9 12 -93 -117 -93 -143 0
-11 -12 -32 -27 -48 -21 -22 -24 -30 -14 -42 16 -19 0 -44 -70 -110 -50 -47
-52 -50 -31 -59 12 -6 22 -16 22 -22 0 -7 13 -15 30 -18 l30 -6 -47 -73 c-25
-40 -52 -80 -60 -90 -10 -11 -11 -18 -4 -23 31 -19 -21 -81 -76 -91 -49 -9
-42 -42 15 -71 l42 -21 -35 -30 -36 -29 34 -17 c19 -9 47 -16 61 -16 14 0 26
-4 26 -9 0 -14 -51 -85 -71 -99 -24 -17 -25 -34 -2 -25 24 10 70 61 84 95 15
36 2 53 -46 62 l-34 7 16 28 c21 35 12 59 -27 72 -37 14 -38 21 -1 37 50 22
83 63 77 93 -4 21 7 45 49 109 54 83 58 104 25 115 -9 3 -25 14 -34 24 -15 17
-14 20 24 55 46 43 72 88 64 111 -4 9 2 25 13 38 11 12 25 40 31 62 6 22 22
53 35 69 l23 28 42 -64 c24 -37 40 -72 37 -80 -3 -8 3 -31 15 -51 17 -29 19
-40 10 -57 -15 -28 -7 -50 41 -110 39 -49 39 -51 24 -80 -9 -17 -20 -30 -25
-30 -21 0 -9 -41 21 -72 l30 -33 -20 42 c-26 52 -26 53 0 53 15 0 19 5 17 22
-2 18 3 24 27 28 l29 5 -42 33 c-45 36 -98 115 -87 132 3 5 13 10 21 10 20 0
18 5 -16 55 -32 47 -35 55 -21 55 11 0 84 -100 73 -100 -4 0 -15 -7 -26 -15
-18 -14 -18 -15 7 -58 14 -24 46 -60 71 -81 49 -40 57 -56 29 -56 -31 0 -48
-17 -35 -33 15 -17 6 -27 -24 -27 l-23 0 20 -35 c21 -35 39 -51 20 -18 -7 13
-4 23 10 38 40 41 69 78 69 88 0 6 -22 31 -48 56 -26 25 -56 58 -65 74 -17 26
-17 28 2 49 22 23 19 33 -21 91 -12 17 -18 37 -14 49 6 26 -119 228 -141 228
-8 0 -26 -12 -40 -27z"/>
<path d="M2120 2613 c-346 -35 -651 -172 -893 -403 -50 -47 -119 -123 -155
-170 -36 -47 -69 -89 -72 -93 -7 -8 -110 40 -122 57 -10 14 -58 -10 -58 -29 0
-9 11 -27 25 -41 29 -28 30 -34 12 -34 -8 0 -22 -9 -32 -20 -10 -11 -26 -20
-35 -20 -10 0 -22 -6 -28 -13 -14 -17 18 -65 63 -96 47 -32 63 -25 21 8 -20
16 -46 41 -57 55 l-20 26 28 2 c15 0 34 1 41 1 8 -1 10 6 7 17 -4 14 2 19 29
24 19 4 39 13 46 21 9 11 5 17 -25 29 -19 8 -42 22 -50 30 -13 13 -12 15 7 21
15 5 26 1 37 -14 9 -11 33 -26 54 -33 35 -13 36 -14 22 -35 -8 -11 -31 -24
-50 -27 -30 -6 -35 -10 -30 -27 6 -17 1 -19 -40 -19 l-46 0 18 -24 c10 -13 30
-32 44 -42 26 -17 52 -58 64 -101 6 -21 3 -23 -37 -23 -46 0 -70 -14 -62 -35
3 -6 -2 -18 -11 -25 -22 -18 -19 -31 18 -70 17 -19 33 -46 34 -60 1 -15 17
-38 38 -57 27 -23 35 -37 31 -51 -5 -14 2 -27 24 -46 18 -14 36 -26 41 -26 5
0 9 -4 9 -10 0 -15 -37 -12 -70 5 -34 17 -60 11 -60 -15 0 -24 -28 -29 -63
-12 -34 17 -62 0 -53 -31 5 -21 8 -21 -115 -1 -26 4 -38 2 -42 -8 -6 -17 6
-40 19 -38 5 1 15 -20 21 -47 l13 -48 -5 42 -5 42 52 -18 c51 -17 53 -19 59
-61 9 -67 24 -73 158 -65 122 6 188 24 94 25 l-53 0 0 65 c0 44 5 74 16 90 13
20 14 28 4 40 -11 13 -7 15 26 15 69 0 72 14 10 49 -65 38 -73 47 -46 56 13 4
31 -2 52 -18 18 -14 53 -35 77 -47 53 -26 44 -41 -28 -48 -28 -2 -48 -9 -45
-14 3 -5 12 -7 19 -4 15 5 30 -24 17 -33 -11 -9 -15 -128 -4 -135 6 -4 9 10 6
34 -3 31 1 45 21 66 30 32 33 44 5 19 -17 -15 -20 -16 -20 -3 0 9 7 19 16 22
8 3 13 10 9 16 -3 5 5 12 19 16 44 11 49 27 24 75 -12 24 -26 46 -30 47 -17 7
-7 20 12 15 21 -5 58 23 45 35 -4 4 -10 1 -12 -5 -6 -18 -23 -16 -45 4 -14 13
-18 13 -19 2 0 -8 -2 -24 -5 -36 -2 -15 2 -24 16 -28 23 -7 27 -25 5 -25 -20
0 -57 38 -45 45 21 13 10 52 -17 66 -37 19 -44 29 -32 51 5 10 8 18 5 18 -6 0
28 98 37 107 4 3 7 15 7 25 0 18 77 188 90 198 3 3 18 25 33 50 67 114 186
232 336 333 49 34 203 117 216 117 6 1 33 9 70 23 37 14 35 14 195 51 93 22
276 27 400 10 115 -15 258 -48 274 -64 6 -6 19 -10 31 -10 28 0 193 -84 280
-142 143 -97 286 -258 369 -419 38 -73 91 -196 94 -219 0 -3 3 -12 6 -20 29
-91 29 -90 2 -111 -29 -23 -33 -44 -11 -53 13 -5 13 -8 -2 -24 -15 -16 -20
-17 -29 -6 -6 8 -16 14 -23 14 -6 0 -11 5 -11 11 0 6 7 8 16 5 11 -4 14 -1 12
11 -2 12 -14 18 -42 19 -25 0 -44 7 -52 19 -17 22 -18 35 -4 35 6 0 10 -7 10
-15 0 -8 9 -19 19 -24 21 -12 32 3 37 50 2 22 -1 26 -22 23 -30 -3 -32 21 -4
36 11 6 20 20 19 33 0 22 0 22 -10 -2 -7 -18 -15 -22 -34 -19 -16 4 -22 1 -17
-6 3 -6 8 -19 9 -29 2 -10 15 -29 29 -42 29 -27 20 -34 -12 -10 -26 19 -31 19
-45 -6 -7 -13 -7 -19 -1 -15 6 3 13 -3 17 -14 3 -11 12 -20 19 -20 7 0 21 -10
32 -22 17 -19 17 -21 2 -15 -10 4 -18 2 -18 -3 0 -9 39 -26 53 -22 4 1 7 -2 7
-8 0 -14 -43 -13 -58 2 -9 9 -12 9 -12 1 0 -7 5 -15 11 -18 6 -4 8 -13 5 -21
-3 -7 3 -23 13 -35 18 -23 78 -32 116 -19 16 6 12 9 -20 14 -83 15 -95 18 -95
24 1 4 28 21 61 37 82 41 90 51 48 69 l-34 14 37 17 36 18 -23 81 c-131 474
-477 799 -966 908 -87 19 -133 23 -279 23 -146 0 -192 -4 -279 -23 -407 -91
-715 -330 -887 -689 -24 -50 -43 -96 -42 -100 1 -4 -3 -17 -9 -29 -7 -12 -21
-53 -32 -93 l-20 -72 45 -21 c24 -12 44 -25 44 -29 0 -11 -53 -21 -59 -11 -3
5 -24 18 -46 30 -22 11 -48 29 -58 40 -18 19 -18 21 -1 30 16 9 11 16 -37 61
-47 45 -51 50 -27 45 42 -9 53 4 26 33 l-23 26 47 -6 c50 -7 98 5 98 24 0 6
-9 13 -21 16 -14 4 -18 11 -14 22 12 30 10 36 -12 39 -13 2 -23 6 -23 10 0 4
19 41 41 82 216 397 564 658 1002 752 151 32 430 32 576 0 442 -99 782 -355
1001 -756 34 -62 40 -80 29 -87 -11 -6 -11 -11 -1 -21 16 -16 15 -28 -2 -28
-7 0 -19 -6 -25 -14 -19 -23 22 -40 81 -33 51 6 61 -3 28 -26 -25 -17 -16 -27
24 -27 l31 -1 -49 -45 c-40 -37 -46 -47 -36 -59 17 -20 2 -37 -63 -73 l-50
-27 26 -9 c15 -6 26 -14 24 -20 -2 -5 -29 -24 -61 -42 -62 -34 -62 -38 -3 -48
31 -6 36 -10 27 -21 -7 -9 -8 -15 0 -20 5 -3 10 -42 10 -91 l0 -84 -47 0 c-88
-1 -21 -19 94 -26 104 -6 111 -6 132 15 14 14 21 34 21 59 0 36 2 38 43 49 23
6 53 14 66 18 23 8 23 7 18 -46 l-6 -54 13 58 c14 61 25 83 27 51 0 -13 3 -10
9 9 17 57 -4 69 -80 42 -57 -20 -73 -19 -66 3 4 10 0 26 -7 35 -11 17 -15 17
-49 2 -46 -19 -58 -19 -58 -1 0 8 -7 22 -16 30 -14 14 -19 14 -51 1 -19 -8
-47 -15 -62 -14 l-26 0 25 12 c43 20 71 50 68 72 -2 14 10 33 35 54 26 24 37
41 37 61 0 16 3 30 8 32 4 2 19 18 34 36 27 32 28 62 2 62 -8 0 -11 6 -8 15
12 30 -17 48 -64 41 -35 -5 -42 -3 -34 7 37 47 -25 192 -160 372 -212 282
-536 490 -871 559 -146 30 -307 41 -427 29z m-1201 -805 c-28 -56 -26 -54 -49
-33 -20 18 -20 18 10 36 16 10 30 23 30 29 0 5 7 10 15 10 13 0 12 -7 -6 -42z
m2675 -573 l-17 -27 59 3 c33 2 65 9 73 16 20 20 27 6 8 -15 -10 -10 -17 -24
-17 -30 0 -17 69 -15 120 3 50 18 60 18 60 5 0 -5 -8 -10 -19 -10 -10 0 -35
-7 -54 -15 -20 -8 -55 -15 -77 -15 l-40 0 0 -60 0 -60 -77 0 -78 0 0 110 c0
103 1 110 20 110 11 0 27 4 35 10 22 14 24 5 4 -25z m-2641 -7 c21 -25 22 -38
2 -38 -12 0 -15 -16 -15 -80 l0 -80 -75 0 -75 0 -2 38 c-1 20 -2 45 -1 55 0 9
-7 17 -15 17 -27 0 -152 44 -152 53 0 9 24 3 79 -19 18 -8 49 -14 67 -14 27 0
34 4 34 19 0 11 -4 23 -10 26 -25 15 -6 23 25 9 46 -19 105 -19 105 1 0 8 -4
15 -9 15 -5 0 -12 7 -15 16 -8 22 33 9 57 -18z"/>
<path d="M2125 2308 c-60 -4 -124 -10 -142 -12 -81 -13 -296 -98 -328 -129 -9
-9 -25 -17 -36 -17 -10 0 -19 -4 -19 -10 0 -5 -5 -10 -12 -10 -15 0 -117 -79
-187 -144 -68 -65 -131 -143 -131 -163 0 -9 14 3 31 26 49 68 158 173 239 229
197 139 413 209 671 217 262 9 510 -63 734 -211 95 -63 233 -208 304 -319 17
-27 31 -43 31 -37 0 20 -44 101 -55 102 -5 0 -23 23 -39 50 -16 27 -33 47 -38
44 -4 -3 -8 -1 -8 5 0 40 -315 268 -385 279 -10 1 -22 6 -25 10 -4 7 -35 23
-50 26 -32 8 -107 31 -115 36 -5 4 -27 8 -48 9 -20 1 -47 5 -60 10 -12 4 -51
9 -87 10 -36 1 -81 3 -100 4 -19 1 -84 -1 -145 -5z"/>
<path d="M2190 2266 c0 -5 8 -15 18 -22 16 -13 16 -13 0 -14 -20 0 -24 -15 -7
-25 6 -4 7 -14 4 -24 -12 -29 -14 -52 -4 -46 5 4 9 12 9 19 0 7 9 21 20 31 22
20 26 35 9 35 -5 0 -7 -4 -4 -10 3 -5 1 -10 -6 -10 -11 0 -9 16 6 53 4 10 3
17 -5 17 -6 0 -8 -4 -5 -10 9 -14 -8 -13 -23 2 -7 7 -12 8 -12 4z"/>
<path d="M2315 2261 c-3 -6 -10 -9 -15 -6 -5 3 -12 0 -16 -6 -4 -8 -3 -9 4 -5
8 5 12 -2 12 -21 0 -15 5 -35 11 -43 8 -12 9 -11 4 6 -4 14 0 24 9 27 18 7 31
-9 16 -18 -14 -9 -12 -28 3 -22 6 2 11 10 10 16 -2 6 1 11 7 11 5 0 7 7 4 15
-11 26 12 16 25 -12 12 -27 3 -42 -26 -43 -7 0 -13 -7 -13 -16 0 -14 2 -15 17
-3 11 10 14 10 9 2 -4 -8 -2 -13 4 -13 7 0 10 7 6 15 -3 10 1 15 13 15 10 0
21 9 24 20 3 11 1 18 -4 14 -5 -3 -9 -1 -9 4 0 16 -38 53 -44 44 -10 -16 -56
-21 -56 -6 0 7 6 14 13 17 6 2 9 7 6 11 -4 4 -10 2 -14 -3z"/>
<path d="M2255 2250 c-3 -5 -1 -10 4 -10 6 0 11 5 11 10 0 6 -2 10 -4 10 -3 0
-8 -4 -11 -10z"/>
<path d="M1886 2211 c-4 -7 -5 -15 -2 -18 9 -9 19 4 14 18 -4 11 -6 11 -12 0z"/>
<path d="M1916 2195 c-28 -26 -46 -32 -46 -15 0 5 -7 7 -16 3 -12 -5 -10 -9
11 -23 25 -17 28 -17 45 -1 9 9 17 21 16 26 -1 6 5 9 12 7 8 -1 11 2 8 7 -4 5
2 12 11 14 15 4 15 5 2 6 -9 0 -28 -10 -43 -24z"/>
<path d="M2030 2206 c0 -2 7 -7 16 -10 8 -3 12 -2 9 4 -6 10 -25 14 -25 6z"/>
<path d="M2461 2188 c0 -10 -8 -18 -16 -18 -8 0 -15 -5 -15 -10 0 -7 6 -7 20
0 15 8 20 8 20 -1 0 -8 4 -8 13 -1 7 6 22 10 33 8 10 -2 13 -1 6 1 -7 3 -9 9
-6 15 4 6 2 8 -4 4 -5 -3 -13 0 -15 6 -3 8 -6 6 -6 -4 -1 -10 -5 -18 -10 -18
-5 0 -12 8 -14 18 -4 16 -5 16 -6 0z"/>
<path d="M2006 2175 c4 -8 8 -15 10 -15 2 0 4 7 4 15 0 8 -4 15 -10 15 -5 0
-7 -7 -4 -15z"/>
<path d="M2140 2181 c0 -7 -5 -9 -12 -5 -7 5 -8 3 -3 -5 5 -9 10 -10 18 -2 6
6 8 14 4 18 -4 3 -7 1 -7 -6z"/>
<path d="M2589 2173 c-1 -10 -1 -21 0 -25 0 -5 -3 -8 -9 -8 -5 0 -10 -9 -10
-20 0 -11 6 -20 13 -20 8 0 7 -3 -3 -10 -18 -11 -8 -23 13 -14 12 4 16 16 14
38 -2 25 2 32 21 34 32 5 39 -24 13 -52 -17 -18 -19 -26 -10 -31 8 -5 10 -4 5
3 -4 7 -2 12 4 12 7 0 10 -6 8 -12 -3 -7 -16 -46 -29 -85 -13 -40 -30 -73 -36
-73 -7 0 -14 -4 -14 -10 -1 -5 -2 -14 -3 -19 -3 -26 -17 -22 -15 4 2 17 8 33
14 37 6 5 5 8 -3 8 -7 0 -10 5 -7 10 3 6 2 10 -4 10 -6 0 -8 6 -5 14 3 8 1 17
-5 21 -7 3 -11 -3 -12 -17 0 -13 -2 -32 -4 -43 -2 -10 0 -25 6 -31 11 -13 -16
-28 -32 -18 -5 3 -9 1 -9 -5 0 -5 6 -12 13 -14 8 -4 8 -6 -2 -6 -11 -1 -10 -5
5 -15 17 -13 20 -13 26 2 5 14 7 13 7 -5 1 -32 -17 -38 -49 -15 l-27 21 0 -24
c0 -14 3 -22 7 -20 5 3 16 2 25 -1 14 -6 13 -9 -6 -30 -12 -13 -18 -24 -12
-24 6 0 16 7 23 15 18 22 32 18 20 -5 -7 -14 -7 -20 0 -20 16 0 12 -27 -6 -34
-24 -9 -39 -7 -60 9 -18 14 -18 15 8 11 15 -3 32 -7 38 -11 5 -3 10 -2 10 4 0
5 -13 12 -30 16 -34 7 -38 19 -13 34 26 14 9 25 -17 11 -13 -7 -19 -17 -16
-27 10 -25 -5 -36 -25 -17 -21 19 -25 6 -8 -29 9 -19 7 -18 -10 3 -11 14 -21
30 -21 36 0 8 -11 9 -36 4 -32 -8 -35 -6 -31 11 3 10 1 19 -4 19 -5 0 -9 -4
-9 -10 0 -5 -4 -10 -9 -10 -5 0 -8 17 -6 38 4 43 -3 82 -16 82 -5 0 -9 -8 -9
-18 0 -39 -57 -64 -105 -46 -21 9 -45 56 -45 91 0 44 26 73 65 73 39 0 57 -17
23 -22 -13 -2 -29 -15 -36 -31 -12 -24 -11 -31 3 -53 10 -16 22 -23 31 -20 9
4 12 2 8 -5 -4 -7 1 -10 11 -7 10 1 26 17 36 35 17 30 17 31 0 28 -11 -2 -28
-9 -40 -16 -29 -19 -48 0 -31 31 9 16 14 19 20 10 5 -9 9 -9 11 -1 3 7 14 13
26 14 12 0 20 4 18 8 -3 3 0 20 5 38 10 37 3 41 -10 5 -12 -30 -30 -24 -23 9
4 20 3 20 -7 4 -9 -14 -15 -16 -25 -7 -11 9 -21 8 -44 -3 -17 -8 -40 -13 -51
-10 -11 3 -20 0 -20 -6 0 -5 6 -8 14 -5 13 5 13 -1 1 -40 -8 -25 -11 -46 -7
-46 4 0 2 -4 -4 -8 -6 -4 -14 -18 -18 -32 -4 -14 -4 -20 1 -14 12 16 45 14 38
-3 -3 -8 1 -21 9 -29 17 -16 30 -19 21 -4 -9 14 1 12 36 -6 30 -15 48 -10 69
18 3 3 11 -5 17 -19 10 -21 10 -24 -3 -19 -16 6 -19 -10 -3 -19 6 -4 8 -14 5
-22 -3 -8 -1 -11 4 -8 6 3 10 2 10 -4 0 -17 -22 -24 -31 -10 -6 10 -8 6 -7
-13 1 -15 6 -24 10 -22 4 3 8 1 8 -3 0 -14 -24 -63 -31 -63 -13 0 -17 39 -5
51 8 9 8 10 -1 5 -6 -3 -17 2 -23 11 -9 15 -10 14 -5 -7 4 -20 2 -19 -12 8
-12 22 -22 31 -32 27 -31 -12 -36 -10 -34 17 1 21 -2 25 -14 21 -10 -4 -14 -2
-9 5 3 6 2 13 -4 17 -5 3 -10 -1 -10 -10 0 -9 -4 -13 -10 -10 -17 11 -11 -7 7
-20 14 -11 15 -15 4 -28 -7 -9 -10 -20 -7 -26 4 -5 -4 -12 -16 -14 l-23 -4 23
-2 c12 0 22 -8 22 -16 0 -9 -6 -12 -15 -9 -18 7 -20 -7 -2 -25 10 -11 9 -13
-5 -8 -10 4 -18 2 -18 -3 0 -6 4 -10 10 -10 5 0 7 -7 4 -15 -4 -8 -12 -15 -20
-15 -17 0 -19 -20 -1 -21 6 0 3 -4 -8 -9 -11 -5 -14 -9 -7 -9 7 -1 10 -6 7
-11 -4 -6 -11 -8 -16 -5 -5 4 -9 2 -9 -2 0 -5 -8 -9 -17 -9 -10 -1 -23 -3 -30
-5 -6 -2 -12 1 -13 6 0 6 7 12 17 13 31 6 45 32 27 50 -9 8 -13 23 -11 33 6
22 -12 37 -23 19 -5 -8 -9 -3 -12 14 -3 15 -1 29 4 32 14 9 -1 24 -17 17 -13
-4 -14 4 -11 45 4 44 2 50 -12 45 -15 -6 -15 -4 -4 9 11 14 10 18 -5 28 -15 9
-13 10 15 7 22 -2 29 0 22 7 -14 14 -13 29 3 20 9 -5 9 -4 0 6 -6 7 -9 19 -6
26 4 10 0 12 -11 8 -9 -3 -17 -1 -17 5 -2 11 -5 26 -9 39 -1 4 -2 11 -1 15 1
5 -3 6 -8 3 -5 -3 -16 15 -25 41 -12 35 -13 49 -4 60 9 11 8 13 -3 11 -10 -2
-14 6 -13 29 0 22 -3 30 -13 26 -9 -3 -11 0 -8 10 7 16 -17 29 -40 21 -8 -3
-19 -21 -25 -40 -6 -19 -15 -34 -19 -34 -5 0 -7 -12 -5 -26 2 -21 -1 -25 -16
-21 -15 4 -17 2 -8 -12 7 -12 5 -27 -9 -56 -11 -22 -24 -39 -30 -38 -6 1 -8
-9 -5 -22 3 -16 0 -25 -9 -25 -7 0 -9 -3 -6 -6 3 -4 2 -15 -4 -25 -7 -14 -5
-23 10 -38 11 -11 22 -16 26 -13 3 4 3 -1 -1 -11 -3 -9 -11 -14 -17 -10 -5 3
-7 2 -4 -4 3 -5 1 -28 -5 -52 -8 -30 -19 -46 -40 -57 -16 -8 -33 -12 -38 -9
-14 9 -12 35 2 35 9 0 9 3 0 12 -20 20 -13 32 8 13 11 -10 20 -13 20 -7 0 7 5
12 10 12 20 0 10 -20 -17 -34 -19 -11 -23 -15 -11 -16 10 0 27 10 38 22 20 21
20 23 4 35 -23 17 -37 17 -28 1 4 -7 -2 -5 -14 6 -17 15 -25 16 -36 7 -8 -7
-12 -20 -9 -29 3 -10 1 -13 -4 -7 -13 16 -41 14 -48 -2 -4 -11 0 -14 14 -10
13 3 21 -1 24 -13 6 -22 -11 -52 -25 -44 -6 4 -8 -1 -6 -12 2 -11 -3 -24 -12
-31 -10 -8 -11 -12 -2 -13 6 0 12 -4 12 -10 0 -17 -38 -5 -65 20 -14 13 -28
20 -32 17 -3 -4 -1 -7 6 -7 7 0 10 -4 7 -8 -3 -5 8 -19 24 -31 43 -31 39 -45
-12 -37 -23 4 -48 12 -56 19 -12 9 -14 8 -10 -8 2 -11 9 -19 16 -18 6 2 9 -4
6 -12 -5 -11 -2 -13 10 -9 9 3 16 10 16 14 0 5 9 6 20 3 11 -3 20 -10 20 -15
0 -6 7 -5 15 2 8 7 15 11 16 9 8 -38 7 -40 -14 -33 -12 3 -26 10 -32 15 -15
15 -28 10 -21 -7 5 -14 -1 -15 -39 -12 -25 2 -45 0 -45 -4 0 -5 8 -8 18 -8 14
0 14 -2 3 -9 -10 -6 -25 -4 -45 6 l-31 16 19 -22 c19 -21 19 -21 -8 -47 -26
-27 -34 -54 -16 -54 6 0 10 -5 10 -11 0 -6 -6 -9 -14 -6 -10 4 -12 0 -9 -14 4
-15 8 -17 19 -8 8 6 14 19 15 28 0 10 2 12 6 3 2 -6 9 -10 13 -7 17 10 -2 36
-21 30 -11 -4 -19 -2 -19 4 0 6 7 11 16 11 18 0 75 37 87 57 5 7 12 11 18 8 5
-4 9 -1 9 4 0 6 9 2 21 -10 23 -23 39 -18 19 6 -13 16 -3 20 18 7 13 -9 6 -42
-8 -42 -5 0 -19 4 -33 9 -34 13 -50 0 -38 -30 l10 -24 0 23 c1 25 22 26 29 1
3 -11 2 -11 -7 1 -13 18 -14 1 -2 -19 7 -11 10 -8 16 9 l7 23 15 -24 c8 -13
12 -16 9 -6 -3 9 -1 17 5 17 6 0 9 -10 7 -22 -2 -13 -9 -22 -16 -20 -7 1 -39
4 -71 7 -56 6 -59 5 -54 -15 3 -11 1 -20 -6 -20 -7 0 -21 -9 -33 -20 -18 -16
-19 -20 -5 -20 9 0 21 8 26 18 14 23 14 6 1 -19 -14 -26 -6 -24 26 6 16 15 20
23 11 19 -21 -8 -22 3 -2 22 8 9 15 12 15 8 0 -3 6 -1 14 5 11 10 14 9 12 -3
-1 -9 -5 -19 -9 -22 -4 -4 -7 -12 -7 -18 0 -6 9 0 20 14 11 14 20 21 20 15 0
-5 4 -4 9 4 8 12 12 12 25 2 23 -19 20 -48 -6 -62 -19 -10 -20 -9 -13 7 4 11
10 28 13 39 5 18 4 18 -10 5 -8 -9 -19 -26 -22 -38 -4 -12 -11 -20 -16 -17 -5
3 -20 3 -33 0 -19 -5 -23 -11 -19 -36 3 -19 0 -29 -9 -29 -7 0 -9 -3 -6 -7 4
-3 -1 -15 -10 -26 -17 -19 -17 -19 4 -6 23 14 46 55 38 69 -3 4 7 10 20 13 29
5 43 -8 19 -17 -11 -4 -14 -13 -10 -30 4 -15 0 -28 -9 -36 -17 -14 -21 -35 -5
-25 6 3 7 -1 4 -9 -5 -13 -49 -28 -86 -31 -4 0 -12 -5 -18 -11 -8 -8 -6 -15 6
-25 25 -20 1956 -21 1976 -1 20 20 -14 40 -83 48 -57 6 -59 8 -59 35 0 23 5
29 21 29 12 0 19 5 16 13 -2 6 -14 11 -27 9 -14 -2 -20 0 -16 7 9 14 46 14 46
1 0 -21 18 -9 23 16 4 23 -14 55 -31 54 -4 -1 -20 -17 -36 -38 -23 -31 -27
-33 -21 -12 4 14 17 35 28 48 19 20 22 21 43 7 20 -13 25 -13 38 1 21 20 21
41 1 24 -8 -6 -20 -10 -27 -8 -8 3 -4 9 10 17 25 14 57 7 47 -9 -3 -5 1 -10
10 -10 27 0 11 -25 -18 -28 -15 -2 -27 -8 -27 -13 0 -13 46 -11 58 4 12 14 11
67 -2 60 -9 -6 -26 15 -26 35 0 7 5 10 10 7 6 -4 8 -11 5 -16 -9 -13 10 -11
50 5 25 11 35 21 35 37 0 19 -4 21 -37 14 -31 -5 -36 -4 -25 6 6 7 12 21 12
31 0 9 6 21 14 25 13 7 20 32 17 59 -1 14 -40 59 -46 53 -9 -10 8 -49 21 -49
8 0 14 -4 14 -10 0 -17 -18 -11 -40 12 -20 22 -20 22 -20 1 0 -13 10 -25 30
-33 33 -14 31 -32 -3 -26 -12 3 -22 5 -22 6 0 1 -10 3 -22 4 -14 2 -23 -3 -23
-11 0 -10 6 -12 22 -7 20 6 21 5 9 -10 -11 -14 -11 -16 1 -16 8 0 19 5 26 12
9 9 12 9 12 -3 0 -8 -9 -20 -20 -27 -12 -7 -18 -17 -15 -22 3 -6 -3 -10 -13
-10 -24 0 -48 -25 -32 -35 5 -3 15 -3 20 0 6 3 10 1 10 -4 0 -14 -27 -14 -35
-1 -9 15 -25 12 -25 -5 0 -8 -5 -15 -11 -15 -5 0 -7 -5 -3 -12 5 -8 -2 -9 -26
-4 -38 7 -51 17 -32 23 6 3 9 9 6 15 -4 6 2 8 16 3 15 -5 20 -4 16 4 -4 6 -2
11 4 11 6 0 8 5 5 10 -3 6 -1 10 5 10 8 0 8 6 -1 21 -10 19 -9 20 13 14 19 -6
21 -5 11 6 -10 10 -9 16 4 31 21 24 2 23 -23 -1 -20 -18 -58 -41 -68 -41 -4 0
-1 9 6 20 7 11 19 20 27 20 8 0 11 7 8 20 -3 11 2 25 12 32 14 12 15 11 2 -4
-8 -11 -9 -18 -3 -18 16 0 26 20 15 31 -10 10 -63 -8 -63 -20 0 -4 -12 -19
-26 -35 -21 -22 -29 -25 -35 -14 -13 20 -11 28 10 28 15 0 18 5 13 22 -4 17
-2 20 12 15 10 -4 15 -3 11 3 -3 6 0 10 8 10 8 0 20 7 27 15 8 9 9 15 2 15 -6
0 -14 -5 -18 -11 -3 -6 -17 -9 -29 -6 -19 3 -25 -2 -30 -22 -7 -24 -8 -25 -15
-6 -9 23 13 47 36 38 8 -3 18 5 24 22 13 34 14 33 -15 33 -18 0 -25 -6 -25
-19 0 -25 -12 -24 -29 3 -12 19 -11 23 5 35 15 11 15 13 2 13 -9 0 -18 7 -22
15 -3 8 -1 15 5 15 6 0 7 5 4 11 -4 6 1 17 11 25 17 14 17 15 2 10 -14 -4 -18
1 -19 22 0 15 -3 21 -6 15 -10 -27 -24 -11 -22 25 4 65 0 104 -12 97 -6 -4 -8
-22 -6 -41 3 -19 1 -34 -3 -34 -5 0 -6 -10 -2 -22 5 -21 4 -22 -11 -9 -9 7
-17 9 -17 3 0 -5 7 -15 16 -22 8 -8 19 -21 24 -30 11 -21 26 -139 40 -325 15
-185 15 -188 41 -146 11 18 25 31 32 28 13 -4 25 -66 26 -134 l1 -41 78 -7
c42 -4 82 -8 87 -10 6 -2 -437 -4 -984 -4 -547 -1 -992 1 -989 4 2 3 30 6 61
6 l56 2 16 71 c8 39 19 77 24 85 13 20 31 4 31 -26 0 -40 11 -20 16 29 18 184
51 385 64 393 10 6 26 -72 36 -168 3 -37 10 -69 14 -72 9 -5 25 30 40 87 6 23
13 51 16 60 4 15 0 17 -25 12 -17 -4 -31 -4 -31 -1 0 3 19 36 42 73 40 67 88
172 88 195 0 7 -11 8 -30 4 -16 -4 -30 -3 -30 1 0 4 16 35 35 69 19 34 47 101
64 149 16 48 33 86 37 85 5 0 14 -25 21 -53 14 -61 53 -154 83 -196 27 -38 25
-43 -9 -35 l-30 6 21 -73 c11 -40 38 -108 59 -150 22 -43 39 -80 39 -84 0 -3
-16 -4 -35 -2 -19 2 -35 2 -35 1 0 -16 64 -163 70 -163 13 0 31 37 80 160 49
123 77 180 89 180 5 0 26 -23 46 -51 20 -28 41 -49 47 -47 6 2 24 29 40 58 40
76 60 95 86 81 11 -6 54 -49 97 -96 43 -47 83 -85 90 -85 11 0 35 41 35 60 0
6 -13 10 -29 10 -17 0 -33 4 -36 10 -3 5 13 33 35 62 37 45 80 118 80 132 0 3
-13 3 -30 0 -16 -4 -30 -4 -30 0 0 3 15 27 33 53 40 57 86 160 94 208 7 43 23
46 23 5 0 -52 21 -134 51 -194 36 -72 36 -78 3 -70 -25 6 -26 5 -19 -27 9 -43
51 -138 71 -161 23 -24 8 -41 -28 -33 -30 7 -30 7 -23 -26 13 -63 50 -144 65
-144 10 0 23 31 42 105 14 58 30 116 34 129 5 17 4 22 -4 17 -7 -4 -12 -13
-12 -21 0 -7 -6 -15 -14 -18 -8 -3 -14 -18 -14 -34 1 -15 -2 -38 -6 -50 -6
-19 -10 -21 -26 -11 -16 11 -17 14 -4 32 8 11 14 28 14 37 0 10 5 19 11 21 7
2 4 10 -7 18 -16 14 -17 13 -11 -3 4 -10 3 -16 -2 -12 -5 3 -12 19 -16 35 -4
17 -11 30 -17 30 -6 0 -9 2 -6 6 3 3 2 21 -2 41 -8 32 -5 39 21 64 23 21 26
28 14 33 -8 3 -15 10 -15 15 0 6 6 8 14 5 7 -3 16 2 19 10 8 20 -3 20 -28 2
-17 -12 -20 -11 -32 11 -7 14 -10 29 -7 34 8 13 -6 50 -16 44 -4 -3 -8 11 -8
30 0 20 -5 42 -11 49 -8 9 -8 22 -2 39 8 21 7 25 -4 20 -11 -4 -15 2 -15 22 0
23 -3 25 -14 16 -11 -9 -16 -9 -22 0 -4 7 -3 9 3 6 6 -4 13 -1 16 6 4 10 -2
13 -18 9 -13 -2 -31 1 -41 6 -14 8 -21 6 -31 -6 -10 -15 -11 -14 -6 6 3 12 3
22 -1 22 -3 0 -7 -8 -7 -17z m-359 -308 c0 -8 -2 -15 -4 -15 -2 0 -6 7 -10 15
-3 8 -1 15 4 15 6 0 10 -7 10 -15z m27 -67 c-3 -8 -6 -5 -6 6 -1 11 2 17 5 13
3 -3 4 -12 1 -19z m230 -145 c-2 -2 -16 3 -31 11 -18 9 -23 16 -14 19 12 4 52
-22 45 -30z m-29 -28 c-3 -3 -9 2 -12 12 -6 14 -5 15 5 6 7 -7 10 -15 7 -18z
m58 -40 c10 -8 14 -15 8 -15 -5 0 -19 7 -30 15 -10 8 -14 15 -8 15 5 0 19 -7
30 -15z m-946 -5 c0 -5 -7 -10 -15 -10 -8 0 -15 5 -15 10 0 6 7 10 15 10 8 0
15 -4 15 -10z m1244 -52 c-3 -5 -12 -4 -20 3 -19 16 -18 18 6 12 11 -3 17 -9
14 -15z m13 -33 c0 -8 -4 -15 -9 -15 -4 0 -8 7 -8 15 0 8 4 15 8 15 5 0 9 -7
9 -15z m-1237 -50 c0 -2 -6 -5 -13 -8 -8 -3 -14 1 -14 8 0 7 6 11 14 8 7 -3
13 -6 13 -8z m390 -15 c12 -8 11 -10 -7 -10 -13 0 -23 5 -23 10 0 13 11 13 30
0z m-25 -50 c3 -5 1 -10 -4 -10 -6 0 -11 5 -11 10 0 6 2 10 4 10 3 0 8 -4 11
-10z m1054 -21 c-27 -16 1 -21 32 -5 43 21 46 15 12 -22 -15 -17 -34 -38 -42
-47 -16 -20 -35 -6 -25 19 5 14 9 14 22 4 13 -12 14 -10 3 10 -7 12 -16 20
-22 17 -5 -4 -9 3 -9 14 0 22 32 47 39 29 2 -6 -3 -14 -10 -19z m269 -21 c-3
-7 -13 -15 -24 -17 -10 -2 -23 -8 -27 -15 -5 -7 -7 -3 -5 9 2 12 10 19 21 17
9 -2 17 2 17 8 0 5 5 10 11 10 6 0 9 -6 7 -12z m-241 -84 c-3 -3 -12 -4 -19
-1 -8 3 -5 6 6 6 11 1 17 -2 13 -5z m83 -64 c0 -5 -4 -10 -10 -10 -5 0 -10 5
-10 10 0 6 5 10 10 10 6 0 10 -4 10 -10z"/>
<path d="M2240 2159 c0 -5 5 -7 10 -4 6 3 10 8 10 11 0 2 -4 4 -10 4 -5 0 -10
-5 -10 -11z"/>
<path d="M2036 2148 c3 -5 10 -6 15 -3 13 9 11 12 -6 12 -8 0 -12 -4 -9 -9z"/>
<path d="M2093 2145 c0 -8 4 -12 9 -9 4 3 8 9 8 15 0 5 -4 9 -8 9 -5 0 -9 -7
-9 -15z"/>
<path d="M2720 2150 c0 -5 5 -10 11 -10 5 0 7 5 4 10 -3 6 -8 10 -11 10 -2 0
-4 -4 -4 -10z"/>
<path d="M2265 2140 c-3 -5 0 -7 9 -4 15 6 17 -18 3 -32 -9 -9 -38 16 -31 27
3 5 0 9 -5 9 -6 0 -11 -2 -11 -5 0 -14 30 -61 47 -75 19 -16 53 -23 53 -11 0
4 12 6 28 5 36 -2 46 5 31 22 -6 7 -9 20 -6 27 3 8 -1 14 -9 14 -8 0 -14 -4
-14 -9 0 -13 -21 -5 -48 20 -27 24 -38 27 -47 12z m65 -50 c0 -4 -13 -10 -30
-12 -35 -5 -35 -5 -15 16 15 15 45 12 45 -4z m37 -17 c3 -9 -8 -10 -35 -4 -2
1 0 6 3 12 8 12 27 7 32 -8z"/>
<path d="M2501 2136 c-9 -11 -9 -16 1 -22 7 -4 10 -4 6 1 -4 4 -3 14 3 22 6 7
9 13 6 13 -2 0 -10 -6 -16 -14z"/>
<path d="M1954 2123 c2 -9 8 -18 15 -19 7 -2 7 0 1 3 -8 3 -7 9 1 19 9 11 8
14 -4 14 -9 0 -14 -7 -13 -17z"/>
<path d="M2146 2128 c3 -5 10 -6 15 -3 13 9 11 12 -6 12 -8 0 -12 -4 -9 -9z"/>
<path d="M1820 2121 c0 -10 30 -24 37 -17 3 3 2 9 -2 15 -8 13 -35 15 -35 2z"/>
<path d="M2398 2109 c-2 -14 1 -31 9 -38 7 -7 11 -17 7 -23 -4 -6 2 -6 15 1
24 13 28 23 6 15 -10 -4 -16 3 -20 23 -4 15 -8 33 -9 38 -2 6 -5 -1 -8 -16z"/>
<path d="M1996 2111 c-3 -5 1 -12 10 -15 22 -8 25 -4 9 11 -8 7 -16 9 -19 4z"/>
<path d="M2036 2105 c4 -8 11 -15 16 -15 6 0 5 6 -2 15 -7 8 -14 15 -16 15 -2
0 -1 -7 2 -15z"/>
<path d="M2090 2089 c0 -11 4 -18 10 -14 5 3 7 12 3 20 -7 21 -13 19 -13 -6z"/>
<path d="M2210 2100 c0 -5 5 -10 11 -10 5 0 7 5 4 10 -3 6 -8 10 -11 10 -2 0
-4 -4 -4 -10z"/>
<path d="M2836 2095 c4 -9 11 -14 16 -13 15 5 11 23 -6 26 -11 2 -14 -2 -10
-13z"/>
<path d="M1940 2091 c0 -5 5 -13 10 -16 6 -3 10 -2 10 4 0 5 -4 13 -10 16 -5
3 -10 2 -10 -4z"/>
<path d="M1975 2081 c-4 -7 -1 -10 7 -9 8 2 12 -6 11 -22 -3 -22 -2 -23 8 -6
9 14 8 22 -4 33 -10 11 -17 12 -22 4z"/>
<path d="M1846 2065 c4 -8 8 -15 10 -15 2 0 4 7 4 15 0 8 -4 15 -10 15 -5 0
-7 -7 -4 -15z"/>
<path d="M2747 2061 c-10 -12 -9 -14 6 -8 10 4 23 7 28 7 5 0 9 4 9 8 0 14
-30 10 -43 -7z"/>
<path d="M2060 2054 c0 -8 5 -12 10 -9 6 4 8 11 5 16 -9 14 -15 11 -15 -7z"/>
<path d="M2140 2059 c0 -5 5 -7 10 -4 6 3 10 8 10 11 0 2 -4 4 -10 4 -5 0 -10
-5 -10 -11z"/>
<path d="M2590 2059 c0 -5 5 -7 10 -4 6 3 10 8 10 11 0 2 -4 4 -10 4 -5 0 -10
-5 -10 -11z"/>
<path d="M2220 2050 c0 -5 5 -10 11 -10 5 0 7 5 4 10 -3 6 -8 10 -11 10 -2 0
-4 -4 -4 -10z"/>
<path d="M2548 2053 c6 -2 18 -2 25 0 6 3 1 5 -13 5 -14 0 -19 -2 -12 -5z"/>
<path d="M2105 2040 c3 -5 8 -10 11 -10 2 0 4 5 4 10 0 6 -5 10 -11 10 -5 0
-7 -4 -4 -10z"/>
<path d="M2156 2041 c-3 -5 1 -11 9 -15 9 -3 15 0 15 9 0 16 -16 20 -24 6z"/>
<path d="M2486 2032 c-2 -4 -1 -14 4 -22 7 -11 9 -9 7 8 -1 24 -3 26 -11 14z"/>
<path d="M2810 2030 c0 -5 5 -10 10 -10 6 0 10 5 10 10 0 6 -4 10 -10 10 -5 0
-10 -4 -10 -10z"/>
<path d="M1891 1987 c-22 -44 -28 -74 -11 -47 8 12 10 11 10 -7 0 -13 4 -23 9
-23 5 0 6 12 2 28 -5 16 -2 40 6 60 19 47 8 39 -16 -11z"/>
<path d="M2342 2016 c7 -8 17 -12 22 -9 4 3 2 9 -5 14 -22 13 -31 11 -17 -5z"/>
<path d="M2430 2020 c8 -5 20 -10 25 -10 6 0 3 5 -5 10 -8 5 -19 10 -25 10 -5
0 -3 -5 5 -10z"/>
<path d="M1961 2002 c-6 -12 -5 -23 5 -36 12 -18 13 -17 11 10 -1 22 2 29 15
28 10 -1 15 2 12 7 -9 15 -33 10 -43 -9z"/>
<path d="M2300 2010 c0 -5 -7 -10 -16 -10 -13 0 -14 -3 -4 -14 6 -8 18 -12 26
-9 8 3 14 1 14 -4 0 -5 6 -10 14 -10 8 0 12 6 9 14 -3 7 -14 13 -24 13 -12 0
-16 5 -13 15 4 8 3 15 0 15 -3 0 -6 -4 -6 -10z"/>
<path d="M2390 2000 c0 -6 7 -10 15 -10 8 0 15 2 15 4 0 2 -7 6 -15 10 -8 3
-15 1 -15 -4z"/>
<path d="M2772 1995 c-7 -8 -9 -15 -4 -15 5 0 15 7 22 15 16 19 -1 19 -18 0z"/>
<path d="M3600 1998 c0 -4 -16 -16 -37 -25 -51 -25 -61 -45 -39 -78 10 -15 30
-31 46 -36 16 -6 31 -17 34 -25 3 -8 15 -18 27 -22 21 -8 21 -9 -7 -43 -31
-37 -12 -26 44 25 30 28 41 47 25 45 -5 -1 -26 -1 -48 0 -30 1 -36 4 -27 13
19 19 14 25 -24 31 -68 11 -87 50 -29 61 20 4 41 16 48 26 7 12 23 20 39 20
27 0 27 -1 11 -20 -10 -11 -32 -25 -50 -31 -18 -6 -33 -15 -33 -19 0 -14 35
-30 65 -30 23 0 24 -2 15 -20 -10 -18 -8 -20 30 -20 22 0 40 -4 40 -9 0 -4
-22 -29 -50 -55 -47 -44 -51 -58 -9 -35 27 14 55 42 69 69 13 25 -1 50 -29 50
-9 0 -22 9 -29 20 -7 11 -19 20 -27 20 -8 0 -15 5 -15 10 0 6 4 10 10 10 5 0
16 13 24 29 13 24 13 31 2 40 -15 13 -76 12 -76 -1z"/>
<path d="M2580 1990 c0 -5 5 -10 11 -10 5 0 7 5 4 10 -3 6 -8 10 -11 10 -2 0
-4 -4 -4 -10z"/>
<path d="M2476 1973 c-6 -14 -5 -15 5 -6 7 7 10 15 7 18 -3 3 -9 -2 -12 -12z"/>
<path d="M2992 1983 c9 -2 15 -10 12 -18 -8 -19 13 -28 33 -15 16 9 15 10 -4
5 -14 -4 -23 -2 -23 4 0 6 6 11 13 11 8 0 7 4 -3 10 -8 5 -22 9 -30 9 -11 -1
-11 -2 2 -6z"/>
<path d="M2406 1945 c3 -11 13 -25 21 -32 10 -8 11 -13 3 -18 -8 -5 -8 -11 1
-21 14 -17 -2 -19 -19 -2 -9 9 -15 9 -24 0 -17 -17 -33 -15 -18 3 10 12 10 18
-1 31 -12 15 -11 16 9 10 21 -7 23 -5 20 15 -2 12 -9 24 -17 27 -8 3 -11 0 -7
-6 9 -15 -29 -53 -41 -41 -6 6 -10 4 -10 -6 0 -8 6 -15 12 -15 7 0 13 -11 13
-25 0 -14 -4 -25 -9 -25 -5 0 -9 7 -9 16 0 8 -5 12 -10 9 -8 -5 -7 -11 1 -21
14 -17 39 -18 39 -2 0 9 3 9 12 0 9 -9 15 -9 27 1 12 9 13 9 7 0 -4 -8 -1 -13
9 -13 9 0 14 4 10 9 -3 5 3 12 14 16 13 4 17 12 14 25 -3 13 0 20 8 20 8 0 4
7 -8 15 -12 8 -20 23 -18 33 2 12 -3 18 -16 18 -14 0 -18 -5 -13 -21z"/>
<path d="M1613 1935 c-7 -8 -9 -16 -4 -19 5 -3 12 1 15 10 8 22 4 25 -11 9z"/>
<path d="M1938 1922 c-7 -11 -20 -21 -28 -25 -13 -4 -12 -6 1 -6 9 -1 24 10
33 24 19 29 14 34 -6 7z"/>
<path d="M2282 1931 c-8 -5 -12 -17 -10 -27 2 -15 5 -13 15 9 14 30 14 30 -5
18z"/>
<path d="M2821 1924 c0 -11 3 -14 6 -6 3 7 2 16 -1 19 -3 4 -6 -2 -5 -13z"/>
<path d="M3080 1921 c0 -5 5 -13 10 -16 6 -3 10 -2 10 4 0 5 -4 13 -10 16 -5
3 -10 2 -10 -4z"/>
<path d="M1983 1896 c-23 -24 -31 -56 -14 -56 6 0 8 9 6 20 -2 11 0 20 5 20 5
0 14 9 20 20 14 26 10 25 -17 -4z"/>
<path d="M2020 1896 c0 -2 7 -7 16 -10 8 -3 12 -2 9 4 -6 10 -25 14 -25 6z"/>
<path d="M1521 1868 c-1 -10 -5 -18 -9 -18 -5 0 -9 -7 -9 -15 0 -8 3 -15 7
-15 4 0 7 -7 7 -15 0 -8 -4 -15 -9 -15 -4 0 -8 5 -8 12 0 6 -3 8 -7 5 -3 -4
-12 -2 -19 4 -10 8 -13 6 -11 -10 0 -11 5 -17 9 -15 4 3 7 -5 5 -18 -1 -16 2
-22 13 -19 8 2 30 4 49 3 24 0 30 3 20 9 -12 7 -12 9 1 9 13 0 13 2 1 9 -8 5
-21 7 -29 4 -11 -5 -12 -2 -2 13 8 14 9 29 2 54 -6 19 -11 27 -11 18z m-1 -99
c0 -5 -7 -9 -15 -9 -8 0 -15 7 -15 15 0 9 6 12 15 9 8 -4 15 -10 15 -15z"/>
<path d="M2850 1865 c-20 -24 -6 -28 15 -5 10 11 13 20 8 20 -6 0 -16 -7 -23
-15z"/>
<path d="M2936 1857 c3 -10 9 -15 12 -12 3 3 0 11 -7 18 -10 9 -11 8 -5 -6z"/>
<path d="M3146 1835 c4 -8 10 -15 15 -15 4 0 6 7 3 15 -4 8 -10 15 -15 15 -4
0 -6 -7 -3 -15z"/>
<path d="M1990 1831 c0 -5 5 -13 10 -16 6 -3 10 -2 10 4 0 5 -4 13 -10 16 -5
3 -10 2 -10 -4z"/>
<path d="M2875 1828 c5 -13 2 -18 -9 -18 -9 0 -16 -8 -16 -17 0 -15 3 -14 22
5 18 18 20 24 10 34 -11 11 -12 10 -7 -4z"/>
<path d="M2399 1808 c-11 -8 -10 -9 4 -4 9 3 17 1 17 -4 0 -5 -9 -12 -21 -15
-11 -4 -18 -9 -16 -11 6 -6 57 17 57 27 0 13 -26 17 -41 7z"/>
<path d="M1236 1785 c-9 -14 -13 -25 -9 -25 10 0 36 40 30 46 -2 3 -12 -7 -21
-21z"/>
<path d="M2360 1790 c-6 -11 -8 -20 -6 -20 3 0 10 9 16 20 6 11 8 20 6 20 -3
0 -10 -9 -16 -20z"/>
<path d="M1956 1784 c-3 -8 -10 -12 -16 -9 -5 3 -10 1 -10 -4 0 -6 5 -11 11
-11 5 0 8 -4 5 -8 -3 -5 12 -25 33 -45 33 -31 37 -33 36 -14 -1 12 0 26 3 32
3 5 7 24 9 42 3 32 2 33 -31 33 -21 0 -36 -6 -40 -16z m54 -4 c6 9 10 10 10 3
0 -6 -5 -15 -11 -18 -6 -4 -8 -14 -4 -24 5 -13 4 -13 -6 -4 -10 10 -16 10 -27
1 -11 -10 -13 -8 -10 8 5 28 21 45 31 30 5 -8 10 -7 17 4z"/>
<path d="M2075 1781 c-3 -5 -2 -12 3 -15 5 -3 9 1 9 9 0 17 -3 19 -12 6z"/>
<path d="M2320 1770 c0 -5 5 -10 11 -10 5 0 7 5 4 10 -3 6 -8 10 -11 10 -2 0
-4 -4 -4 -10z"/>
<path d="M2143 1755 c0 -7 8 -10 19 -7 10 2 18 6 18 7 0 1 -8 5 -18 7 -11 3
-19 0 -19 -7z"/>
<path d="M1203 1735 c-9 -25 4 -29 17 -6 7 15 7 21 0 21 -6 0 -13 -7 -17 -15z"/>
<path d="M1566 1734 c-9 -8 -13 -21 -9 -27 5 -8 8 -8 11 1 2 7 7 10 11 8 4 -3
8 4 8 15 2 23 -1 24 -21 3z"/>
<path d="M2116 1737 c3 -10 9 -15 12 -12 3 3 0 11 -7 18 -10 9 -11 8 -5 -6z"/>
<path d="M1513 1725 c-8 -9 -22 -11 -47 -5 -29 6 -34 5 -33 -10 1 -14 6 -16
28 -10 22 7 27 5 22 -6 -3 -8 -2 -14 1 -14 13 0 48 39 45 48 -2 6 -9 4 -16 -3z"/>
<path d="M2157 1729 c-14 -8 -15 -13 -5 -23 19 -18 46 -16 43 3 -2 9 -4 19 -4
24 -1 10 -12 8 -34 -4z m23 -9 c0 -5 -5 -10 -11 -10 -5 0 -7 5 -4 10 3 6 8 10
11 10 2 0 4 -4 4 -10z"/>
<path d="M2975 1720 c4 -6 11 -8 16 -5 14 9 11 15 -7 15 -8 0 -12 -5 -9 -10z"/>
<path d="M3146 1717 c3 -10 9 -15 12 -12 3 3 0 11 -7 18 -10 9 -11 8 -5 -6z"/>
<path d="M3010 1710 c0 -5 -8 -10 -17 -10 -15 0 -16 -2 -3 -10 22 -14 30 -12
30 6 0 10 5 14 16 10 8 -3 12 -2 9 4 -8 13 -35 13 -35 0z"/>
<path d="M3290 1708 c0 -9 5 -20 11 -23 17 -11 18 -2 3 19 -12 17 -14 17 -14
4z"/>
<path d="M1196 1685 c-3 -9 -6 -26 -6 -36 0 -11 -4 -17 -10 -14 -5 3 -11 -3
-11 -14 -1 -12 -2 -27 -3 -33 -1 -7 2 -16 7 -19 5 -3 2 -13 -7 -21 -10 -11
-12 -18 -4 -26 8 -8 6 -15 -5 -26 -20 -21 -27 -20 -28 2 0 12 -3 10 -10 -7 -5
-14 -6 -28 -2 -32 15 -14 52 10 59 38 4 15 11 33 16 40 5 7 7 17 3 23 -3 5 -2
10 4 10 18 0 24 -22 8 -31 -12 -7 -14 -16 -6 -41 6 -21 5 -36 -3 -45 -8 -11
-7 -12 6 -7 9 3 16 2 16 -4 0 -6 -5 -12 -12 -14 -16 -6 -1 -58 16 -58 19 0 40
27 26 35 -5 3 -10 1 -10 -4 0 -6 -7 -11 -15 -11 -14 0 -13 3 2 24 10 14 26 27
36 29 10 3 15 11 11 20 -3 10 3 20 16 27 12 6 19 14 17 17 -3 3 -12 1 -19 -3
-7 -5 -17 -9 -23 -10 -5 -1 -18 -5 -28 -9 -16 -7 -18 -3 -15 21 2 22 8 28 22
26 10 -2 15 1 12 6 -3 5 4 21 15 36 24 30 22 31 -17 11 -25 -13 -30 -12 -45 3
-16 16 -15 19 9 44 14 15 22 31 19 35 -4 3 -7 1 -7 -6 0 -7 -5 -9 -10 -6 -6 4
-8 10 -6 14 3 4 1 13 -3 20 -6 10 -10 9 -15 -4z m64 -225 c0 -5 -8 -10 -17
-10 -15 0 -16 2 -3 10 19 12 20 12 20 0z"/>
<path d="M1380 1666 c0 -13 29 -44 37 -38 1 1 18 1 36 1 23 -1 26 -3 10 -6
-24 -5 -31 -27 -11 -39 6 -4 8 -3 5 3 -4 5 5 16 19 23 l25 14 -23 13 c-13 7
-30 12 -39 13 -9 0 -22 7 -29 15 -16 19 -30 19 -30 1z"/>
<path d="M205 1648 c-31 -11 -65 -36 -65 -48 0 -4 18 -31 41 -59 l41 -51 -46
-55 c-26 -30 -69 -68 -96 -86 -27 -18 -52 -41 -56 -51 -13 -43 52 -92 92 -70
14 8 23 5 41 -14 23 -25 55 -30 97 -14 22 8 26 7 26 -9 0 -37 31 -50 105 -46
39 2 78 7 88 10 16 7 17 2 11 -62 -5 -48 -3 -72 5 -77 14 -9 36 5 38 24 0 8 7
48 14 88 16 91 7 106 -56 92 -22 -5 -57 -10 -77 -10 -30 0 -37 4 -40 22 -4 29
-34 35 -59 12 -20 -18 -107 -31 -136 -20 -14 6 -9 12 28 36 27 19 45 26 48 18
2 -6 -4 -17 -13 -23 -21 -16 -20 -25 3 -25 22 0 35 38 19 57 -15 19 -41 16
-71 -7 -14 -11 -30 -20 -36 -20 -20 0 -6 25 25 45 17 11 59 51 93 89 58 64 61
70 47 90 -12 19 -12 25 6 49 28 39 20 57 -40 87 -29 14 -50 29 -46 33 9 9 7 8
-31 -5z m74 -51 l54 -29 -37 -25 c-42 -31 -44 -37 -13 -58 l24 -15 -63 -69
c-35 -37 -80 -76 -99 -87 -36 -19 -42 -28 -25 -39 20 -12 10 -25 -19 -25 -27
0 -61 21 -61 38 0 4 16 16 35 26 19 11 70 55 111 99 l77 79 -28 22 c-17 13
-25 28 -21 34 4 7 4 12 -1 12 -4 0 -19 9 -32 19 l-24 19 29 15 c16 9 31 15 34
14 3 -1 29 -15 59 -30z m73 -369 c-7 -7 -12 -18 -12 -25 0 -16 84 -17 149 -2
24 5 45 8 46 7 3 -3 -27 -171 -32 -177 -11 -14 -10 14 3 78 7 41 12 77 9 79
-2 3 -24 -1 -49 -7 -57 -14 -153 -14 -162 0 -10 17 17 59 40 59 15 0 17 -3 8
-12z"/>
<path d="M3135 1651 c-3 -5 -2 -12 3 -15 5 -3 9 1 9 9 0 17 -3 19 -12 6z"/>
<path d="M3221 1651 c-9 -6 -10 -11 -2 -15 6 -4 11 -2 11 4 0 6 5 8 12 4 7 -4
8 -3 4 4 -8 14 -7 14 -25 3z"/>
<path d="M3294 1645 c3 -8 1 -15 -4 -15 -5 0 -8 -8 -8 -17 0 -10 -3 -26 -7
-35 -4 -11 -3 -18 4 -18 6 0 11 -5 11 -11 0 -7 -10 -9 -25 -6 -25 4 -25 3 -9
-14 15 -17 18 -17 28 -3 7 9 20 14 31 12 13 -2 19 4 20 20 1 13 -2 25 -6 28
-5 2 -6 11 -2 19 3 8 0 15 -6 15 -6 0 -11 9 -11 20 0 11 -5 20 -11 20 -6 0 -9
-7 -5 -15z m26 -62 c-1 -18 -18 -35 -24 -24 -4 6 -4 16 -1 21 7 12 25 13 25 3z"/>
<path d="M4270 1654 c0 -5 -20 -17 -45 -28 -63 -25 -74 -50 -41 -85 24 -25 25
-29 11 -41 -9 -7 -15 -19 -13 -26 5 -21 89 -118 136 -155 23 -19 42 -40 42
-46 0 -19 -8 -16 -42 12 -44 37 -71 31 -80 -17 -5 -26 -3 -28 26 -28 28 1 29
2 14 14 -36 27 -19 38 22 15 22 -13 40 -26 40 -31 0 -7 -60 -13 -85 -8 -5 1
-18 2 -28 3 -10 1 -23 9 -28 19 -5 10 -18 18 -28 18 -22 0 -45 -25 -36 -40 8
-13 -95 -13 -131 0 -21 8 -31 8 -41 -3 -12 -12 -12 -25 -2 -78 6 -35 15 -76
20 -91 l8 -28 -77 -2 -77 -1 90 -6 c55 -4 93 -2 98 4 8 10 3 72 -9 119 -6 24
-5 24 39 14 25 -5 69 -8 98 -6 50 3 55 6 71 36 9 19 19 29 23 23 18 -30 115
-3 115 32 0 8 4 7 12 -1 25 -25 88 -9 108 28 15 28 3 47 -56 86 -51 34 -134
121 -134 141 0 5 16 28 35 50 39 46 43 63 18 86 -21 18 -73 33 -73 21z m78
-49 c2 -2 -10 -11 -27 -21 -17 -10 -30 -25 -28 -32 1 -8 -7 -20 -18 -28 -18
-12 -24 -10 -60 20 l-39 33 46 20 c25 12 49 26 52 32 5 8 17 6 39 -5 18 -9 33
-18 35 -19z m-35 -180 c38 -41 88 -87 113 -101 43 -25 44 -27 28 -45 -11 -12
-31 -19 -52 -19 -33 0 -34 1 -18 18 15 18 14 20 -31 49 -27 16 -72 57 -101 90
-48 56 -51 63 -35 72 10 6 20 11 23 11 3 0 36 -34 73 -75z m-123 -194 c5 -11
10 -27 10 -37 0 -15 -10 -16 -92 -11 -51 2 -100 8 -109 11 -15 7 -15 0 1 -78
9 -47 14 -86 10 -86 -6 0 -40 148 -40 176 0 7 19 7 63 -2 76 -17 124 -18 133
-3 3 6 1 16 -5 22 -15 15 -14 27 4 27 8 0 19 -9 25 -19z"/>
<path d="M1215 1610 c-3 -5 -1 -10 4 -10 6 0 11 5 11 10 0 6 -2 10 -4 10 -3 0
-8 -4 -11 -10z"/>
<path d="M3050 1609 c0 -5 5 -7 10 -4 6 3 10 8 10 11 0 2 -4 4 -10 4 -5 0 -10
-5 -10 -11z"/>
<path d="M1407 1581 c3 -11 11 -26 19 -32 23 -19 18 15 -5 35 -19 17 -19 17
-14 -3z"/>
<path d="M3035 1584 c13 -14 19 -14 28 -4 9 10 9 11 0 6 -6 -3 -14 -2 -18 4
-3 5 -11 10 -16 10 -6 0 -3 -7 6 -16z"/>
<path d="M3180 1582 c0 -10 23 -22 41 -22 5 0 9 5 9 11 0 5 -5 7 -10 4 -6 -4
-17 -1 -25 5 -9 7 -15 8 -15 2z"/>
<path d="M1116 1555 c-3 -8 -1 -15 4 -15 6 0 10 7 10 15 0 8 -2 15 -4 15 -2 0
-6 -7 -10 -15z"/>
<path d="M2280 1537 c0 -39 -39 -147 -81 -226 -44 -82 -81 -134 -143 -198
l-40 -43 96 0 96 0 26 63 c15 34 33 96 40 137 11 68 13 72 19 41 4 -18 7 -44
7 -57 0 -13 11 -59 25 -103 l26 -81 80 0 80 0 -26 43 c-39 64 -109 204 -138
277 -34 86 -45 141 -14 70 57 -132 136 -267 205 -353 l31 -39 103 -5 103 -5
-36 39 c-42 44 -127 172 -161 242 -21 43 -30 51 -94 80 -40 18 -102 57 -138
87 -61 50 -66 53 -66 31z m55 -182 c15 -38 49 -112 75 -162 l48 -93 -43 0
c-50 0 -53 5 -85 144 -33 143 -56 148 -85 19 -9 -42 -25 -96 -36 -120 -18 -43
-19 -43 -69 -43 l-50 0 45 59 c49 65 113 180 141 255 14 40 19 45 25 30 4 -10
20 -50 34 -89z m124 43 c72 -36 75 -39 121 -122 26 -47 62 -105 79 -128 17
-23 31 -45 31 -48 0 -15 -104 0 -123 17 -48 43 -221 337 -190 321 5 -2 41 -20
82 -40z"/>
<path d="M3105 1550 c3 -5 8 -10 11 -10 2 0 4 5 4 10 0 6 -5 10 -11 10 -5 0
-7 -4 -4 -10z"/>
<path d="M1322 1534 c-14 -16 -5 -18 17 -5 7 5 9 11 5 14 -5 3 -15 -1 -22 -9z"/>
<path d="M3150 1510 c0 -5 5 -10 11 -10 5 0 7 5 4 10 -3 6 -8 10 -11 10 -2 0
-4 -4 -4 -10z"/>
<path d="M3380 1500 c0 -5 5 -10 11 -10 5 0 7 5 4 10 -3 6 -8 10 -11 10 -2 0
-4 -4 -4 -10z"/>
<path d="M3133 1476 c1 -11 9 -21 17 -23 10 -3 11 -2 4 4 -6 4 -14 15 -17 23
-5 11 -6 9 -4 -4z"/>
<path d="M1100 1440 c0 -5 5 -9 12 -7 7 1 12 -5 13 -13 0 -8 9 -16 20 -17 11
-2 14 0 8 3 -7 3 -13 12 -13 19 0 7 -7 16 -16 19 -21 8 -24 8 -24 -4z"/>
<path d="M3407 1443 c-10 -10 -8 -41 2 -48 5 -3 9 8 9 25 -1 33 -1 33 -11 23z"/>
<path d="M1704 1355 c-18 -44 -18 -84 1 -109 19 -24 18 -36 0 -60 -12 -16 -18
-17 -27 -8 -19 19 -28 14 -28 -16 0 -16 9 -37 20 -47 24 -21 39 -13 20 11 -12
13 -11 17 1 25 8 5 17 9 21 9 3 0 13 13 21 29 11 23 12 33 2 52 -21 40 -27 69
-16 69 19 0 51 -39 53 -65 3 -33 16 -32 24 1 6 22 0 32 -35 65 -33 29 -41 43
-36 59 11 33 -5 23 -21 -15z"/>
<path d="M1302 1345 c-7 -8 -9 -15 -4 -15 5 0 15 7 22 15 16 19 -1 19 -18 0z"/>
<path d="M1828 1265 c3 -15 0 -25 -8 -25 -8 0 -10 -12 -6 -40 4 -32 1 -44 -16
-60 -12 -11 -16 -20 -9 -20 7 0 9 -6 6 -12 -4 -7 5 -1 19 15 14 15 28 43 32
62 7 39 -2 105 -15 105 -5 0 -6 -11 -3 -25z"/>
<path d="M1274 1201 c3 -5 -1 -11 -9 -15 -9 -3 -15 -17 -14 -38 1 -18 3 -25 6
-15 2 9 9 15 14 12 5 -4 9 -2 9 4 0 5 -6 12 -12 14 -8 4 -5 8 9 12 21 7 22 35
1 35 -5 0 -7 -4 -4 -9z"/>
<path d="M3397 1194 c2 -7 11 -10 19 -7 19 7 18 10 -5 16 -13 3 -18 1 -14 -9z"/>
<path d="M3419 1176 c-3 -4 -3 -23 1 -44 3 -21 5 -50 3 -66 -3 -17 0 -25 7
-21 11 7 12 76 1 113 -3 13 -9 21 -12 18z"/>
<path d="M3150 1139 c0 -5 4 -8 9 -5 5 4 12 0 14 -6 3 -8 6 -6 6 5 1 9 -6 17
-14 17 -8 0 -15 -5 -15 -11z"/>
<path d="M621 1124 c0 -11 3 -14 6 -6 3 7 2 16 -1 19 -3 4 -6 -2 -5 -13z"/>
<path d="M3871 1104 c0 -11 3 -14 6 -6 3 7 2 16 -1 19 -3 4 -6 -2 -5 -13z"/>
<path d="M1720 1090 c-46 -6 -100 -24 -100 -33 0 -2 153 2 215 6 38 2 39 3 15
13 -41 18 -72 21 -130 14z"/>
<path d="M631 1074 c0 -11 3 -14 6 -6 3 7 2 16 -1 19 -3 4 -6 -2 -5 -13z"/>
<path d="M660 1048 c0 -9 -6 -19 -12 -21 -10 -4 -10 -6 0 -6 14 -1 28 26 18
36 -3 4 -6 -1 -6 -9z"/>
<path d="M352 944 c7 -7 3769 -6 3776 1 3 3 -847 5 -1888 5 -1041 0 -1891 -3
-1888 -6z"/>
<path d="M342 638 l-2 -297 28 -33 c15 -18 65 -77 111 -130 l84 -98 1688 0
1687 0 40 47 c22 27 67 85 101 131 l61 83 -3 297 -2 297 -3 -295 -2 -295 -86
-110 c-47 -60 -88 -116 -91 -123 -4 -9 -353 -12 -1698 -12 l-1694 0 -103 121
-103 120 -5 297 -5 297 -3 -297z"/>
<path d="M585 833 c-88 -3 -102 -6 -118 -25 -16 -19 -16 -23 -2 -44 21 -33 21
-186 0 -204 -8 -7 -15 -22 -15 -33 0 -34 29 -46 111 -47 60 0 79 4 91 18 19
22 29 60 17 68 -14 8 -11 24 4 24 13 0 29 24 40 60 3 8 6 -6 6 -33 1 -26 -4
-56 -11 -67 -10 -15 -9 -24 2 -44 12 -23 19 -25 74 -25 34 1 67 6 74 11 8 7
16 7 25 0 16 -14 477 -13 494 1 8 5 25 5 45 -2 34 -11 55 -10 75 2 6 4 23 3
38 -3 35 -13 118 -13 132 1 7 7 17 8 29 1 23 -12 573 -11 591 1 7 4 22 3 34
-4 26 -13 76 -5 101 18 15 13 18 32 18 99 0 46 5 86 10 89 16 10 12 40 -8 58
-22 20 -103 23 -132 4 -16 -9 -22 -9 -28 0 -5 8 -48 12 -135 12 -122 0 -128
-1 -142 -23 -14 -20 -14 -27 0 -59 8 -21 14 -37 13 -38 -29 -6 -88 -7 -88 -1
0 4 9 18 20 32 11 14 20 33 20 43 0 43 -13 46 -291 45 -153 0 -272 -4 -283
-10 -12 -7 -22 -6 -29 1 -6 6 -34 11 -62 11 -39 0 -56 -5 -70 -20 -18 -20 -18
-22 2 -58 14 -26 18 -46 13 -67 -7 -32 -15 -23 -24 25 -18 96 -39 119 -107
120 -71 0 -89 -22 -130 -157 -6 -18 -15 -33 -21 -33 -11 0 -8 14 13 67 10 24
10 37 1 57 -20 44 -58 61 -151 66 -74 4 -85 7 -87 25 -3 21 -31 46 -48 43 -6
-1 -56 -4 -111 -5z m135 -50 c0 -55 -11 -73 -40 -73 -19 0 -29 6 -33 20 -3 12
-14 20 -26 20 -17 0 -21 -6 -21 -35 0 -35 0 -35 45 -35 43 0 45 -1 45 -30 0
-29 -2 -30 -46 -30 -44 0 -45 -1 -42 -27 2 -23 7 -27 26 -25 19 3 22 -1 22
-27 l0 -31 -85 0 c-77 0 -85 2 -85 19 0 10 7 21 15 25 12 4 15 26 15 106 0 82
-3 100 -15 100 -8 0 -15 9 -15 20 0 18 8 20 98 23 53 1 107 4 120 5 18 2 22
-3 22 -25z m210 -56 c34 -17 40 -70 10 -102 l-21 -22 34 -41 34 -41 38 110 37
109 57 0 56 0 23 -93 c13 -50 27 -93 33 -95 5 -2 9 -12 9 -23 0 -17 -8 -19
-65 -19 -58 0 -65 2 -65 20 0 11 7 20 15 20 8 0 15 5 15 10 0 6 -16 10 -35 10
-19 0 -35 -4 -35 -10 0 -5 5 -10 10 -10 6 0 10 -9 10 -20 0 -20 -5 -21 -102
-18 l-103 3 -18 38 c-19 40 -37 49 -37 17 0 -11 7 -20 15 -20 8 0 15 -9 15
-20 0 -18 -7 -20 -69 -20 -64 0 -69 1 -64 20 3 11 9 20 14 20 5 0 9 36 9 81 0
51 -4 78 -10 74 -5 -3 -10 3 -10 14 0 20 6 21 88 21 50 0 98 -6 112 -13z m463
-39 c31 -51 32 -51 35 -23 2 18 -2 33 -12 41 -32 23 -17 34 44 34 53 0 60 -2
60 -20 0 -11 -4 -20 -10 -20 -6 0 -10 -38 -10 -95 l0 -95 -40 0 c-37 0 -42 4
-72 50 -32 48 -57 67 -44 34 3 -9 6 -22 6 -30 0 -8 7 -14 16 -14 9 0 14 -7 12
-17 -3 -15 -15 -19 -65 -21 -58 -3 -61 -2 -56 18 3 11 9 20 14 20 5 0 9 34 9
75 0 60 -3 75 -15 75 -8 0 -15 9 -15 20 0 18 7 20 55 20 l56 0 32 -52z m270
32 c-3 -11 -9 -20 -14 -20 -5 0 -9 -16 -9 -36 l0 -36 26 32 c19 22 24 34 16
42 -6 6 -8 17 -5 24 6 18 113 20 113 3 0 -6 -16 -29 -35 -50 l-35 -39 20 -41
c12 -22 27 -42 35 -46 8 -3 15 -14 15 -24 0 -16 -8 -19 -45 -19 -44 0 -45 0
-74 58 l-30 57 -1 -37 c0 -21 5 -38 10 -38 6 0 10 -9 10 -20 0 -18 -7 -20 -65
-20 -52 0 -65 3 -65 15 0 9 7 18 15 21 22 9 22 149 0 158 -8 3 -12 12 -9 21 5
11 22 15 69 15 58 0 63 -2 58 -20z m287 0 c0 -13 -7 -20 -20 -20 -18 0 -20 -7
-20 -70 0 -56 3 -70 15 -70 9 0 18 12 22 30 5 25 10 30 35 30 27 0 30 -3 24
-22 -3 -13 -6 -38 -6 -55 l0 -33 -100 0 c-78 0 -100 3 -100 14 0 7 7 19 15 26
11 9 15 32 15 82 0 52 -4 70 -15 74 -8 4 -15 12 -15 20 0 11 18 14 75 14 68 0
75 -2 75 -20z m200 8 c0 -7 -7 -22 -15 -32 -21 -28 -21 -146 0 -146 8 0 15 -9
15 -20 0 -18 -7 -20 -65 -20 -58 0 -65 2 -65 20 0 11 5 20 10 20 6 0 10 34 10
81 0 51 -4 78 -10 74 -5 -3 -10 3 -10 14 0 19 6 21 65 21 46 0 65 -4 65 -12z
m155 -41 c29 -51 30 -51 33 -22 2 18 -2 33 -12 41 -32 23 -17 34 49 34 52 0
65 -3 65 -15 0 -9 -7 -18 -15 -21 -12 -5 -15 -26 -15 -100 l0 -94 -40 0 c-37
0 -42 4 -72 50 -18 27 -36 50 -39 50 -3 0 -4 -13 -1 -30 2 -18 10 -30 19 -30
8 0 13 -7 11 -17 -3 -15 -16 -19 -66 -21 -63 -3 -74 4 -47 32 11 10 15 36 15
85 0 56 -3 71 -15 71 -8 0 -15 9 -15 20 0 18 7 20 58 20 l57 0 30 -53z m-507
-62 c-3 -50 -4 -51 -22 -32 -22 22 -26 46 -10 62 26 25 35 17 32 -30z m359 8
c-3 -10 -5 -4 -5 12 0 17 2 24 5 18 2 -7 2 -21 0 -30z"/>
<path d="M830 667 c0 -27 19 -40 39 -27 20 12 8 45 -17 48 -18 3 -22 -1 -22
-21z"/>
<path d="M1100 666 c0 -8 -3 -21 -6 -30 -4 -11 0 -16 14 -16 15 0 18 5 14 25
-5 28 -22 44 -22 21z"/>
<path d="M2614 830 c-104 -23 -163 -149 -119 -253 8 -20 31 -48 52 -64 32 -25
45 -28 109 -28 59 0 78 4 102 22 29 22 30 22 47 3 37 -41 133 -38 185 7 31 25
31 26 45 6 31 -45 125 -55 179 -20 22 15 25 15 40 -2 19 -21 111 -28 133 -10
10 9 19 9 38 -1 27 -14 71 -7 98 17 11 11 17 31 17 60 0 36 3 43 19 43 27 0
33 -25 10 -48 -23 -26 -24 -45 -3 -66 24 -24 155 -22 177 2 22 25 21 45 -3 67
-24 22 -26 45 -3 45 9 0 25 8 36 17 18 17 20 17 38 -6 23 -28 24 -50 4 -57
-24 -9 -29 -43 -9 -65 23 -25 147 -28 182 -3 27 19 28 50 3 66 -18 11 -18 15
-6 45 8 18 25 48 39 66 31 40 32 58 9 80 -15 13 -60 15 -312 16 -202 1 -298
-3 -308 -10 -9 -8 -17 -8 -26 0 -21 17 -350 14 -373 -4 -16 -11 -23 -11 -46 1
-39 20 -107 17 -146 -6 -18 -11 -34 -20 -37 -20 -2 0 -1 15 2 33 3 23 0 37
-14 48 -20 19 -112 29 -159 19z m144 -34 c2 -3 1 -28 -3 -55 -7 -50 -8 -51
-40 -51 -29 0 -34 4 -37 27 -4 33 -29 41 -52 18 -11 -11 -16 -34 -16 -68 0
-81 44 -127 71 -74 15 28 28 37 56 37 21 0 22 -3 16 -52 -3 -29 -7 -55 -9 -57
-2 -2 -33 -6 -70 -9 -118 -9 -170 43 -162 159 7 99 67 143 182 134 33 -3 61
-7 64 -9z m205 -67 c31 -14 47 -48 47 -99 0 -77 -41 -120 -114 -120 -51 0 -83
15 -101 49 -30 60 -13 140 36 167 29 16 100 18 132 3z m180 -6 c-3 -10 -10
-23 -15 -30 -5 -6 -8 -38 -6 -70 3 -51 6 -58 26 -61 21 -3 22 0 22 65 0 38 -5
74 -11 80 -25 25 4 33 110 33 l107 0 29 -50 c31 -52 52 -66 41 -27 -3 12 -6
28 -6 35 0 7 -4 10 -10 7 -5 -3 -10 3 -10 14 0 19 6 21 60 21 62 0 77 -13 45
-40 -11 -9 -15 -35 -15 -101 l0 -89 -39 0 c-36 0 -42 4 -71 50 -18 28 -34 50
-36 50 -2 0 -4 -13 -4 -30 0 -20 5 -30 15 -30 8 0 15 -9 15 -20 0 -18 -7 -20
-60 -20 -52 0 -60 2 -60 19 0 11 4 21 9 23 15 5 18 141 4 145 -7 3 -13 11 -13
19 0 22 -17 16 -24 -8 -3 -13 -6 -46 -6 -75 0 -91 -29 -123 -111 -123 -29 0
-47 7 -64 25 -22 21 -25 33 -25 100 0 48 -4 74 -10 70 -5 -3 -10 3 -10 14 0
19 6 21 65 21 57 0 64 -2 58 -17z m625 -33 c3 -50 3 -50 -28 -50 -17 0 -29 4
-26 9 4 5 3 16 0 25 -13 33 -20 14 -19 -51 0 -62 2 -68 21 -71 16 -2 20 -8 17
-23 -5 -17 -14 -19 -84 -19 -44 0 -79 3 -79 8 0 12 14 29 28 33 9 3 14 27 16
72 2 68 -7 88 -18 42 -5 -19 -13 -25 -32 -25 -24 0 -26 3 -20 31 3 17 6 40 6
50 0 17 9 19 108 19 l107 0 3 -50z m136 33 c-8 -21 -9 -62 0 -70 12 -12 21 9
20 48 l-1 39 53 0 c30 0 54 -4 54 -9 0 -5 -11 -22 -24 -38 -28 -34 -66 -107
-66 -128 0 -8 9 -15 20 -15 13 0 20 -7 20 -20 0 -18 -7 -20 -80 -20 -73 0 -80
2 -80 20 0 13 7 20 20 20 14 0 20 7 20 21 0 23 -43 100 -65 119 -8 7 -15 21
-15 31 0 17 8 19 66 19 59 0 65 -2 58 -17z m-1224 -61 c8 -9 7 -16 -4 -28 -9
-8 -16 -20 -16 -25 0 -6 -4 -7 -10 -4 -5 3 -10 30 -10 58 1 48 2 50 15 32 8
-11 19 -26 25 -33z"/>
<path d="M2874 675 c-7 -18 0 -103 9 -112 4 -3 13 -3 22 1 24 9 17 119 -8 124
-9 2 -20 -4 -23 -13z"/>
<path d="M719 402 c-62 -3 -101 -30 -82 -54 19 -24 22 -121 5 -150 -15 -25
-15 -29 3 -48 17 -19 26 -21 75 -15 62 7 82 19 78 48 -2 11 3 22 10 25 9 3 11
-3 7 -20 -11 -44 11 -51 188 -54 89 -2 169 -3 177 -3 8 0 63 1 121 2 138 3
165 21 117 82 -17 22 -19 31 -10 46 39 62 38 59 15 78 -17 14 -37 17 -101 15
-44 -1 -89 -5 -101 -9 -12 -4 -27 -2 -34 3 -7 5 -41 10 -75 11 -49 2 -68 -2
-83 -15 -18 -16 -20 -16 -37 -1 -20 18 -54 21 -87 7 -15 -6 -27 -1 -46 16 -32
31 -69 40 -140 36z m123 -52 c10 -12 18 -31 18 -42 0 -31 -54 -78 -88 -78 -25
0 -29 -3 -25 -20 3 -11 12 -20 19 -20 8 0 14 -7 14 -15 0 -12 -13 -15 -60 -15
-47 0 -60 3 -60 15 0 8 5 15 10 15 6 0 10 34 10 81 0 51 -4 78 -10 74 -5 -3
-10 2 -10 12 0 16 9 18 82 17 72 -1 84 -4 100 -24z m152 -87 c20 -76 34 -102
47 -81 13 20 11 116 -3 120 -6 2 -8 10 -4 16 4 7 32 12 69 12 92 0 132 -36 91
-81 -12 -14 -13 -22 -4 -38 6 -12 15 -21 20 -21 6 0 10 -7 10 -15 0 -11 -11
-15 -36 -15 -30 0 -37 4 -45 30 -11 31 -29 41 -29 15 0 -8 5 -15 10 -15 6 0
10 -7 10 -15 0 -12 -18 -15 -100 -15 -82 0 -100 3 -100 15 0 8 5 15 10 15 6 0
10 5 10 10 0 6 -9 10 -19 10 -11 0 -23 -4 -26 -10 -3 -5 -1 -10 4 -10 6 0 11
-7 11 -15 0 -11 -11 -15 -41 -15 -27 0 -39 4 -37 13 2 6 14 45 28 85 l24 72
42 0 42 0 16 -67z m323 50 c-22 -70 -22 -70 1 -49 15 13 20 26 16 42 -6 23 -4
24 40 24 25 0 46 -4 46 -8 0 -5 -13 -21 -30 -37 -27 -26 -28 -30 -15 -55 7
-14 21 -32 29 -39 25 -21 19 -31 -19 -31 -31 0 -37 5 -57 43 -21 39 -23 40
-26 17 -2 -13 1 -26 7 -28 6 -2 11 -10 11 -18 0 -10 -13 -14 -45 -14 -33 0
-45 4 -45 15 0 8 5 15 10 15 6 0 10 25 10 55 0 30 -4 55 -10 55 -5 0 -10 7
-10 15 0 11 12 15 46 15 40 0 46 -3 41 -17z"/>
<path d="M750 306 c0 -26 4 -36 15 -36 33 0 30 57 -3 68 -8 2 -12 -9 -12 -32z"/>
<path d="M1110 270 c0 -15 5 -20 18 -18 9 2 17 10 17 18 0 8 -8 16 -17 18 -13
2 -18 -3 -18 -18z"/>
<path d="M917 260 c-3 -13 0 -20 9 -20 8 0 14 9 14 20 0 11 -4 20 -9 20 -5 0
-11 -9 -14 -20z"/>
<path d="M1611 389 c-12 -13 -21 -26 -21 -29 0 -4 -11 -5 -24 -3 -54 11 -118
-57 -118 -125 0 -29 7 -43 37 -70 33 -31 42 -34 81 -29 34 3 60 17 106 53 34
26 63 44 65 39 25 -71 97 -111 168 -92 32 8 40 10 45 7 15 -7 509 -6 528 1 13
5 26 18 29 28 7 26 31 34 37 13 13 -39 142 -73 161 -42 5 8 11 8 19 1 6 -6 35
-8 64 -5 29 2 61 0 71 -5 12 -7 26 -6 45 4 23 12 35 12 73 2 40 -10 49 -9 82
9 l38 21 36 -21 c32 -19 40 -19 82 -8 26 7 53 9 63 4 9 -5 53 -7 97 -5 101 4
99 4 168 -3 44 -5 64 -2 83 11 23 15 27 15 49 1 71 -47 185 11 165 84 -4 14
-5 41 -2 61 3 30 0 39 -19 53 -36 25 -121 15 -140 -16 -5 -7 -16 -4 -33 10
-25 19 -37 20 -144 16 -64 -2 -124 -3 -132 -3 -75 5 -223 3 -254 -2 -22 -4
-52 -2 -68 3 -35 12 -92 3 -113 -19 -14 -14 -18 -14 -36 3 -20 18 -70 23 -164
15 -16 -1 -44 1 -60 4 -18 4 -48 0 -74 -9 -39 -13 -48 -13 -73 0 -22 12 -53
14 -141 9 -133 -6 -121 -6 -175 1 -32 5 -48 2 -61 -10 -18 -16 -51 -13 -51 5
0 5 -20 9 -44 9 -36 0 -48 -5 -65 -26 l-21 -27 0 29 c0 37 -9 50 -40 62 -65
25 -160 -14 -182 -74 -8 -22 -17 -33 -26 -29 -7 3 -23 5 -34 5 -20 0 -20 1 -5
18 15 17 15 21 -1 52 -21 43 -43 48 -71 19z m50 -27 c9 -23 -18 -57 -95 -119
l-39 -32 27 -7 c29 -7 76 9 76 25 0 6 -7 8 -15 5 -10 -4 -15 0 -15 10 0 19 9
23 73 29 39 4 47 2 45 -11 -2 -8 -12 -20 -23 -26 -11 -6 -37 -26 -58 -43 -62
-54 -147 -40 -162 26 -7 34 15 85 44 101 25 13 61 13 61 0 0 -23 18 -7 35 30
20 43 33 47 46 12z m284 5 c1 -1 0 -19 -3 -39 -3 -32 -8 -38 -28 -38 -18 0
-24 6 -24 21 0 15 -5 20 -22 17 -20 -3 -23 -10 -26 -51 -4 -69 28 -104 48 -52
7 17 17 25 34 25 23 0 24 -3 19 -37 -3 -21 -7 -40 -9 -42 -2 -2 -29 -6 -59 -9
-50 -4 -56 -2 -86 27 -29 29 -31 36 -27 82 5 54 34 94 72 103 19 4 107 -1 111
-7z m165 -103 c8 -36 17 -67 22 -70 4 -3 8 -12 8 -20 0 -10 -13 -14 -50 -14
-47 0 -63 11 -40 25 17 10 11 25 -10 25 -17 0 -19 -5 -14 -25 6 -24 4 -25 -35
-25 -40 0 -49 7 -32 26 5 5 16 34 26 64 9 30 18 61 20 68 3 7 22 12 48 12 l43
0 14 -66z m141 44 c0 -13 4 -32 9 -43 7 -16 9 -13 15 23 8 42 8 42 51 42 32 0
44 -4 44 -15 0 -8 -4 -15 -10 -15 -5 0 -10 -24 -10 -54 0 -40 4 -55 16 -60 9
-3 20 -4 25 0 12 7 11 114 -1 114 -5 0 -10 7 -10 15 0 12 14 15 63 15 72 0
107 -18 107 -55 0 -26 -42 -65 -71 -65 -11 0 -19 -4 -19 -10 0 -5 5 -10 10
-10 6 0 10 -7 10 -15 0 -12 -18 -14 -95 -14 -76 0 -95 3 -95 15 0 8 5 14 10
14 6 0 10 14 10 31 0 42 -17 28 -25 -21 -6 -33 -11 -40 -30 -40 -19 0 -24 7
-30 40 -8 49 -25 63 -25 21 0 -17 5 -31 10 -31 6 0 10 -7 10 -15 0 -11 -11
-15 -36 -15 -33 0 -36 2 -29 23 19 61 23 112 9 120 -25 14 -5 27 42 27 39 0
44 -3 45 -22z m459 -3 c0 -14 -8 -29 -19 -35 -26 -14 -31 -13 -31 6 0 9 -7 14
-17 12 -25 -4 -31 -75 -8 -84 9 -4 19 -3 23 1 4 4 1 10 -5 12 -7 3 -13 12 -13
21 0 13 10 17 40 17 l40 1 -6 -36 c-10 -59 -11 -60 -61 -60 -71 0 -93 19 -93
80 0 64 30 90 101 90 45 0 49 -2 49 -25z m164 19 c31 -12 38 -42 19 -75 -18
-30 -18 -31 5 -49 32 -26 27 -40 -14 -40 -31 0 -37 4 -47 30 -12 32 -27 40
-27 15 0 -8 5 -15 10 -15 6 0 10 -7 10 -15 0 -11 -12 -15 -50 -15 -47 0 -63
11 -40 25 6 3 10 31 10 61 0 30 -4 54 -10 54 -5 0 -10 7 -10 15 0 12 14 15 64
15 35 0 72 -3 80 -6z m196 -14 c29 -29 27 -94 -5 -125 -33 -34 -87 -34 -122 1
-22 22 -25 32 -20 67 4 26 14 49 27 59 31 25 95 23 120 -2z m120 5 c0 -8 -3
-15 -8 -15 -4 0 -7 -24 -7 -52 0 -40 4 -53 15 -53 12 0 15 14 14 68 l-1 67 35
0 c31 0 34 -2 28 -22 -3 -13 -6 -42 -6 -65 0 -56 -26 -83 -79 -83 -53 0 -70
24 -63 90 3 33 1 50 -7 50 -6 0 -11 7 -11 15 0 11 12 15 45 15 33 0 45 -4 45
-15z m194 -27 c25 -41 26 -42 26 -15 0 15 -4 27 -10 27 -5 0 -10 7 -10 15 0
11 12 15 45 15 33 0 45 -4 45 -15 0 -8 -4 -15 -10 -15 -6 0 -10 -30 -10 -70
l0 -70 -30 0 c-23 0 -35 8 -52 35 -26 39 -39 45 -31 15 3 -11 9 -20 14 -20 5
0 9 -7 9 -15 0 -11 -12 -15 -45 -15 -33 0 -45 4 -45 15 0 8 5 15 10 15 6 0 10
25 10 55 0 30 -4 55 -10 55 -5 0 -10 7 -10 15 0 11 11 15 39 15 36 0 42 -4 65
-42z m249 30 c42 -32 35 -122 -12 -147 -11 -6 -47 -11 -81 -11 l-62 0 16 25
c18 27 22 100 6 110 -5 3 -10 13 -10 21 0 18 118 20 143 2z m182 2 c11 -18 -6
-50 -26 -50 -10 0 -19 5 -19 10 0 6 -7 10 -15 10 -28 0 -15 -17 25 -33 32 -12
40 -20 40 -41 0 -33 -35 -56 -85 -56 -51 0 -66 10 -58 38 6 23 38 31 45 11 2
-6 13 -10 23 -7 16 3 12 8 -20 23 -76 38 -50 105 42 105 23 0 45 -5 48 -10z
m-1852 -45 c-3 -9 -8 -14 -10 -11 -3 3 -2 9 2 15 9 16 15 13 8 -4z m-78 -4 c3
-5 1 -12 -4 -15 -5 -3 -11 1 -15 9 -6 16 9 21 19 6z"/>
<path d="M1516 264 c-4 -9 -4 -19 -1 -22 6 -6 35 18 35 29 0 16 -28 10 -34 -7z"/>
<path d="M2037 265 c-8 -20 -4 -29 11 -24 5 2 6 13 2 23 -6 19 -7 19 -13 1z"/>
<path d="M2462 275 c4 -32 22 -38 26 -9 2 13 -4 24 -13 28 -13 5 -16 0 -13
-19z"/>
<path d="M2810 270 c0 -15 5 -20 18 -18 9 2 17 10 17 18 0 8 -8 16 -17 18 -13
2 -18 -3 -18 -18z"/>
<path d="M2992 243 c4 -66 28 -70 28 -4 0 39 -4 51 -16 51 -12 0 -14 -10 -12
-47z"/>
<path d="M3560 240 c0 -51 6 -60 28 -38 22 22 12 88 -14 88 -10 0 -14 -14 -14
-50z"/>
</g>
</svg>
