<?xml version="1.0" standalone="no"?>
<!DOCTYPE svg PUBLIC "-//W3C//DTD SVG 20010904//EN"
 "http://www.w3.org/TR/2001/REC-SVG-20010904/DTD/svg10.dtd">
<svg version="1.0" xmlns="http://www.w3.org/2000/svg"
 width="918.000000pt" height="612.000000pt" viewBox="0 0 918.000000 612.000000"
 preserveAspectRatio="xMidYMid meet">
<metadata>
Created by potrace 1.10, written by Peter Selinger 2001-2011
</metadata>
<g transform="translate(0.000000,612.000000) scale(0.100000,-0.100000)"
fill="#000000" stroke="none">
<path d="M715 6028 c-6 -33 -27 -83 -67 -165 -12 -23 -36 -57 -55 -74 -38 -38
-41 -49 -14 -49 20 0 43 25 74 80 14 26 20 30 31 21 12 -10 13 -8 9 7 -2 11 0
23 5 26 6 3 8 15 5 25 -5 21 12 61 27 61 6 0 10 -9 10 -20 0 -11 5 -20 11 -20
5 0 8 -4 5 -9 -4 -5 0 -12 6 -15 10 -5 10 -7 1 -12 -7 -3 -13 -12 -13 -20 0
-9 4 -12 10 -9 9 6 50 -45 82 -104 10 -19 25 -31 38 -31 26 0 25 16 -3 43 -39
37 -82 118 -113 209 -16 48 -32 88 -36 88 -3 0 -9 -15 -13 -32z m-31 -153 c-4
-8 -8 -15 -10 -15 -2 0 -4 7 -4 15 0 8 4 15 10 15 5 0 7 -7 4 -15z"/>
<path d="M3605 5992 c-10 -37 -22 -74 -26 -82 -4 -8 -15 -38 -24 -66 -20 -64
-66 -137 -99 -160 -14 -9 -26 -19 -26 -23 0 -9 54 -6 69 4 28 17 7 -22 -31
-57 -43 -40 -41 -44 20 -39 22 2 22 -1 -16 -56 -40 -59 -127 -144 -146 -142
-6 0 -36 34 -66 76 -117 161 -292 309 -476 401 -269 135 -632 170 -964 92
-327 -77 -650 -324 -805 -616 l-24 -45 -41 60 c-58 86 -62 101 -20 71 18 -13
31 -19 27 -13 -5 7 8 9 38 5 26 -2 45 0 45 5 0 6 -23 24 -50 41 -28 17 -50 35
-50 39 0 4 16 8 37 8 39 0 56 20 24 30 -42 13 -161 159 -161 198 0 9 -7 17
-15 17 -37 0 6 -87 85 -171 l51 -54 -25 -10 -24 -10 20 -28 c11 -15 17 -31 14
-35 -4 -3 -11 0 -15 7 -7 11 -13 10 -34 -4 l-25 -16 31 -55 c18 -31 63 -83
101 -117 38 -34 86 -79 107 -99 37 -38 79 -50 79 -24 0 8 -15 17 -33 20 -44 8
-151 109 -144 135 6 26 109 183 115 177 3 -3 -16 -37 -41 -75 -53 -78 -64
-101 -48 -101 6 0 11 7 11 16 0 9 14 29 31 45 17 16 28 33 25 38 -3 5 3 20 14
34 11 14 20 28 20 32 0 3 15 23 34 43 70 76 96 107 96 117 -1 10 -24 -14 -97
-100 -24 -28 -43 -44 -43 -38 0 18 214 233 231 232 8 0 4 -7 -11 -17 -50 -35
-80 -64 -74 -73 3 -6 20 4 37 21 18 17 42 40 54 52 12 12 20 24 18 27 -2 4 16
19 38 34 l42 29 -34 -30 c-22 -19 -30 -31 -23 -36 7 -4 12 -3 12 2 0 24 261
156 363 184 29 7 42 15 34 20 -9 6 -9 8 0 8 6 0 14 -4 17 -9 4 -5 29 -3 61 5
30 8 72 15 95 17 41 2 53 12 23 20 -10 2 -3 4 15 4 22 0 29 -3 20 -8 -19 -13
59 -11 83 1 11 7 19 7 19 1 0 -5 -6 -12 -12 -15 -7 -3 -2 -3 12 1 38 10 184 5
188 -7 2 -5 8 -10 14 -10 6 0 8 7 4 15 -4 11 1 15 17 15 16 0 18 -3 8 -9 -19
-12 -4 -18 66 -25 34 -3 73 -10 86 -15 17 -7 29 -6 37 2 10 9 11 9 6 0 -7 -14
30 -26 75 -26 19 0 25 -5 22 -14 -3 -7 2 -13 12 -13 9 0 13 4 10 10 -3 6 1 7
9 4 9 -3 14 -10 11 -14 -3 -4 2 -13 10 -20 12 -10 18 -10 32 1 14 12 16 12 8
0 -6 -11 -4 -13 7 -9 8 4 21 2 29 -4 11 -8 11 -9 -3 -4 -10 3 -20 0 -24 -6 -5
-8 3 -9 24 -5 23 5 32 3 32 -7 0 -17 63 -66 84 -66 8 0 19 -6 23 -13 4 -8 17
-17 27 -20 17 -7 17 -6 5 10 -13 16 -12 17 4 4 9 -7 17 -19 17 -25 0 -7 15
-25 34 -41 19 -16 32 -34 29 -39 -4 -6 -2 -8 2 -3 11 9 75 -52 75 -72 0 -8 3
-12 6 -8 7 7 41 -32 72 -84 12 -19 30 -44 42 -54 26 -24 25 -39 -2 -53 -19 -9
-20 -11 -5 -11 10 -1 29 6 43 15 18 12 28 14 36 6 10 -10 13 -9 99 70 41 36
109 138 109 162 0 8 5 18 10 21 6 3 10 14 10 23 -1 13 -6 10 -21 -10 -12 -16
-26 -25 -34 -21 -8 3 -12 9 -9 14 3 5 9 7 14 4 12 -7 32 58 29 92 -2 16 12 59
30 98 18 39 39 91 47 118 8 26 17 47 19 47 13 0 35 -77 29 -105 -4 -21 0 -43
10 -61 13 -24 15 -26 16 -9 0 13 15 -5 41 -48 23 -38 38 -71 34 -75 -8 -8 -55
47 -55 64 0 6 -7 17 -15 24 -28 23 -17 -12 15 -50 16 -19 31 -38 31 -42 5 -26
4 -34 -6 -40 -6 -5 -4 -12 6 -20 20 -16 99 -133 99 -147 0 -5 8 -12 19 -16 10
-3 26 -14 36 -25 16 -18 16 -20 2 -20 -9 0 -19 5 -22 11 -4 6 -13 8 -21 5 -7
-3 -16 -1 -19 4 -4 7 -13 6 -25 0 -13 -7 -17 -18 -14 -37 5 -27 53 -116 66
-121 4 -2 18 -24 30 -49 12 -25 33 -53 45 -63 12 -9 19 -21 15 -25 -4 -3 -2
-6 3 -5 16 3 55 -12 55 -21 0 -4 -4 -11 -10 -14 -6 -4 -4 -15 5 -29 14 -21 14
-24 0 -29 -21 -9 -44 1 -80 32 -16 14 -25 20 -19 12 7 -7 10 -29 7 -51 -3 -22
-1 -40 6 -44 6 -4 11 -20 11 -37 0 -16 4 -28 8 -26 5 1 32 -26 61 -60 28 -35
56 -63 61 -63 5 0 7 -13 4 -29 -4 -19 -1 -33 10 -42 9 -8 23 -20 31 -26 7 -7
18 -13 24 -13 6 0 11 -4 11 -9 0 -5 10 -13 23 -17 22 -7 21 -7 -5 -15 -15 -4
-41 -6 -57 -5 -30 2 -30 2 -13 -18 16 -18 16 -19 -1 -13 -45 17 -67 19 -67 7
0 -7 -8 -10 -20 -7 -19 5 -19 5 0 -33 11 -21 32 -48 47 -60 22 -17 25 -24 16
-38 -11 -18 -39 -19 -101 -6 -28 5 -34 3 -39 -15 -6 -25 -6 -25 -45 -5 -25 13
-35 14 -54 3 -13 -6 -21 -16 -18 -21 11 -18 -20 -7 -48 17 -35 30 -48 28 -64
-6 -15 -32 -27 -112 -15 -105 5 3 11 -8 14 -24 10 -46 36 -70 78 -70 20 0 42
-6 48 -14 10 -12 4 -14 -38 -13 -92 3 -37 -11 69 -18 163 -10 150 18 150 -324
l0 -289 -135 -145 c-74 -79 -142 -148 -151 -151 -21 -8 -3056 -8 -3089 0 -14
3 -25 10 -25 15 0 4 -21 30 -47 56 -25 26 -84 89 -130 140 l-83 92 0 290 0
289 30 7 c17 4 45 8 63 10 114 12 152 25 183 60 17 20 35 53 41 73 l10 37 2
-32 c0 -18 5 -33 9 -33 11 0 -5 117 -19 146 -8 15 -8 28 0 45 l12 24 -17 -22
c-9 -13 -21 -23 -26 -23 -5 0 -19 -9 -31 -20 l-21 -20 -13 25 -14 25 -39 -20
c-47 -24 -61 -25 -54 -5 4 8 1 22 -6 30 -6 8 -8 20 -4 27 4 7 -5 3 -20 -10
-27 -21 -75 -29 -89 -16 -3 3 8 18 24 31 16 14 28 28 25 30 -3 3 -19 -6 -36
-21 -30 -25 -50 -33 -50 -20 0 4 8 13 18 20 10 8 12 13 5 14 -15 0 -73 -55
-73 -71 0 -7 13 -9 41 -4 31 5 40 4 34 -5 -9 -15 72 -4 93 13 25 20 25 -4 -1
-31 -36 -38 -34 -45 11 -40 40 5 75 20 106 47 18 15 19 15 12 -4 -17 -43 -18
-55 -5 -55 20 0 79 38 79 50 0 5 5 10 10 10 11 0 12 -92 1 -130 -4 -14 -13
-24 -19 -23 -7 2 -12 -3 -12 -10 0 -6 -4 -18 -9 -26 -7 -11 -13 -11 -32 3 -27
19 -49 22 -31 4 20 -20 14 -28 -14 -18 -33 13 -34 13 -27 -7 5 -12 2 -15 -10
-10 -9 3 -17 2 -17 -3 0 -6 -21 -10 -48 -10 -27 0 -57 -7 -70 -16 -22 -15 -22
-16 -22 -317 l0 -302 102 -110 c56 -60 121 -131 145 -157 l44 -48 1558 0 1559
0 130 138 c72 76 139 149 150 163 17 22 19 44 18 315 -1 227 -4 294 -14 307
-8 9 -38 23 -69 32 -49 14 -53 18 -41 32 11 15 11 16 -7 9 -37 -16 -65 -18
-65 -7 0 6 5 11 10 11 6 0 10 5 10 10 0 7 -6 7 -19 0 -27 -14 -34 -13 -27 5 8
23 -9 18 -28 -7 -16 -23 -16 -23 -10 11 4 23 3 31 -5 27 -6 -4 -11 -16 -11
-27 0 -35 -17 -20 -29 25 -13 54 -15 133 -2 140 5 3 16 -6 26 -20 16 -25 69
-54 99 -54 18 0 12 25 -12 53 -13 15 -13 17 -1 17 8 0 19 -4 24 -9 8 -7 100
-41 112 -41 9 0 1 26 -14 42 -24 27 -10 32 28 10 19 -11 51 -22 73 -25 38 -6
38 -6 21 14 -18 19 -18 19 13 13 34 -7 82 2 82 14 0 4 -15 13 -33 20 -35 13
-125 97 -114 108 3 3 20 1 38 -5 34 -12 89 -15 89 -5 0 3 -10 14 -22 24 l-23
19 36 -6 c72 -11 149 36 82 50 -30 6 -153 85 -153 97 0 4 16 4 35 0 19 -4 35
-5 35 -1 0 4 -20 22 -45 40 -60 43 -135 132 -151 178 -13 36 -10 58 4 38 4 -6
21 -18 39 -27 25 -13 31 -13 26 -2 -4 11 2 13 26 8 16 -4 42 -3 57 0 26 7 25
8 -30 42 -31 20 -56 39 -56 43 0 3 18 5 40 3 25 -3 40 0 40 7 0 6 -8 11 -18
11 -25 0 -100 50 -142 94 -25 27 -29 35 -15 30 17 -6 16 -3 -6 22 -43 49 -89
124 -89 146 0 19 2 20 13 7 16 -21 67 -51 67 -41 0 4 -6 14 -12 21 -11 10 -8
10 14 0 27 -12 78 -6 78 10 0 5 -13 14 -29 20 -27 12 -103 81 -88 81 4 0 -9
18 -30 39 -41 43 -80 107 -70 117 3 3 14 1 26 -5 12 -7 22 -7 26 -1 3 5 12 7
20 3 8 -3 15 0 15 6 0 6 -6 11 -13 11 -37 0 -103 115 -152 264 -19 58 -35 111
-35 120 0 39 -18 18 -35 -42z m-1292 -39 c-7 -2 -21 -2 -30 0 -10 3 -4 5 12 5
17 0 24 -2 18 -5z m-594 -67 c-10 -9 -152 -66 -156 -62 -4 4 136 65 151 66 5
0 7 -2 5 -4z m1031 -40 c0 -3 -4 -8 -10 -11 -5 -3 -10 -1 -10 4 0 6 5 11 10
11 6 0 10 -2 10 -4z m-1200 -31 c0 -2 -10 -9 -22 -15 -22 -11 -22 -10 -4 4 21
17 26 19 26 11z m-50 -29 c0 -2 -7 -7 -16 -10 -8 -3 -12 -2 -9 4 6 10 25 14
25 6z m2020 -85 c0 -5 -7 -12 -16 -15 -14 -5 -15 -4 -4 9 14 17 20 19 20 6z
m-399 -118 c72 -75 185 -221 177 -228 -3 -3 -18 13 -33 35 -15 22 -31 40 -35
40 -3 0 -16 17 -27 38 -12 20 -58 74 -102 120 -44 45 -73 78 -63 73 9 -5 47
-40 83 -78z"/>
<path d="M2098 5883 c7 -3 16 -2 19 1 4 3 -2 6 -13 5 -11 0 -14 -3 -6 -6z"/>
<path d="M1965 5860 c-13 -5 -14 -9 -5 -9 8 0 24 4 35 9 13 5 14 9 5 9 -8 0
-24 -4 -35 -9z"/>
<path d="M2288 5855 c-2 -2 -58 -5 -123 -6 -66 0 -149 -7 -185 -14 -137 -27
-217 -49 -268 -72 -30 -13 -62 -25 -73 -26 -10 -1 -19 -5 -19 -9 0 -4 -4 -8
-9 -8 -10 0 -108 -65 -151 -99 -31 -25 -47 -27 -29 -3 13 15 12 16 -3 3 -10
-7 -16 -17 -13 -21 2 -4 -34 -44 -80 -89 -47 -45 -85 -86 -85 -91 0 -6 -7 -10
-16 -10 -8 0 -13 -4 -10 -9 3 -5 -1 -11 -8 -14 -8 -3 -24 -27 -35 -52 -13 -30
-25 -44 -32 -39 -8 4 -9 3 -5 -4 4 -6 -2 -29 -14 -51 -37 -74 -20 -67 22 9
121 219 327 407 541 493 196 79 463 112 667 82 l45 -6 -28 16 c-15 9 -32 13
-37 10 -5 -3 -18 -1 -28 4 -11 6 -21 8 -24 6z"/>
<path d="M678 5795 c-6 -14 -19 -25 -30 -25 -10 0 -18 -6 -18 -14 0 -7 -7 -19
-15 -26 -10 -8 -12 -16 -6 -19 16 -10 -80 -130 -147 -186 -33 -27 -58 -53 -56
-57 7 -11 46 -10 64 2 13 8 13 11 1 19 -11 7 -4 15 29 36 38 24 94 79 96 94 1
15 59 128 74 146 18 21 33 55 24 55 -2 0 -10 -11 -16 -25z"/>
<path d="M722 5800 c0 -14 2 -19 5 -12 2 6 2 18 0 25 -3 6 -5 1 -5 -13z"/>
<path d="M2470 5805 c67 -17 77 -18 64 -5 -6 6 -35 13 -65 15 l-54 5 55 -15z"/>
<path d="M2050 5790 c-186 -17 -390 -89 -528 -186 -133 -93 -270 -244 -337
-369 -41 -77 -21 -60 27 23 16 28 41 61 55 72 14 11 23 20 19 20 -11 0 13 27
113 127 64 63 100 92 110 88 8 -3 12 -3 9 1 -4 4 3 14 15 24 38 30 199 110
208 104 5 -3 9 -1 9 3 0 12 51 30 140 48 126 27 152 30 227 30 39 0 69 3 67 7
-3 4 10 5 28 3 18 -3 53 -7 78 -9 114 -12 252 -45 293 -70 12 -8 39 -19 60
-26 45 -14 97 -40 82 -40 -5 -1 6 -7 26 -14 49 -17 161 -105 153 -118 -4 -7
-2 -8 5 -4 7 5 29 -11 57 -41 122 -129 199 -236 232 -325 36 -93 49 -121 55
-111 6 9 -1 26 -70 167 -83 170 -263 359 -433 454 -212 119 -447 166 -700 142z"/>
<path d="M3576 5775 c-9 -26 -7 -32 5 -12 6 10 9 21 6 23 -2 3 -7 -2 -11 -11z"/>
<path d="M2670 5735 c51 -25 95 -44 97 -41 6 6 -45 34 -116 63 -91 38 -80 26
19 -22z"/>
<path d="M755 5750 c3 -5 11 -10 16 -10 6 0 7 5 4 10 -3 6 -11 10 -16 10 -6 0
-7 -4 -4 -10z"/>
<path d="M720 5725 c0 -8 7 -15 15 -15 9 0 12 6 9 15 -4 8 -10 15 -15 15 -5 0
-9 -7 -9 -15z"/>
<path d="M2260 5725 c0 -8 4 -15 10 -15 5 0 7 7 4 15 -4 8 -8 15 -10 15 -2 0
-4 -7 -4 -15z"/>
<path d="M2034 5705 c-16 -13 -16 -14 -1 -9 20 7 22 -6 5 -26 -11 -12 -10 -12
4 -1 9 7 16 21 15 32 -1 10 -2 19 -2 19 -1 0 -10 -7 -21 -15z"/>
<path d="M2230 5710 c0 -5 5 -10 11 -10 5 0 7 5 4 10 -3 6 -8 10 -11 10 -2 0
-4 -4 -4 -10z"/>
<path d="M3640 5706 c0 -15 -3 -16 -14 -7 -10 8 -16 9 -21 1 -4 -6 -3 -10 2
-9 23 4 50 -16 61 -43 6 -18 14 -29 18 -26 3 3 -6 28 -20 55 -15 28 -25 40
-26 29z"/>
<path d="M681 5684 c0 -11 3 -14 6 -6 3 7 2 16 -1 19 -3 4 -6 -2 -5 -13z"/>
<path d="M750 5681 c0 -11 4 -22 9 -25 4 -3 6 6 3 19 -5 30 -12 33 -12 6z"/>
<path d="M2349 5683 c-13 -16 -12 -17 4 -4 9 7 17 15 17 17 0 8 -8 3 -21 -13z"/>
<path d="M1484 5668 l-19 -23 25 20 c14 11 27 21 29 22 2 2 0 3 -6 3 -5 0 -18
-10 -29 -22z"/>
<path d="M2795 5675 c11 -9 29 -21 40 -26 20 -10 20 -10 0 6 -11 9 -29 21 -40
26 -20 10 -20 10 0 -6z"/>
<path d="M2070 5659 c0 -5 5 -7 10 -4 6 3 10 8 10 11 0 2 -4 4 -10 4 -5 0 -10
-5 -10 -11z"/>
<path d="M2557 5653 c6 -15 39 -18 47 -4 4 5 -4 7 -16 3 -12 -3 -19 -1 -15 5
3 5 0 10 -7 10 -8 0 -12 -6 -9 -14z"/>
<path d="M2129 5631 c-13 -11 -19 -20 -12 -21 6 0 14 6 16 13 4 9 8 9 16 -3 5
-8 7 -18 5 -22 -3 -4 -1 -8 5 -8 10 0 9 45 -1 55 -3 3 -16 -3 -29 -14z"/>
<path d="M2395 5640 c3 -5 8 -10 11 -10 2 0 4 5 4 10 0 6 -5 10 -11 10 -5 0
-7 -4 -4 -10z"/>
<path d="M2866 5641 c-6 -10 53 -61 70 -61 5 0 1 5 -9 11 -9 6 -15 14 -12 20
4 5 -2 6 -11 2 -11 -4 -15 -2 -11 4 4 6 0 16 -7 22 -9 8 -16 8 -20 2z"/>
<path d="M1930 5630 c-12 -8 -10 -10 8 -10 13 0 20 4 17 10 -7 12 -6 12 -25 0z"/>
<path d="M3611 5631 c-7 -5 -12 -14 -10 -20 2 -6 10 -2 17 9 14 22 13 23 -7
11z"/>
<path d="M2380 5625 c0 -18 15 -32 40 -39 23 -6 23 -6 8 7 -10 8 -14 18 -10
22 4 5 1 5 -7 0 -8 -4 -17 -2 -22 6 -5 8 -9 10 -9 4z"/>
<path d="M709 5612 c-8 -1 -22 -18 -31 -37 -8 -19 -11 -32 -6 -29 5 3 13 17
18 30 12 30 30 32 22 2 -3 -13 -1 -19 6 -15 5 4 13 1 15 -5 8 -19 6 13 -1 37
-4 12 -14 19 -23 17z"/>
<path d="M620 5571 c-19 -19 -26 -29 -15 -24 22 12 61 52 54 56 -2 1 -20 -13
-39 -32z"/>
<path d="M3638 5587 c-3 -19 -2 -25 4 -19 6 6 8 18 6 28 -3 14 -5 12 -10 -9z"/>
<path d="M3683 5595 c0 -7 6 -11 14 -8 7 3 13 6 13 8 0 2 -6 5 -13 8 -8 3 -14
-1 -14 -8z"/>
<path d="M1740 5580 c-1 -8 -3 -19 -4 -25 -1 -5 -10 -25 -20 -44 -34 -63 0
-181 52 -181 8 0 12 -6 9 -13 -3 -9 8 -12 47 -9 78 4 86 6 86 15 0 5 11 18 25
28 14 12 22 26 18 34 -4 11 -11 8 -33 -14 -74 -81 -200 -33 -200 75 0 51 21
89 61 110 32 16 89 19 89 4 0 -5 -6 -10 -14 -10 -7 0 -25 -9 -40 -21 -55 -43
-21 -149 48 -149 18 0 41 7 52 15 19 14 19 14 -3 15 -12 0 -24 -4 -27 -9 -9
-14 -45 -1 -61 22 -18 26 -19 71 -2 85 6 6 24 13 40 17 32 8 35 25 8 49 -20
19 -61 17 -99 -3 -17 -9 -21 -8 -25 7 -4 13 -5 13 -7 2z"/>
<path d="M3726 5569 c4 -13 7 -30 7 -36 0 -7 9 -21 20 -30 19 -18 20 -18 3 14
-9 18 -16 39 -16 47 0 8 -5 18 -11 22 -8 4 -9 -1 -3 -17z"/>
<path d="M1556 5565 c-3 -8 -1 -15 4 -15 6 0 10 7 10 15 0 8 -2 15 -4 15 -2 0
-6 -7 -10 -15z"/>
<path d="M2273 5572 c-13 -8 -36 -58 -38 -84 -3 -27 21 -43 28 -19 3 11 1 21
-4 23 -6 2 -2 18 7 37 16 32 17 33 28 14 6 -11 17 -18 24 -16 6 3 12 0 12 -5
0 -6 -6 -12 -12 -15 -9 -3 -8 -10 6 -23 17 -17 18 -17 13 -1 -4 9 -3 17 2 17
4 0 8 6 7 13 0 18 -60 67 -73 59z"/>
<path d="M1605 5560 c-3 -5 1 -10 10 -10 9 0 13 5 10 10 -3 6 -8 10 -10 10 -2
0 -7 -4 -10 -10z"/>
<path d="M2467 5564 c-3 -4 1 -16 9 -28 8 -13 11 -26 7 -29 -3 -4 -1 -7 5 -7
7 0 12 6 12 14 0 8 6 17 13 20 6 3 3 4 -7 3 -10 -1 -21 4 -24 12 -3 10 0 12
12 8 10 -4 15 -3 11 3 -7 11 -28 13 -38 4z"/>
<path d="M2969 5544 c17 -14 40 -37 51 -51 11 -14 20 -22 20 -17 0 12 -80 94
-92 94 -5 0 4 -12 21 -26z"/>
<path d="M2373 5545 c0 -8 4 -12 9 -9 5 3 6 10 3 15 -9 13 -12 11 -12 -6z"/>
<path d="M2535 5550 c3 -5 8 -10 11 -10 2 0 4 5 4 10 0 6 -5 10 -11 10 -5 0
-7 -4 -4 -10z"/>
<path d="M2745 5520 c1 -22 5 -43 8 -46 3 -4 -5 -24 -19 -45 -13 -21 -24 -42
-24 -46 -1 -13 -38 -53 -49 -53 -17 0 -13 -17 5 -24 22 -8 24 -8 19 7 -3 6 6
24 20 39 14 15 25 34 25 43 0 8 5 15 10 15 6 0 9 3 9 8 -7 45 15 40 31 -8 7
-22 19 -40 26 -40 20 0 26 17 9 24 -22 8 -55 84 -55 129 0 20 -4 37 -9 37 -4
0 -7 -18 -6 -40z"/>
<path d="M1580 5545 c-1 -5 -2 -13 -1 -17 0 -5 -3 -8 -9 -8 -5 0 -10 -5 -10
-12 0 -8 6 -7 16 4 9 9 14 22 11 30 -3 7 -6 9 -7 3z"/>
<path d="M1634 5539 c-9 -15 12 -33 30 -26 18 7 22 27 6 27 -5 0 -10 -4 -10
-10 0 -5 -5 -10 -11 -10 -6 0 -9 7 -5 15 6 17 0 20 -10 4z"/>
<path d="M722 5520 c-6 -11 -12 -25 -12 -32 1 -7 7 -2 14 11 l13 24 18 -26 c9
-15 21 -27 26 -27 9 0 -32 70 -41 70 -3 0 -11 -9 -18 -20z"/>
<path d="M2667 5533 c-10 -10 -8 -33 2 -33 6 0 9 9 8 20 -1 23 -1 22 -10 13z"/>
<path d="M3591 5514 c0 -11 3 -14 6 -6 3 7 2 16 -1 19 -3 4 -6 -2 -5 -13z"/>
<path d="M566 5499 c-9 -13 -25 -21 -41 -21 -15 0 -37 -11 -51 -25 l-25 -25
50 3 c28 2 51 3 51 1 0 -1 -11 -19 -24 -40 -30 -47 -79 -92 -136 -126 -35 -20
-40 -26 -22 -26 12 0 22 -4 22 -10 0 -16 16 -12 41 11 13 11 17 17 9 13 -8 -4
14 22 48 57 35 35 71 80 80 101 16 35 38 55 50 43 3 -3 -3 -15 -14 -26 l-19
-22 25 14 c14 7 29 12 33 11 5 -1 6 1 3 6 -3 5 -1 24 4 42 5 19 8 35 6 37 -2
2 -17 -11 -34 -28 -35 -35 -57 -32 -42 6 12 31 6 32 -14 4z m4 -44 c0 -9 -6
-12 -16 -8 -13 5 -13 7 -2 14 17 11 18 11 18 -6z"/>
<path d="M2030 5506 c0 -2 7 -9 15 -16 13 -11 14 -10 9 4 -5 14 -24 23 -24 12z"/>
<path d="M2137 5493 c-4 -3 -7 -12 -7 -20 0 -18 37 -16 44 3 10 26 7 29 -8 8
-8 -10 -18 -15 -22 -11 -5 4 -2 12 6 17 8 6 10 10 4 10 -6 0 -14 -3 -17 -7z"/>
<path d="M3696 5491 c-3 -5 1 -11 9 -14 9 -4 12 -1 8 9 -6 16 -10 17 -17 5z"/>
<path d="M1249 5473 c-13 -15 -12 -15 9 -4 23 12 28 21 13 21 -5 0 -15 -7 -22
-17z"/>
<path d="M3574 5467 c-25 -26 -44 -61 -44 -78 0 -11 23 21 64 89 11 18 4 14
-20 -11z"/>
<path d="M3661 5474 c0 -11 3 -14 6 -6 3 7 2 16 -1 19 -3 4 -6 -2 -5 -13z"/>
<path d="M2272 5456 c-10 -24 -10 -24 19 -9 16 8 27 19 24 24 -11 17 -32 9
-43 -15z"/>
<path d="M2549 5464 c-12 -15 -11 -16 10 -9 20 6 23 4 18 -9 -4 -9 -2 -16 3
-16 15 0 12 26 -4 39 -10 9 -17 7 -27 -5z"/>
<path d="M700 5460 c0 -5 5 -10 11 -10 5 0 7 5 4 10 -3 6 -8 10 -11 10 -2 0
-4 -4 -4 -10z"/>
<path d="M1487 5456 c-3 -7 -9 -35 -12 -60 -5 -28 -18 -60 -32 -77 -14 -16
-23 -32 -20 -36 8 -7 27 13 53 56 l21 33 18 -46 c10 -25 24 -46 31 -46 18 0
18 1 -11 51 -15 28 -25 60 -25 86 0 42 -13 65 -23 39z"/>
<path d="M3050 5465 c0 -3 19 -29 43 -58 23 -29 50 -63 59 -77 13 -19 16 -20
11 -5 -12 36 -113 161 -113 140z"/>
<path d="M3719 5453 c-13 -17 -13 -17 5 -3 18 13 19 13 14 0 -4 -11 0 -16 13
-16 17 0 17 2 2 18 -20 22 -18 22 -34 1z"/>
<path d="M816 5442 c-3 -5 1 -9 9 -9 8 0 15 4 15 9 0 4 -4 8 -9 8 -6 0 -12 -4
-15 -8z"/>
<path d="M3607 5443 c-3 -5 -8 -23 -12 -40 -3 -18 -11 -33 -17 -33 -6 0 -8 -3
-5 -6 11 -12 -14 -46 -29 -40 -9 3 -12 1 -9 -4 3 -6 -2 -10 -12 -11 -16 0 -16
-1 2 -8 12 -5 23 -4 27 3 4 6 8 7 8 1 0 -5 7 1 16 14 l17 24 14 -24 14 -24 -6
25 c-8 30 -9 44 -7 89 2 28 4 31 16 22 11 -9 16 -9 22 0 4 8 3 9 -4 5 -7 -4
-12 -2 -12 3 0 13 -17 15 -23 4z"/>
<path d="M3486 5425 c-9 -26 -7 -32 5 -12 6 10 9 21 6 23 -2 3 -7 -2 -11 -11z"/>
<path d="M653 5408 c-15 -18 -35 -58 -29 -58 2 0 13 16 25 35 20 35 22 46 4
23z"/>
<path d="M1557 5413 c-8 -15 8 -38 28 -40 19 -1 19 -1 1 12 -10 8 -15 18 -11
24 3 6 2 11 -4 11 -5 0 -12 -3 -14 -7z"/>
<path d="M2129 5418 c-5 -10 -7 -59 -3 -55 6 6 13 57 8 57 -2 0 -5 -1 -5 -2z"/>
<path d="M2910 5404 c0 -8 5 -12 10 -9 6 3 10 10 10 16 0 5 -4 9 -10 9 -5 0
-10 -7 -10 -16z"/>
<path d="M2397 5388 c-28 -30 -13 -33 16 -4 15 14 21 26 14 25 -7 0 -20 -10
-30 -21z"/>
<path d="M2685 5400 c-3 -5 -1 -10 4 -10 6 0 11 5 11 10 0 6 -2 10 -4 10 -3 0
-8 -4 -11 -10z"/>
<path d="M670 5385 c-7 -9 -10 -18 -7 -21 3 -3 10 4 17 15 13 25 8 27 -10 6z"/>
<path d="M2280 5389 c0 -5 5 -7 10 -4 6 3 10 8 10 11 0 2 -4 4 -10 4 -5 0 -10
-5 -10 -11z"/>
<path d="M1996 5381 c-4 -5 3 -7 14 -4 23 6 26 13 6 13 -8 0 -17 -4 -20 -9z"/>
<path d="M3500 5372 c0 -10 -13 -28 -30 -40 -30 -23 -56 -29 -45 -12 11 17 -9
11 -49 -16 -34 -23 -38 -24 -32 -8 6 15 5 17 -5 7 -15 -15 -75 -17 -84 -3 -3
6 -11 10 -17 10 -7 0 -6 -5 2 -14 6 -8 33 -16 58 -18 35 -2 49 -8 57 -23 19
-38 54 -77 64 -71 6 4 8 13 5 20 -3 7 2 19 11 26 18 15 20 41 3 58 -9 9 -8 12
4 12 9 0 24 7 32 16 9 8 20 12 26 9 5 -3 10 -3 11 2 4 45 3 63 -3 63 -4 0 -8
-8 -8 -18z m-74 -104 c-3 -7 -9 -21 -12 -30 -8 -23 -21 -23 -34 1 -8 16 -6 22
7 30 25 14 46 13 39 -1z"/>
<path d="M3663 5375 c-3 -9 -3 -18 -1 -21 3 -3 8 4 11 16 6 23 -1 27 -10 5z"/>
<path d="M710 5370 c-11 -7 -12 -12 -4 -20 8 -8 13 -6 17 9 3 12 4 21 4 21 -1
0 -9 -5 -17 -10z"/>
<path d="M2758 5373 c7 -3 16 -2 19 1 4 3 -2 6 -13 5 -11 0 -14 -3 -6 -6z"/>
<path d="M2929 5368 c12 -16 11 -18 -2 -18 -8 0 -17 6 -20 13 -2 6 -8 9 -12 5
-4 -4 0 -15 10 -24 14 -15 18 -15 31 -2 13 13 13 16 -3 29 -16 13 -17 12 -4
-3z"/>
<path d="M751 5350 c0 -8 6 -23 13 -33 13 -17 14 -16 12 7 0 13 -4 22 -8 20
-3 -2 -9 2 -11 8 -4 9 -6 8 -6 -2z"/>
<path d="M2770 5351 c0 -6 5 -13 11 -17 8 -4 7 -9 -2 -16 -11 -8 -10 -9 3 -5
9 3 22 -1 30 -10 11 -14 10 -15 -12 -9 -14 4 -20 4 -15 -1 6 -4 11 -21 12 -37
1 -33 65 -99 91 -94 21 4 28 28 8 28 -29 0 -68 24 -82 52 -8 15 -10 28 -5 28
20 0 20 33 -1 60 -24 30 -38 37 -38 21z"/>
<path d="M3430 5350 c-9 -6 -10 -10 -3 -10 6 0 15 5 18 10 8 12 4 12 -15 0z"/>
<path d="M1560 5341 c0 -5 7 -11 14 -14 10 -4 13 -1 9 9 -6 15 -23 19 -23 5z"/>
<path d="M1629 5348 c-5 -18 -6 -38 -1 -34 7 8 12 36 6 36 -2 0 -4 -1 -5 -2z"/>
<path d="M2432 5334 c-5 -9 -7 -25 -5 -35 4 -15 8 -16 24 -6 23 14 25 29 4 21
-9 -4 -15 0 -15 9 0 8 6 18 13 20 9 4 9 6 0 6 -7 1 -16 -6 -21 -15z"/>
<path d="M2065 5330 c3 -5 1 -10 -6 -10 -7 0 -10 -2 -7 -5 8 -9 38 6 32 16 -3
5 -10 9 -15 9 -6 0 -7 -4 -4 -10z"/>
<path d="M600 5315 c-7 -9 -11 -17 -9 -20 3 -2 10 5 17 15 14 24 10 26 -8 5z"/>
<path d="M1372 5304 c-7 -8 -8 -14 -3 -14 10 0 25 19 20 25 -2 1 -10 -3 -17
-11z"/>
<path d="M3005 5310 c3 -5 8 -10 11 -10 2 0 4 5 4 10 0 6 -5 10 -11 10 -5 0
-7 -4 -4 -10z"/>
<path d="M3707 5299 c4 -13 8 -18 11 -10 2 7 -1 18 -6 23 -8 8 -9 4 -5 -13z"/>
<path d="M1300 5295 c-7 -8 -9 -15 -6 -15 4 0 14 7 22 15 9 8 11 15 6 15 -5 0
-15 -7 -22 -15z"/>
<path d="M1645 5300 c-3 -5 -1 -10 4 -10 6 0 11 5 11 10 0 6 -2 10 -4 10 -3 0
-8 -4 -11 -10z"/>
<path d="M2184 5302 c3 -6 -4 -21 -16 -33 -13 -12 -17 -20 -9 -17 23 7 44 45
30 54 -7 4 -10 3 -5 -4z"/>
<path d="M2260 5299 c0 -5 5 -7 10 -4 6 3 10 8 10 11 0 2 -4 4 -10 4 -5 0 -10
-5 -10 -11z"/>
<path d="M2700 5299 c0 -5 5 -7 10 -4 6 3 10 8 10 11 0 2 -4 4 -10 4 -5 0 -10
-5 -10 -11z"/>
<path d="M3636 5301 c-3 -5 -2 -20 3 -33 l10 -23 0 23 1 23 32 -22 c17 -13 28
-18 25 -11 -13 21 -65 53 -71 43z"/>
<path d="M1995 5282 c15 -18 17 -27 8 -41 -6 -9 -9 -30 -6 -45 4 -18 1 -31 -8
-37 -11 -7 -9 -9 6 -9 15 0 21 6 20 23 0 12 -4 28 -8 35 -5 6 -4 12 1 12 14 0
22 41 12 59 -5 9 -10 12 -10 7 0 -5 -8 -2 -17 5 -14 11 -14 8 2 -9z"/>
<path d="M2385 5291 c-3 -5 -2 -12 3 -15 5 -3 9 1 9 9 0 17 -3 19 -12 6z"/>
<path d="M2750 5285 c0 -8 2 -15 4 -15 2 0 6 7 10 15 3 8 1 15 -4 15 -6 0 -10
-7 -10 -15z"/>
<path d="M2465 5280 c-3 -6 1 -7 9 -4 18 7 21 14 7 14 -6 0 -13 -4 -16 -10z"/>
<path d="M495 5270 c3 -5 8 -10 11 -10 2 0 4 5 4 10 0 6 -5 10 -11 10 -5 0 -7
-4 -4 -10z"/>
<path d="M720 5270 c0 -5 5 -10 10 -10 6 0 10 5 10 10 0 6 -4 10 -10 10 -5 0
-10 -4 -10 -10z"/>
<path d="M1437 5273 c-4 -3 0 -11 9 -17 13 -10 10 -16 -19 -48 -19 -21 -32
-39 -30 -41 2 -3 -8 -2 -22 0 -15 3 -25 1 -25 -6 0 -6 8 -12 18 -12 23 -2 24
-2 47 7 18 7 18 6 6 -9 -7 -9 -20 -17 -28 -17 -8 0 -11 -5 -7 -11 3 -6 17 -9
30 -6 30 5 32 -13 4 -38 -11 -10 -22 -26 -25 -36 -8 -24 -61 -26 -86 -3 -16
15 -17 14 -12 -5 3 -11 9 -19 13 -16 5 3 11 1 15 -5 11 -17 68 -3 87 21 56 74
55 71 34 88 -8 7 -12 21 -9 31 3 12 0 20 -7 20 -6 0 -1 14 12 33 26 36 33 77
14 77 -7 0 -16 -3 -19 -7z"/>
<path d="M2044 5265 c-7 -16 3 -35 17 -35 6 0 6 7 0 19 -6 10 -7 21 -4 25 3 3
3 6 -1 6 -3 0 -9 -7 -12 -15z"/>
<path d="M2673 5252 c-11 -15 -38 -36 -59 -47 -21 -11 -41 -21 -43 -22 -1 -1
0 -6 3 -12 4 -6 23 1 49 19 25 17 44 24 48 18 4 -5 10 3 13 18 4 16 12 32 18
35 6 4 6 9 1 12 -6 4 -19 -6 -30 -21z"/>
<path d="M3204 5248 c23 -62 71 -158 79 -158 5 0 7 3 5 8 -43 87 -91 182 -93
182 -1 0 3 -15 9 -32z"/>
<path d="M1306 5253 c-6 -14 -5 -15 5 -6 7 7 10 15 7 18 -3 3 -9 -2 -12 -12z"/>
<path d="M1536 5223 c15 -27 33 -53 41 -59 18 -16 16 -27 -3 -20 -14 5 -15 4
-4 -9 16 -19 34 -19 49 -1 9 11 4 18 -26 37 -27 16 -33 24 -22 26 13 3 8 12
-18 38 -19 19 -37 35 -39 35 -3 0 7 -21 22 -47z"/>
<path d="M1710 5266 c0 -2 8 -10 18 -17 15 -13 16 -12 3 4 -13 16 -21 21 -21
13z"/>
<path d="M3484 5256 c-10 -8 -17 -16 -14 -19 3 -2 14 4 24 14 23 22 18 25 -10
5z"/>
<path d="M3755 5260 c3 -5 8 -10 11 -10 2 0 4 5 4 10 0 6 -5 10 -11 10 -5 0
-7 -4 -4 -10z"/>
<path d="M1271 5250 c-1 -8 -12 -38 -25 -66 -21 -45 -22 -52 -8 -60 16 -11 12
-17 -32 -48 -18 -12 -18 -13 8 -18 20 -4 26 -2 22 8 -3 7 2 18 10 25 9 7 13
22 10 33 -2 12 1 35 9 51 l13 30 1 -32 c1 -18 6 -33 11 -33 12 0 12 3 -5 70
-7 30 -14 48 -14 40z"/>
<path d="M1645 5250 c-3 -5 -2 -10 4 -10 5 0 13 5 16 10 3 6 2 10 -4 10 -5 0
-13 -4 -16 -10z"/>
<path d="M3587 5239 c4 -13 8 -18 11 -10 2 7 -1 18 -6 23 -8 8 -9 4 -5 -13z"/>
<path d="M595 5239 c-4 -6 -5 -12 -2 -15 2 -3 7 2 10 11 7 17 1 20 -8 4z"/>
<path d="M2095 5240 c3 -5 8 -10 11 -10 2 0 4 5 4 10 0 6 -5 10 -11 10 -5 0
-7 -4 -4 -10z"/>
<path d="M2220 5240 c0 -6 7 -10 15 -10 8 0 15 2 15 4 0 2 -7 6 -15 10 -8 3
-15 1 -15 -4z"/>
<path d="M2347 5236 c-4 -10 -7 -28 -7 -41 0 -12 -7 -28 -15 -35 -17 -14 -21
-35 -5 -25 20 12 9 -24 -11 -39 l-21 -14 20 -11 c24 -13 43 -15 24 -2 -12 7
-11 14 2 40 11 21 13 31 5 31 -8 0 -8 4 1 15 20 24 30 18 30 -19 0 -18 7 -39
15 -46 9 -8 13 -21 9 -32 -4 -13 3 -27 23 -44 41 -35 54 -29 14 8 l-33 31 23
13 c15 9 18 13 9 14 -9 0 -23 9 -33 20 -21 25 -23 52 -2 44 8 -4 15 -1 15 4 0
6 -9 14 -20 17 -12 4 -20 16 -21 28 0 12 -4 31 -8 41 -7 18 -8 18 -14 2z"/>
<path d="M2987 5196 c-4 -39 -13 -66 -26 -80 -26 -28 -26 -34 1 -38 21 -3 21
-4 4 -21 -10 -10 -15 -21 -12 -25 4 -3 11 0 15 7 5 7 14 11 20 7 15 -10 2 26
-15 40 -11 9 -10 14 6 29 20 18 21 18 35 -1 7 -10 12 -28 11 -39 -2 -11 -1
-14 1 -7 3 8 11 11 19 8 8 -3 14 1 14 9 0 8 -7 15 -15 15 -9 0 -18 12 -21 30
-4 16 -10 28 -13 25 -4 -2 -6 8 -4 23 3 15 0 38 -5 51 -7 21 -10 16 -15 -33z"/>
<path d="M730 5217 c0 -19 8 -28 30 -36 21 -7 30 -7 30 1 0 6 12 3 26 -7 14
-9 29 -13 32 -9 4 4 1 9 -6 11 -7 3 -19 12 -28 21 -12 11 -18 12 -23 3 -9 -15
-41 -4 -41 14 0 8 -4 17 -10 20 -6 3 -10 -5 -10 -18z"/>
<path d="M910 5230 c0 -5 5 -10 11 -10 5 0 7 5 4 10 -3 6 -8 10 -11 10 -2 0
-4 -4 -4 -10z"/>
<path d="M1945 5230 c-3 -5 -1 -10 4 -10 6 0 11 5 11 10 0 6 -2 10 -4 10 -3 0
-8 -4 -11 -10z"/>
<path d="M3346 5214 c5 -25 1 -32 -20 -44 -14 -7 -26 -17 -26 -22 0 -9 23 2
53 25 21 17 21 26 1 52 -14 18 -14 18 -8 -11z"/>
<path d="M3541 5224 c0 -11 3 -14 6 -6 3 7 2 16 -1 19 -3 4 -6 -2 -5 -13z"/>
<path d="M3650 5235 c0 -5 5 -17 10 -25 5 -8 10 -10 10 -5 0 6 -5 17 -10 25
-5 8 -10 11 -10 5z"/>
<path d="M1835 5220 c-3 -5 -1 -10 4 -10 6 0 11 5 11 10 0 6 -2 10 -4 10 -3 0
-8 -4 -11 -10z"/>
<path d="M2073 5218 c-12 -17 -15 -64 -3 -52 10 10 25 64 17 64 -2 0 -9 -6
-14 -12z"/>
<path d="M378 5186 c-25 -19 -57 -38 -72 -42 -14 -3 -29 -10 -31 -15 -10 -15
37 -31 76 -26 44 6 50 -3 17 -26 l-23 -16 30 0 c17 -1 48 8 70 19 22 11 40 20
41 20 9 0 -12 -42 -27 -56 -10 -9 -19 -23 -19 -29 0 -17 -72 -81 -100 -90 -12
-4 -19 -12 -16 -20 7 -18 -77 -67 -127 -75 -40 -5 -53 -23 -21 -29 10 -1 27
-10 36 -18 12 -11 30 -14 58 -10 39 5 55 -5 25 -17 -27 -10 -16 -23 24 -30 39
-6 100 8 87 21 -8 9 14 34 25 27 5 -3 9 0 9 6 0 6 5 8 10 5 6 -3 10 -2 10 4 0
5 3 17 7 27 4 11 -15 1 -50 -25 -49 -38 -58 -41 -76 -29 -27 17 -26 26 6 60
15 15 24 28 20 28 -3 0 -15 -10 -26 -21 -14 -16 -35 -23 -73 -26 l-53 -4 35
20 c19 11 44 24 55 29 11 6 34 25 50 43 17 19 50 49 73 68 23 19 39 37 37 41
-2 4 9 22 25 42 21 25 26 38 18 46 -8 8 -6 15 6 27 21 21 22 42 1 25 -9 -7
-29 -14 -46 -15 -31 -3 -54 -15 -28 -15 11 0 11 -2 -1 -10 -28 -18 -36 -4 -17
28 5 6 4 12 -2 12 -5 0 -13 -4 -16 -10 -7 -12 -52 -6 -46 6 3 5 16 18 30 29
34 26 51 42 51 49 0 13 -20 4 -62 -28z"/>
<path d="M520 5214 c0 -2 9 -8 19 -13 14 -8 22 -7 30 3 8 10 4 13 -19 13 -17
0 -30 -2 -30 -3z"/>
<path d="M3099 5199 c-8 -16 -8 -24 1 -33 10 -8 11 -7 8 4 -3 8 -1 23 4 33 5
9 6 17 4 17 -3 0 -10 -9 -17 -21z"/>
<path d="M3720 5213 c0 -17 40 -83 51 -83 5 0 9 5 9 11 0 5 -4 8 -8 5 -5 -3
-18 14 -30 37 -12 23 -22 37 -22 30z"/>
<path d="M469 5193 c-13 -16 -12 -17 4 -4 9 7 17 15 17 17 0 8 -8 3 -21 -13z"/>
<path d="M1835 5190 c-19 -8 -19 -9 3 -9 12 -1 22 4 22 9 0 6 -1 10 -2 9 -2 0
-12 -4 -23 -9z"/>
<path d="M2430 5190 c-9 -6 -10 -10 -3 -10 6 0 15 5 18 10 8 12 4 12 -15 0z"/>
<path d="M616 5161 c-11 -16 -34 -33 -55 -38 -30 -9 -32 -11 -11 -12 14 0 38
8 54 18 16 11 35 17 43 14 7 -3 25 7 40 21 20 21 22 25 7 19 -10 -4 -24 -14
-31 -22 -10 -14 -13 -13 -20 6 -8 22 -8 22 -27 -6z"/>
<path d="M2030 5175 c0 -8 5 -15 10 -15 6 0 10 7 10 15 0 8 -4 15 -10 15 -5 0
-10 -7 -10 -15z"/>
<path d="M2494 5176 c-10 -11 -25 -56 -19 -56 5 0 36 63 33 66 -2 1 -8 -3 -14
-10z"/>
<path d="M1764 5118 c-2 -44 -6 -63 -18 -70 -20 -11 -21 -29 -1 -22 27 11 18
-35 -10 -48 -29 -13 -34 -29 -7 -25 23 4 61 26 44 27 -9 0 -10 5 -2 19 5 11 7
27 3 37 -4 10 -2 15 3 11 6 -3 16 -2 24 3 11 7 12 14 2 35 -7 14 -12 34 -12
44 0 9 -6 25 -12 34 -11 14 -13 7 -14 -45z m26 -48 c0 -5 -4 -10 -10 -10 -5 0
-10 5 -10 10 0 6 5 10 10 10 6 0 10 -4 10 -10z"/>
<path d="M2610 5169 c0 -5 10 -9 23 -10 21 0 21 -1 -3 -10 -20 -8 -22 -12 -10
-19 21 -13 24 -13 37 9 11 17 9 21 -17 30 -18 6 -30 6 -30 0z"/>
<path d="M3447 5148 c-15 -26 -15 -29 -2 -18 20 16 39 50 28 50 -4 0 -16 -14
-26 -32z"/>
<path d="M3690 5171 c0 -6 4 -13 10 -16 6 -3 7 1 4 9 -7 18 -14 21 -14 7z"/>
<path d="M400 5159 c0 -5 5 -7 10 -4 6 3 10 8 10 11 0 2 -4 4 -10 4 -5 0 -10
-5 -10 -11z"/>
<path d="M2704 5155 c-4 -8 -12 -15 -19 -15 -7 0 -18 -13 -23 -29 -11 -30 -78
-81 -106 -81 -20 0 -29 -17 -14 -26 6 -4 14 -2 16 4 2 7 8 12 12 12 22 0 98
62 104 85 4 14 11 25 16 25 5 0 14 9 20 20 6 11 8 20 5 20 -3 0 -8 -7 -11 -15z"/>
<path d="M880 5150 c8 -5 20 -10 25 -10 6 0 3 5 -5 10 -8 5 -19 10 -25 10 -5
0 -3 -5 5 -10z"/>
<path d="M1698 5153 c6 -2 18 -2 25 0 6 3 1 5 -13 5 -14 0 -19 -2 -12 -5z"/>
<path d="M2770 5155 c0 -5 5 -17 10 -25 5 -8 10 -10 10 -5 0 6 -5 17 -10 25
-5 8 -10 11 -10 5z"/>
<path d="M3560 5134 c-12 -32 -13 -47 -1 -40 8 6 21 66 14 66 -2 0 -8 -12 -13
-26z"/>
<path d="M2830 5140 c8 -5 24 -9 35 -9 20 0 20 0 0 9 -11 5 -27 9 -35 9 -13 1
-13 0 0 -9z"/>
<path d="M3389 5133 c-13 -16 -12 -17 4 -4 16 13 21 21 13 21 -2 0 -10 -8 -17
-17z"/>
<path d="M1876 5124 c-6 -15 -4 -15 11 -3 10 7 20 15 22 16 2 2 -3 3 -11 3 -9
0 -19 -7 -22 -16z"/>
<path d="M3356 5132 c-3 -6 -16 -8 -29 -6 -12 2 -16 2 -9 -2 18 -8 15 -27 -4
-20 -8 3 -13 2 -10 -3 3 -5 0 -11 -8 -14 -7 -3 -16 -15 -19 -27 -5 -21 -4 -21
26 6 56 51 69 65 64 70 -3 3 -8 1 -11 -4z"/>
<path d="M1280 5123 c0 -3 8 -15 17 -25 15 -17 15 -20 3 -28 -11 -7 -8 -10 13
-10 33 0 33 7 2 43 -24 27 -35 33 -35 20z"/>
<path d="M2819 5113 c5 -10 9 -22 8 -28 0 -5 15 -20 34 -32 19 -12 43 -29 54
-38 20 -16 20 -16 0 -10 -18 6 -19 5 -4 -10 15 -15 19 -15 50 -1 19 9 24 13
13 11 -12 -3 -28 0 -35 8 -8 7 -31 23 -52 36 -21 13 -44 36 -52 52 -9 16 -18
29 -21 29 -2 0 0 -8 5 -17z"/>
<path d="M1545 5110 c-2 -4 2 -27 9 -51 8 -24 14 -39 15 -32 1 7 12 2 26 -11
26 -24 34 -43 13 -30 -7 4 -8 3 -4 -4 16 -27 43 -32 65 -13 28 25 27 31 -8 31
-21 0 -39 12 -70 45 -46 50 -51 66 -18 58 12 -3 18 -2 14 2 -10 12 -36 15 -42
5z m99 -128 c3 -5 -1 -9 -9 -9 -8 0 -12 4 -9 9 3 4 7 8 9 8 2 0 6 -4 9 -8z"/>
<path d="M2056 5105 c-16 -12 -17 -15 -4 -15 9 0 18 7 22 15 7 18 6 18 -18 0z"/>
<path d="M2117 5113 c-10 -9 -9 -23 1 -23 5 0 9 7 9 15 0 17 -1 18 -10 8z"/>
<path d="M2215 5110 c4 -6 11 -8 16 -5 14 9 11 15 -7 15 -8 0 -12 -5 -9 -10z"/>
<path d="M3595 5110 c-8 -12 -9 -89 -2 -96 3 -3 7 20 9 50 3 59 3 62 -7 46z"/>
<path d="M1080 5100 c8 -5 22 -10 31 -10 14 0 14 -7 -4 -62 -11 -35 -21 -65
-23 -67 -2 -2 -12 7 -23 20 -42 53 -81 93 -81 84 0 -21 135 -165 155 -165 5 0
-2 11 -16 24 l-26 24 16 50 16 49 13 -31 c13 -31 29 -46 47 -46 6 1 0 9 -12
19 -21 18 -43 76 -36 97 4 11 -27 24 -57 24 -13 0 -13 -1 0 -10z"/>
<path d="M994 5085 c11 -8 30 -15 42 -15 13 0 26 -5 29 -10 4 -6 11 -8 16 -4
13 8 -19 44 -38 44 -8 0 -11 -4 -8 -10 8 -13 3 -13 -32 0 -26 9 -27 9 -9 -5z"/>
<path d="M1651 5084 c0 -11 3 -14 6 -6 3 7 2 16 -1 19 -3 4 -6 -2 -5 -13z"/>
<path d="M3440 5079 c0 -5 5 -7 10 -4 6 3 10 8 10 11 0 2 -4 4 -10 4 -5 0 -10
-5 -10 -11z"/>
<path d="M3480 5081 c0 -6 4 -13 10 -16 6 -3 7 1 4 9 -7 18 -14 21 -14 7z"/>
<path d="M702 5048 c-5 -18 -13 -42 -17 -53 -6 -15 -5 -17 4 -9 13 12 33 85
26 92 -2 2 -8 -11 -13 -30z"/>
<path d="M1965 5069 c-11 -17 1 -21 15 -4 8 9 8 15 2 15 -6 0 -14 -5 -17 -11z"/>
<path d="M3556 5064 c-4 -9 -9 -15 -12 -12 -2 3 -19 -8 -35 -23 -38 -36 -59
-37 -59 -4 0 19 -4 23 -17 18 -11 -4 -12 -8 -5 -11 16 -5 15 -29 0 -35 -7 -2
-10 -7 -7 -11 3 -3 29 1 58 11 42 13 54 14 61 4 5 -8 10 -9 14 -3 3 5 -1 13
-10 16 -13 5 -14 9 -4 21 6 7 18 11 25 9 10 -4 12 0 8 15 -6 25 -9 26 -17 5z"/>
<path d="M3649 5055 c-3 -19 -9 -29 -17 -27 -8 1 -12 -3 -10 -10 3 -7 10 -13
16 -13 7 0 23 -12 37 -27 14 -16 34 -28 44 -28 10 0 24 -7 32 -16 7 -8 26 -22
43 -31 l31 -15 -35 31 c-19 17 -54 40 -77 51 -35 18 -43 28 -49 58 -9 56 -11
60 -15 27z"/>
<path d="M656 5055 c-9 -26 -7 -32 5 -12 6 10 9 21 6 23 -2 3 -7 -2 -11 -11z"/>
<path d="M2714 5054 c-18 -14 -18 -15 4 -4 12 6 22 13 22 15 0 8 -5 6 -26 -11z"/>
<path d="M2118 5050 c-3 -8 -10 -34 -15 -58 -10 -43 -10 -43 12 -38 32 8 46
-31 19 -51 -10 -7 -14 -13 -10 -13 5 0 2 -7 -5 -16 -7 -9 -15 -25 -16 -37 -5
-29 -12 -34 -23 -17 -6 8 -10 10 -10 5 0 -6 6 -17 12 -23 10 -10 8 -12 -7 -9
-11 1 -27 7 -35 12 -13 8 -13 7 -1 -8 7 -9 17 -14 22 -11 17 10 9 -31 -11 -56
-11 -14 -20 -29 -20 -33 0 -11 -58 -95 -82 -119 -10 -10 -18 -23 -18 -29 0 -5
-25 -41 -55 -78 -62 -77 -75 -108 -17 -41 83 96 203 276 255 382 70 145 74
158 48 151 -16 -4 -21 1 -26 34 -12 72 -11 70 -17 53z"/>
<path d="M3118 5023 c-5 -36 4 -53 27 -53 6 0 4 4 -4 9 -9 6 -11 14 -3 26 10
19 5 55 -8 55 -4 0 -10 -17 -12 -37z"/>
<path d="M3372 5037 c-31 -33 -27 -43 4 -12 14 14 24 28 22 31 -3 2 -14 -6
-26 -19z"/>
<path d="M546 5033 c-6 -14 -5 -15 5 -6 7 7 10 15 7 18 -3 3 -9 -2 -12 -12z"/>
<path d="M2291 5030 c-21 -10 -30 -20 -23 -24 15 -9 48 9 56 29 3 8 4 15 3 14
-1 -1 -17 -9 -36 -19z"/>
<path d="M3300 5019 l-35 -30 40 27 c22 16 42 29 44 31 2 2 0 3 -5 3 -5 0 -25
-14 -44 -31z"/>
<path d="M565 5010 c-14 -27 -14 -29 0 -23 9 3 14 8 11 10 -3 3 5 14 17 24 19
16 19 18 5 19 -10 0 -24 -13 -33 -30z"/>
<path d="M1791 5024 c-1 -12 6 -27 15 -35 14 -11 14 -14 1 -24 -24 -17 5 -48
47 -50 19 0 32 3 30 7 -3 4 -16 8 -28 8 -13 0 -29 6 -35 14 -9 11 -5 16 21 27
l32 13 -30 8 c-17 4 -36 18 -42 30 -10 23 -11 23 -11 2z"/>
<path d="M3047 5020 c13 -15 20 -17 31 -8 12 10 11 13 -5 19 -34 14 -44 10
-26 -11z"/>
<path d="M1200 5015 c7 -9 15 -13 17 -11 7 7 -7 26 -19 26 -6 0 -6 -6 2 -15z"/>
<path d="M2680 5015 c-11 -13 -10 -14 4 -9 9 3 16 10 16 15 0 13 -6 11 -20 -6z"/>
<path d="M3181 5006 c-8 -10 -9 -16 -1 -21 5 -3 10 -1 10 5 0 6 10 15 23 20
22 9 22 9 1 9 -12 1 -27 -5 -33 -13z"/>
<path d="M1445 4995 c-3 -8 -7 -22 -10 -30 -2 -8 -1 -15 4 -15 5 0 11 14 13
30 5 32 1 40 -7 15z"/>
<path d="M2210 5002 c0 -13 80 -190 122 -269 66 -124 176 -283 261 -378 11
-11 33 -39 50 -62 32 -45 50 -53 22 -9 -9 14 -13 31 -9 37 4 7 3 9 -3 6 -6 -4
-18 1 -27 11 -30 32 -117 145 -158 206 -7 10 -24 35 -38 55 -36 51 -93 161
-83 161 4 0 -3 7 -15 16 -12 8 -22 22 -22 31 0 8 -13 42 -30 75 -45 88 -38
108 25 69 26 -15 216 -91 230 -91 3 0 5 4 5 8 0 4 -21 13 -47 20 -48 13 -150
55 -235 98 -27 13 -48 20 -48 16z"/>
<path d="M640 4991 c0 -4 -11 -25 -25 -45 -24 -35 -25 -48 -2 -23 22 23 48 77
38 77 -6 0 -11 -4 -11 -9z"/>
<path d="M1470 4971 c0 -17 2 -31 4 -31 8 0 13 51 5 56 -5 3 -9 -9 -9 -25z"/>
<path d="M3031 4984 c0 -11 3 -14 6 -6 3 7 2 16 -1 19 -3 4 -6 -2 -5 -13z"/>
<path d="M770 4981 c0 -6 4 -13 10 -16 6 -3 7 1 4 9 -7 18 -14 21 -14 7z"/>
<path d="M1369 4973 c-13 -16 -12 -17 4 -4 9 7 17 15 17 17 0 8 -8 3 -21 -13z"/>
<path d="M1965 4940 c-4 -33 -14 -55 -26 -64 -17 -11 -17 -15 -5 -25 12 -10
17 -5 32 29 16 36 19 38 26 20 5 -13 16 -20 30 -19 18 1 19 2 5 6 -20 5 -37
41 -37 79 0 44 -18 25 -25 -26z"/>
<path d="M2871 4974 c6 -8 18 -14 26 -14 20 0 8 16 -17 23 -17 4 -19 3 -9 -9z"/>
<path d="M3228 4983 c-10 -2 -18 -9 -18 -14 0 -5 -11 -9 -23 -9 -25 0 -83 -25
-92 -39 -6 -11 123 36 148 54 21 15 18 17 -15 8z"/>
<path d="M2507 4973 c-4 -6 7 -22 23 -37 17 -14 30 -21 30 -16 0 6 -7 13 -16
17 -9 3 -19 15 -23 26 -4 12 -10 16 -14 10z"/>
<path d="M2950 4970 c-8 -5 -11 -12 -7 -16 4 -4 13 -2 19 4 15 15 7 24 -12 12z"/>
<path d="M3050 4971 c0 -6 4 -13 10 -16 6 -3 7 1 4 9 -7 18 -14 21 -14 7z"/>
<path d="M2850 4959 c0 -20 38 -55 70 -64 20 -5 18 -2 -12 19 -20 14 -42 34
-47 44 -9 14 -10 15 -11 1z"/>
<path d="M3304 4946 c-11 -11 -29 -26 -40 -33 -15 -10 -15 -11 -2 -7 10 3 31
1 47 -4 24 -8 37 -6 70 10 23 11 47 30 53 41 8 17 2 14 -33 -11 -48 -36 -115
-47 -87 -14 37 42 30 58 -8 18z"/>
<path d="M1594 4943 c-16 -5 60 -86 77 -81 9 2 1 17 -26 44 -22 23 -45 39 -51
37z"/>
<path d="M2175 4858 c-16 -50 -34 -101 -40 -112 -6 -12 -19 -41 -28 -65 -39
-95 -128 -236 -184 -288 -31 -29 -52 -53 -46 -53 5 0 18 9 28 20 10 11 23 17
29 13 6 -3 8 -3 5 1 -3 3 8 21 25 39 36 39 123 183 148 246 18 47 35 70 24 34
-11 -34 3 -28 15 7 6 16 15 27 20 24 5 -3 9 0 9 5 0 6 -4 11 -10 11 -15 0 -12
24 6 46 15 18 15 18 5 -3 -6 -12 -7 -24 -2 -27 10 -7 21 27 21 67 0 15 5 27
11 27 16 0 3 -113 -27 -233 -29 -114 -105 -294 -141 -333 -19 -21 -22 -29 -11
-35 17 -11 68 -8 68 4 0 5 -7 7 -15 3 -8 -3 -15 -1 -15 5 0 6 -4 7 -10 4 -16
-10 -11 11 6 26 19 16 77 129 67 129 -5 0 -3 4 2 8 18 13 50 111 73 222 4 19
10 31 13 25 13 -21 31 -116 25 -131 -3 -8 -2 -13 3 -10 5 3 13 -22 19 -57 13
-78 16 -89 25 -104 5 -7 6 -13 3 -13 -3 0 3 -20 14 -45 13 -30 16 -47 8 -51
-7 -4 -4 -10 6 -16 26 -15 28 -5 12 43 -34 99 -87 339 -100 453 -5 43 -4 47
10 35 8 -7 13 -20 11 -29 -2 -9 1 -45 8 -81 7 -35 14 -55 15 -44 1 11 1 25 0
30 -1 6 -4 18 -6 28 -2 10 -6 28 -10 40 -14 49 17 -2 37 -59 11 -32 42 -102
68 -154 26 -52 46 -100 44 -107 -2 -6 1 -14 6 -18 7 -4 8 0 4 11 -4 12 -3 15
5 10 18 -11 15 -2 -16 51 -46 78 -113 236 -182 431 -13 34 -23 62 -24 62 0 0
-14 -42 -31 -92z"/>
<path d="M3495 4940 c-3 -5 -1 -10 4 -10 6 0 11 5 11 10 0 6 -2 10 -4 10 -3 0
-8 -4 -11 -10z"/>
<path d="M483 4925 c-3 -9 -3 -18 -1 -21 3 -3 8 4 11 16 6 23 -1 27 -10 5z"/>
<path d="M1720 4920 c-21 -16 -23 -21 -12 -32 11 -11 13 -10 10 2 -2 8 2 14 8
13 5 -1 15 7 22 18 15 24 4 24 -28 -1z"/>
<path d="M2087 4926 c-13 -10 -15 -15 -5 -18 8 -3 3 -14 -16 -31 -16 -15 -24
-27 -17 -27 6 0 20 9 30 19 12 12 21 15 23 9 2 -6 4 5 4 26 0 20 0 36 0 36 -1
0 -9 -7 -19 -14z"/>
<path d="M2586 4913 c-6 -14 -5 -15 5 -6 7 7 10 15 7 18 -3 3 -9 -2 -12 -12z"/>
<path d="M1288 4913 c7 -3 16 -2 19 1 4 3 -2 6 -13 5 -11 0 -14 -3 -6 -6z"/>
<path d="M521 4889 c-7 -12 -10 -24 -7 -27 3 -3 6 0 6 6 0 7 12 12 28 13 16 0
21 3 12 6 -8 3 -17 10 -20 14 -3 5 -11 -1 -19 -12z"/>
<path d="M2855 4901 c-3 -5 -2 -12 3 -15 5 -3 9 1 9 9 0 17 -3 19 -12 6z"/>
<path d="M743 4880 c4 -14 7 -28 7 -31 0 -3 11 -11 26 -17 l25 -12 -28 37
c-37 52 -37 51 -30 23z"/>
<path d="M1030 4893 c0 -13 48 -53 64 -53 6 0 -1 7 -14 16 -14 10 -31 24 -37
32 -7 9 -13 11 -13 5z"/>
<path d="M1150 4890 c0 -4 19 -17 42 -29 32 -16 38 -22 24 -27 -9 -3 -31 -4
-49 0 -23 4 -28 3 -17 -4 21 -14 76 -12 88 3 8 9 -1 19 -39 39 -27 14 -49 22
-49 18z"/>
<path d="M3111 4881 c18 -15 29 -17 51 -9 15 6 31 15 35 21 4 7 0 8 -13 2 -37
-15 -67 -19 -60 -6 5 7 -1 11 -15 11 l-21 0 23 -19z"/>
<path d="M1280 4879 c0 -5 5 -7 10 -4 6 3 10 8 10 11 0 2 -4 4 -10 4 -5 0 -10
-5 -10 -11z"/>
<path d="M1831 4879 c0 -9 7 -23 16 -30 9 -8 14 -9 10 -2 -4 6 -4 13 0 16 5 2
3 2 -4 1 -6 -2 -14 5 -16 14 -4 15 -5 15 -6 1z"/>
<path d="M3232 4882 c-13 -4 -23 -11 -22 -16 1 -5 -4 -13 -12 -17 -9 -6 -9 -9
-1 -9 6 0 18 7 27 15 8 8 19 15 25 15 5 0 13 5 16 10 7 11 1 11 -33 2z"/>
<path d="M1375 4866 c-78 -86 -88 -98 -65 -83 26 17 85 86 78 92 -1 1 -8 -2
-13 -9z"/>
<path d="M3310 4874 c0 -6 -21 -15 -46 -22 -55 -15 -55 -25 0 -12 41 9 64 25
53 37 -4 3 -7 2 -7 -3z"/>
<path d="M584 4852 c-26 -24 -56 -35 -64 -23 -3 6 -11 -3 -17 -19 -9 -25 -9
-28 6 -22 25 9 89 50 96 62 12 20 -1 21 -21 2z"/>
<path d="M810 4859 c0 -8 5 -21 10 -29 8 -12 9 -10 7 7 -4 26 -17 43 -17 22z"/>
<path d="M1328 4863 c7 -3 16 -2 19 1 4 3 -2 6 -13 5 -11 0 -14 -3 -6 -6z"/>
<path d="M1880 4855 c0 -11 5 -27 10 -35 8 -12 10 -12 10 5 0 11 -5 27 -10 35
-8 12 -10 12 -10 -5z"/>
<path d="M1990 4862 c0 -5 7 -9 15 -9 8 0 12 4 9 9 -3 4 -9 8 -15 8 -5 0 -9
-4 -9 -8z"/>
<path d="M3344 4855 c-17 -8 -51 -37 -75 -64 -24 -28 -48 -51 -52 -51 -4 0
-17 -9 -29 -20 -26 -24 -18 -26 22 -5 15 8 38 31 50 50 13 20 28 34 35 31 7
-2 21 2 32 10 17 14 16 14 -4 4 -17 -8 -23 -8 -23 0 0 6 20 20 45 31 25 11 45
22 45 24 0 7 -12 5 -46 -10z"/>
<path d="M487 4853 c-4 -3 -7 -13 -7 -22 1 -13 3 -13 11 2 11 19 8 33 -4 20z"/>
<path d="M3460 4828 c-12 -22 -12 -22 6 -6 10 10 15 20 12 24 -4 3 -12 -5 -18
-18z"/>
<path d="M3505 4840 c-3 -5 -1 -10 4 -10 6 0 11 5 11 10 0 6 -2 10 -4 10 -3 0
-8 -4 -11 -10z"/>
<path d="M613 4832 c-7 -4 -9 -13 -4 -21 6 -10 10 -9 15 5 8 20 4 25 -11 16z"/>
<path d="M1477 4821 c3 -11 -2 -21 -12 -25 -9 -3 -14 -10 -11 -15 3 -5 -1 -25
-9 -44 -8 -19 -11 -37 -8 -41 4 -3 1 -6 -5 -6 -7 0 -12 -4 -12 -9 0 -5 8 -8
18 -7 14 1 17 -8 19 -44 1 -39 0 -41 -7 -15 -8 32 -9 32 -15 0 -2 -11 -6 -32
-9 -47 -7 -36 5 -35 32 2 26 34 27 50 7 108 -15 41 -14 46 7 90 12 26 24 50
25 53 2 4 -3 9 -10 12 -10 4 -13 0 -10 -12z"/>
<path d="M1527 4833 c-3 -5 -4 -29 -3 -55 2 -56 32 -95 54 -71 10 10 10 13 -1
13 -23 0 -43 42 -41 83 2 37 0 44 -9 30z"/>
<path d="M1025 4822 c12 -11 125 -45 131 -39 2 2 -7 13 -21 25 -14 12 -25 18
-25 13 0 -9 -49 -6 -80 5 -10 3 -11 2 -5 -4z"/>
<path d="M1925 4820 c-3 -5 -1 -10 4 -10 6 0 11 5 11 10 0 6 -2 10 -4 10 -3 0
-8 -4 -11 -10z"/>
<path d="M715 4800 c-10 -11 -13 -20 -7 -20 6 0 16 9 22 20 6 11 9 20 7 20 -2
0 -12 -9 -22 -20z"/>
<path d="M1260 4795 c1 -26 2 -28 11 -12 8 14 8 22 0 30 -8 8 -11 3 -11 -18z"/>
<path d="M1680 4810 c8 -5 20 -10 25 -10 6 0 3 5 -5 10 -8 5 -19 10 -25 10 -5
0 -3 -5 5 -10z"/>
<path d="M1728 4813 c7 -3 16 -2 19 1 4 3 -2 6 -13 5 -11 0 -14 -3 -6 -6z"/>
<path d="M670 4796 c0 -8 4 -17 8 -20 4 -2 8 4 8 15 0 10 -4 19 -8 19 -4 0 -8
-6 -8 -14z"/>
<path d="M1975 4800 c-3 -5 -1 -10 4 -10 6 0 11 5 11 10 0 6 -2 10 -4 10 -3 0
-8 -4 -11 -10z"/>
<path d="M2947 4799 c7 -7 15 -10 18 -7 3 3 -2 9 -12 12 -14 6 -15 5 -6 -5z"/>
<path d="M354 4785 c-10 -8 -14 -15 -8 -15 5 0 19 7 30 15 10 8 14 15 8 15 -5
0 -19 -7 -30 -15z"/>
<path d="M830 4796 c0 -2 8 -10 18 -17 15 -13 16 -12 3 4 -13 16 -21 21 -21
13z"/>
<path d="M3377 4750 c-38 -42 -43 -50 -26 -50 11 0 18 4 15 8 -3 5 13 28 35
50 22 23 36 42 31 42 -5 0 -30 -22 -55 -50z"/>
<path d="M3786 4785 c4 -8 8 -15 10 -15 2 0 4 7 4 15 0 8 -4 15 -10 15 -5 0
-7 -7 -4 -15z"/>
<path d="M1041 4784 c15 -42 219 -215 219 -186 0 5 -23 24 -52 42 -29 19 -79
61 -112 95 -33 33 -57 55 -55 49z"/>
<path d="M3345 4781 c-3 -6 -10 -9 -15 -6 -5 3 -11 2 -14 -3 -2 -4 4 -8 14 -9
19 -2 37 14 27 23 -3 3 -8 0 -12 -5z"/>
<path d="M640 4776 c0 -2 7 -7 16 -10 8 -3 12 -2 9 4 -6 10 -25 14 -25 6z"/>
<path d="M1216 4767 c3 -10 9 -15 12 -12 3 3 0 11 -7 18 -10 9 -11 8 -5 -6z"/>
<path d="M3015 4769 c-4 -6 -5 -12 -2 -15 2 -3 7 2 10 11 7 17 1 20 -8 4z"/>
<path d="M3535 4770 c3 -5 8 -10 11 -10 2 0 4 5 4 10 0 6 -5 10 -11 10 -5 0
-7 -4 -4 -10z"/>
<path d="M3702 4750 c0 -14 2 -19 5 -12 2 6 2 18 0 25 -3 6 -5 1 -5 -13z"/>
<path d="M3269 4734 c-23 -25 -23 -26 -2 -15 23 12 38 29 31 37 -3 2 -15 -8
-29 -22z"/>
<path d="M1935 4740 c3 -5 8 -10 11 -10 2 0 4 5 4 10 0 6 -5 10 -11 10 -5 0
-7 -4 -4 -10z"/>
<path d="M3631 4739 c-1 -9 -10 -28 -22 -43 -21 -27 -11 -38 11 -11 7 8 19 15
28 15 8 0 13 -3 9 -6 -8 -8 13 -64 24 -64 5 0 9 5 9 10 0 6 -4 10 -10 10 -5 0
-10 14 -10 30 0 17 -5 30 -10 30 -6 0 -15 10 -20 23 -6 15 -9 17 -9 6z"/>
<path d="M3750 4740 c0 -5 5 -10 11 -10 5 0 7 5 4 10 -3 6 -8 10 -11 10 -2 0
-4 -4 -4 -10z"/>
<path d="M2787 4720 c3 -11 9 -20 14 -20 11 0 11 3 3 24 -9 23 -23 20 -17 -4z"/>
<path d="M3472 4728 c-15 -15 -16 -28 -2 -28 6 0 10 6 10 14 0 8 6 17 13 19 6
3 7 6 2 6 -6 1 -16 -4 -23 -11z"/>
<path d="M358 4679 c-26 -26 -66 -55 -88 -66 -21 -10 -40 -23 -40 -29 0 -14
-49 -35 -85 -38 -34 -2 -32 -18 6 -40 40 -23 103 -16 133 14 20 21 20 22 1 13
-11 -6 -40 -13 -65 -17 -42 -6 -44 -6 -25 8 11 9 25 16 30 16 6 0 21 10 35 21
14 11 19 17 11 13 -10 -5 -12 -3 -7 5 4 7 13 10 18 9 13 -5 138 114 138 130 0
19 -12 12 -62 -39z"/>
<path d="M479 4713 c-8 -10 -21 -27 -29 -38 -15 -20 -15 -20 9 0 21 18 47 55
38 55 -2 0 -10 -8 -18 -17z"/>
<path d="M785 4720 c3 -5 8 -10 11 -10 2 0 4 5 4 10 0 6 -5 10 -11 10 -5 0 -7
-4 -4 -10z"/>
<path d="M3423 4718 c-17 -22 -26 -45 -10 -25 8 9 19 17 26 17 6 0 11 5 11 10
0 14 -16 12 -27 -2z"/>
<path d="M1610 4709 c0 -5 5 -7 10 -4 6 3 10 8 10 11 0 2 -4 4 -10 4 -5 0 -10
-5 -10 -11z"/>
<path d="M1780 4716 c0 -2 7 -7 16 -10 8 -3 12 -2 9 4 -6 10 -25 14 -25 6z"/>
<path d="M1870 4710 c-1 -8 -2 -19 -1 -23 1 -4 -4 -18 -9 -30 l-11 -22 19 22
c11 12 23 19 28 15 5 -4 3 0 -2 8 -6 8 -14 22 -17 30 -5 13 -6 13 -7 0z"/>
<path d="M3107 4713 c-4 -3 -7 -11 -7 -17 0 -6 5 -5 12 2 6 6 9 14 7 17 -3 3
-9 2 -12 -2z"/>
<path d="M3717 4702 c3 -12 13 -28 22 -35 10 -7 20 -20 24 -29 3 -10 11 -18
17 -18 14 0 1 23 -39 70 -25 29 -29 31 -24 12z"/>
<path d="M691 4700 c0 -8 4 -24 9 -35 9 -20 9 -20 9 0 0 11 -4 27 -9 35 -9 13
-10 13 -9 0z"/>
<path d="M495 4689 c-4 -6 -5 -12 -2 -15 2 -3 7 2 10 11 7 17 1 20 -8 4z"/>
<path d="M1588 4694 c-3 -3 3 -31 14 -62 18 -50 19 -63 8 -105 -7 -27 -11 -50
-9 -52 5 -5 31 16 49 39 14 18 13 19 -3 13 -16 -6 -18 -2 -16 26 2 17 -5 58
-15 90 -20 61 -20 60 -28 51z"/>
<path d="M1946 4668 c-3 -17 -3 -35 1 -39 5 -5 9 10 11 32 3 47 -3 51 -12 7z"/>
<path d="M3256 4693 c-7 -8 -12 -9 -53 -11 -13 -1 -22 -8 -20 -14 1 -7 -5 -11
-13 -10 -8 2 -12 0 -8 -3 9 -9 -20 -33 -92 -73 -30 -18 -49 -32 -42 -32 21 0
82 35 146 84 33 24 63 43 66 41 9 -5 36 13 29 19 -3 4 -9 3 -13 -1z"/>
<path d="M1630 4670 c6 -11 12 -20 14 -20 2 0 2 9 -1 20 -3 11 -9 20 -15 20
-5 0 -4 -9 2 -20z"/>
<path d="M2810 4680 c0 -5 5 -10 11 -10 5 0 7 5 4 10 -3 6 -8 10 -11 10 -2 0
-4 -4 -4 -10z"/>
<path d="M3279 4673 c-13 -16 -12 -17 4 -4 16 13 21 21 13 21 -2 0 -10 -8 -17
-17z"/>
<path d="M3416 4665 c-3 -8 -1 -15 4 -15 6 0 10 7 10 15 0 8 -2 15 -4 15 -2 0
-6 -7 -10 -15z"/>
<path d="M3545 4656 c-11 -12 -40 -33 -64 -46 -25 -14 -46 -31 -49 -37 -6 -21
15 -15 43 11 14 13 39 29 55 36 16 7 32 21 36 32 9 28 2 30 -21 4z"/>
<path d="M1372 4654 c-7 -8 -12 -20 -9 -27 2 -7 9 -2 16 11 15 28 11 36 -7 16z"/>
<path d="M2830 4649 c0 -8 7 -24 15 -35 18 -24 19 -7 0 26 -9 16 -14 19 -15 9z"/>
<path d="M390 4639 c0 -5 5 -7 10 -4 6 3 10 8 10 11 0 2 -4 4 -10 4 -5 0 -10
-5 -10 -11z"/>
<path d="M3710 4635 c-10 -12 -10 -15 4 -15 9 0 16 7 16 15 0 8 -2 15 -4 15
-2 0 -9 -7 -16 -15z"/>
<path d="M3820 4646 c0 -2 8 -10 18 -17 15 -13 16 -12 3 4 -13 16 -21 21 -21
13z"/>
<path d="M2983 4625 c0 -8 4 -12 9 -9 5 3 6 10 3 15 -9 13 -12 11 -12 -6z"/>
<path d="M3385 4620 c-8 -27 -73 -66 -87 -52 -7 7 -4 14 11 24 25 15 26 24 6
32 -8 3 -14 2 -12 -3 1 -5 -23 -32 -53 -60 -30 -28 -50 -51 -43 -51 6 0 26 13
44 30 22 20 37 26 43 20 17 -17 40 -11 69 16 l28 26 7 -23 c6 -23 6 -23 12 6
10 49 -11 79 -25 35z"/>
<path d="M625 4620 c-3 -5 -1 -10 4 -10 6 0 11 5 11 10 0 6 -2 10 -4 10 -3 0
-8 -4 -11 -10z"/>
<path d="M1391 4603 c-11 -15 -25 -33 -31 -40 -6 -7 -10 -16 -9 -20 4 -24 -2
-43 -12 -38 -7 5 -8 -4 -4 -26 3 -19 8 -45 10 -58 2 -13 13 -36 23 -51 l20
-27 -26 3 c-15 2 6 -7 46 -21 76 -24 139 -29 180 -14 13 5 41 10 63 11 32 1
36 3 22 13 -14 11 -14 14 7 35 19 19 23 32 21 84 -1 34 -6 63 -11 64 -6 2 -10
11 -10 20 0 8 -2 13 -5 10 -3 -3 -1 -26 6 -51 8 -35 8 -54 -1 -81 -34 -103
-212 -136 -287 -53 -22 24 -43 78 -43 111 0 26 47 128 63 138 6 4 9 10 5 13
-3 3 -15 -7 -27 -22z"/>
<path d="M1905 4620 c3 -5 8 -10 11 -10 2 0 4 5 4 10 0 6 -5 10 -11 10 -5 0
-7 -4 -4 -10z"/>
<path d="M1673 4603 c0 -11 7 -20 14 -20 10 0 10 4 1 16 -7 9 -13 18 -15 20
-1 2 -1 -5 0 -16z"/>
<path d="M3860 4609 c0 -5 5 -7 10 -4 6 3 10 8 10 11 0 2 -4 4 -10 4 -5 0 -10
-5 -10 -11z"/>
<path d="M1356 4593 c-6 -14 -5 -15 5 -6 7 7 10 15 7 18 -3 3 -9 -2 -12 -12z"/>
<path d="M1276 4585 c4 -11 -1 -15 -17 -16 -13 0 -18 -3 -11 -6 21 -8 66 18
50 29 -20 12 -28 10 -22 -7z"/>
<path d="M870 4580 c0 -5 7 -10 15 -10 8 0 15 -4 15 -9 0 -5 7 -12 16 -15 15
-6 15 -4 3 11 -25 32 -49 43 -49 23z"/>
<path d="M1195 4580 c-3 -5 -1 -10 4 -10 6 0 11 5 11 10 0 6 -2 10 -4 10 -3 0
-8 -4 -11 -10z"/>
<path d="M2865 4580 c3 -5 8 -10 11 -10 2 0 4 5 4 10 0 6 -5 10 -11 10 -5 0
-7 -4 -4 -10z"/>
<path d="M720 4565 c0 -8 5 -15 11 -15 6 0 9 -7 6 -15 -4 -8 -2 -17 3 -20 11
-7 13 9 4 43 -7 25 -24 30 -24 7z"/>
<path d="M530 4552 c-27 -18 -41 -34 -35 -40 2 -2 19 10 37 27 37 34 36 39 -2
13z"/>
<path d="M3158 4550 c-38 -30 -80 -43 -89 -29 -4 6 -12 8 -18 4 -7 -4 -20 -1
-29 6 -16 12 -16 11 -2 -4 16 -18 53 -23 130 -18 32 2 40 5 26 10 -18 7 -18 8
4 29 30 27 12 29 -22 2z"/>
<path d="M622 4531 c-12 -17 -34 -31 -49 -34 -27 -4 -27 -4 3 -6 18 0 37 6 44
14 11 13 15 13 22 3 6 -9 7 -5 3 10 -4 13 -2 22 4 22 6 0 11 5 11 10 0 18 -16
10 -38 -19z"/>
<path d="M1200 4549 c0 -5 5 -7 10 -4 6 3 10 8 10 11 0 2 -4 4 -10 4 -5 0 -10
-5 -10 -11z"/>
<path d="M2122 4523 c-6 -20 -7 -32 -2 -27 10 10 25 64 18 64 -3 0 -10 -16
-16 -37z"/>
<path d="M2891 4537 c7 -15 16 -27 21 -27 14 0 9 16 -13 36 -21 19 -21 19 -8
-9z"/>
<path d="M2960 4541 c0 -6 4 -12 8 -15 5 -3 9 1 9 9 0 8 -4 15 -9 15 -4 0 -8
-4 -8 -9z"/>
<path d="M1174 4521 c14 -16 16 -21 5 -21 -10 -1 -9 -4 4 -11 17 -10 37 -5 37
9 0 4 -15 15 -32 25 l-33 19 19 -21z"/>
<path d="M676 4504 c-5 -14 -4 -15 9 -4 17 14 19 20 6 20 -5 0 -12 -7 -15 -16z"/>
<path d="M810 4515 c0 -15 35 -34 60 -34 20 1 21 2 5 6 -10 3 -29 12 -42 20
-13 9 -23 12 -23 8z"/>
<path d="M3541 4504 c0 -11 3 -14 6 -6 3 7 2 16 -1 19 -3 4 -6 -2 -5 -13z"/>
<path d="M461 4493 c-7 -8 -11 -16 -8 -19 2 -2 10 2 17 11 17 20 9 27 -9 8z"/>
<path d="M1110 4499 c0 -5 11 -9 25 -9 14 0 25 2 25 4 0 2 -11 6 -25 8 -14 3
-25 1 -25 -3z"/>
<path d="M3290 4490 c-16 -14 -19 -20 -8 -20 8 0 23 9 33 20 10 11 14 20 8 20
-5 0 -20 -9 -33 -20z"/>
<path d="M2920 4497 c0 -2 20 -25 45 -51 54 -58 59 -52 9 10 -31 37 -54 55
-54 41z"/>
<path d="M3304 4445 c-43 -48 -42 -64 1 -17 24 25 50 62 43 62 -2 0 -21 -20
-44 -45z"/>
<path d="M3507 4464 c-10 -13 -28 -24 -40 -25 -21 0 -21 -1 -2 -8 21 -8 71 28
64 47 -2 6 -12 -1 -22 -14z"/>
<path d="M1023 4467 c14 -12 17 -31 17 -122 0 -60 3 -106 6 -103 3 3 5 52 5
108 l0 102 29 -6 c16 -3 32 -1 35 4 3 6 3 10 -2 11 -4 1 -19 2 -33 3 -14 2
-36 6 -50 10 -23 6 -23 6 -7 -7z"/>
<path d="M1537 4466 c-4 -10 -1 -13 8 -9 8 3 12 9 9 14 -7 12 -11 11 -17 -5z"/>
<path d="M1898 4443 c-20 -21 -59 -58 -88 -82 -28 -24 -48 -46 -45 -50 4 -3
13 2 20 13 8 10 19 15 26 10 7 -4 10 -3 6 3 -6 10 14 25 35 27 4 1 15 12 24
26 10 14 28 37 42 52 14 15 23 30 20 33 -2 3 -21 -12 -40 -32z"/>
<path d="M3151 4454 c0 -11 3 -14 6 -6 3 7 2 16 -1 19 -3 4 -6 -2 -5 -13z"/>
<path d="M995 4438 c-5 -11 -16 -15 -38 -12 -26 3 -28 2 -12 -5 44 -21 93 -5
66 22 -7 7 -12 6 -16 -5z"/>
<path d="M2050 4431 c-6 -12 -7 -21 -1 -21 10 0 24 30 17 37 -2 3 -9 -5 -16
-16z"/>
<path d="M2331 4449 c-1 -3 15 -41 34 -85 19 -43 34 -72 34 -64 0 15 -67 160
-68 149z"/>
<path d="M3532 4438 c-7 -7 -12 -21 -12 -32 0 -18 11 -18 12 1 0 4 4 16 9 26
11 20 8 22 -9 5z"/>
<path d="M3611 4434 c0 -11 3 -14 6 -6 3 7 2 16 -1 19 -3 4 -6 -2 -5 -13z"/>
<path d="M2492 4410 c13 -19 35 -64 49 -99 20 -51 30 -65 50 -67 21 -3 22 -2
6 7 -18 11 -47 60 -47 80 0 6 22 -12 50 -42 27 -29 52 -51 54 -48 3 3 -37 50
-90 105 -52 54 -85 83 -72 64z"/>
<path d="M3333 4430 c-29 -12 -29 -17 -1 -15 12 1 24 7 26 13 4 14 4 14 -25 2z"/>
<path d="M3567 4423 c-10 -9 -9 -33 1 -33 4 0 8 9 9 20 2 21 0 24 -10 13z"/>
<path d="M793 4413 c-31 -12 4 -173 37 -173 13 0 13 7 -1 32 -18 33 -28 128
-14 128 25 0 34 -26 29 -77 -4 -32 -2 -53 5 -57 8 -5 11 10 11 48 l0 56 41 0
c37 0 40 2 28 16 -8 10 -15 12 -17 5 -5 -16 -24 -13 -52 9 -25 19 -43 23 -67
13z"/>
<path d="M720 4376 c0 -19 3 -37 8 -40 4 -2 6 13 4 35 -5 48 -12 51 -12 5z"/>
<path d="M1260 4400 c0 -5 5 -10 11 -10 5 0 7 5 4 10 -3 6 -8 10 -11 10 -2 0
-4 -4 -4 -10z"/>
<path d="M3029 4383 c6 -12 21 -29 33 -37 12 -9 18 -16 13 -16 -6 0 -2 -5 8
-11 34 -20 26 -4 -20 41 -26 26 -41 35 -34 23z"/>
<path d="M3287 4356 c-7 -47 -4 -66 9 -54 3 3 4 28 2 54 l-3 49 -8 -49z"/>
<path d="M3340 4322 c0 -45 4 -82 8 -82 8 0 5 150 -3 159 -3 2 -5 -32 -5 -77z"/>
<path d="M3601 4384 c0 -11 3 -14 6 -6 3 7 2 16 -1 19 -3 4 -6 -2 -5 -13z"/>
<path d="M3637 4381 c-2 -10 -1 -25 4 -32 6 -10 9 -4 9 19 0 36 -5 42 -13 13z"/>
<path d="M991 4316 c0 -44 2 -77 5 -73 9 9 11 77 3 117 -5 26 -7 14 -8 -44z"/>
<path d="M1796 4383 c-4 -5 -13 -8 -18 -8 -6 0 -13 -6 -15 -12 -7 -20 12 -15
32 7 17 19 18 29 1 13z"/>
<path d="M2046 4373 c-6 -14 -5 -15 5 -6 7 7 10 15 7 18 -3 3 -9 -2 -12 -12z"/>
<path d="M1985 4340 c-21 -22 -37 -41 -34 -43 2 -2 21 16 43 40 49 54 43 56
-9 3z"/>
<path d="M3521 4353 l1 -28 9 25 c6 17 7 2 5 -47 -2 -40 -1 -71 3 -68 13 8 7
138 -6 142 -9 3 -13 -5 -12 -24z"/>
<path d="M1101 4354 c0 -11 3 -14 6 -6 3 7 2 16 -1 19 -3 4 -6 -2 -5 -13z"/>
<path d="M1132 4350 c0 -14 2 -19 5 -12 2 6 2 18 0 25 -3 6 -5 1 -5 -13z"/>
<path d="M883 4310 c0 -30 2 -43 4 -27 2 15 2 39 0 55 -2 15 -4 2 -4 -28z"/>
<path d="M3176 4345 c-3 -9 -6 -22 -5 -28 0 -7 5 -1 10 12 5 13 8 26 5 28 -2
2 -6 -3 -10 -12z"/>
<path d="M702 4340 c0 -8 4 -26 8 -40 6 -20 8 -21 8 -5 0 11 -3 29 -8 40 -5
12 -8 14 -8 5z"/>
<path d="M3577 4336 c-3 -8 -2 -18 4 -22 16 -9 22 2 11 21 -8 15 -10 16 -15 1z"/>
<path d="M1904 4319 c0 -13 3 -15 13 -7 7 6 13 12 13 13 0 2 -6 5 -13 8 -7 3
-13 -3 -13 -14z"/>
<path d="M1090 4329 c0 -4 11 -27 25 -50 l25 -44 0 34 c0 19 -3 32 -6 28 -4
-3 -15 4 -25 16 -10 12 -18 19 -19 16z"/>
<path d="M1277 4323 c-4 -3 -7 -18 -7 -33 0 -19 7 -30 25 -38 38 -18 41 -15
11 9 -21 17 -26 27 -22 45 7 25 4 29 -7 17z"/>
<path d="M1839 4306 c-7 -15 -23 -29 -35 -32 -22 -6 -42 -34 -24 -34 6 0 10 5
10 11 0 5 3 8 8 5 15 -9 71 58 58 71 -3 3 -11 -6 -17 -21z"/>
<path d="M3216 4313 c-6 -14 -5 -15 5 -6 7 7 10 15 7 18 -3 3 -9 -2 -12 -12z"/>
<path d="M1320 4310 c-23 -7 -23 -8 -3 -9 12 -1 25 4 28 9 3 6 5 10 3 9 -2 -1
-14 -5 -28 -9z"/>
<path d="M1706 4305 c-13 -10 -37 -13 -75 -10 -31 2 -47 1 -36 -2 30 -8 40
-20 27 -35 -7 -9 -7 -19 -2 -28 7 -10 10 -11 10 -2 0 8 17 12 50 12 30 0 50 4
50 11 0 6 7 8 16 5 8 -3 12 -2 9 4 -3 6 -16 8 -28 6 -63 -13 -87 -15 -87 -7 0
5 22 15 48 22 28 7 49 18 49 25 0 17 -7 17 -31 -1z"/>
<path d="M3472 4300 c0 -14 2 -19 5 -12 2 6 2 18 0 25 -3 6 -5 1 -5 -13z"/>
<path d="M1368 4286 c-49 -15 -53 -21 -13 -20 19 1 44 8 57 17 27 19 10 20
-44 3z"/>
<path d="M1064 4279 c1 -7 12 -19 25 -27 22 -15 22 -15 10 12 -8 17 -15 22
-20 15 -5 -8 -8 -8 -12 0 -4 8 -5 8 -3 0z"/>
<path d="M1160 4275 c0 -5 13 -11 30 -12 21 -2 28 2 24 11 -6 16 -54 16 -54 1z"/>
<path d="M1488 4276 c-10 -7 -15 -16 -12 -19 4 -3 -5 -4 -20 -1 -14 2 -26 0
-26 -6 0 -5 -11 -9 -25 -8 -14 1 -25 5 -25 9 0 4 -9 5 -20 2 -11 -3 -20 -9
-20 -14 0 -12 74 -11 127 1 33 8 53 6 89 -6 53 -18 70 -13 22 7 -18 7 -39 21
-46 31 -15 21 -21 22 -44 4z"/>
<path d="M1860 4270 c-7 -14 -7 -20 0 -20 5 0 10 6 10 14 0 8 6 17 13 19 9 4
9 6 0 6 -7 1 -17 -8 -23 -19z"/>
<path d="M3292 4265 c0 -16 2 -22 5 -12 2 9 2 23 0 30 -3 6 -5 -1 -5 -18z"/>
<path d="M3493 4278 c-12 -16 -24 -48 -18 -48 2 0 11 14 20 30 16 31 15 40 -2
18z"/>
<path d="M660 4259 c0 -5 5 -7 10 -4 6 3 10 8 10 11 0 2 -4 4 -10 4 -5 0 -10
-5 -10 -11z"/>
<path d="M761 4254 c0 -11 3 -14 6 -6 3 7 2 16 -1 19 -3 4 -6 -2 -5 -13z"/>
<path d="M1570 4260 c20 -13 40 -13 40 0 0 6 -12 10 -27 10 -22 0 -25 -2 -13
-10z"/>
<path d="M1956 4254 c-5 -13 -4 -14 7 -6 10 9 17 8 25 0 6 -6 15 -9 19 -5 8 9
4 13 -23 21 -15 5 -24 2 -28 -10z"/>
<path d="M2165 4259 c-37 -6 -36 -6 18 -8 31 0 57 1 57 3 0 8 -37 11 -75 5z"/>
<path d="M2270 4255 c0 -9 6 -12 15 -9 8 4 15 7 15 9 0 2 -7 5 -15 9 -9 3 -15
0 -15 -9z"/>
<path d="M2412 4255 c-7 -8 -9 -15 -4 -15 5 0 15 7 22 15 16 19 -1 19 -18 0z"/>
<path d="M2870 4260 c-9 -6 -10 -10 -3 -10 6 0 15 5 18 10 8 12 4 12 -15 0z"/>
<path d="M875 4240 c3 -5 8 -10 11 -10 2 0 4 5 4 10 0 6 -5 10 -11 10 -5 0 -7
-4 -4 -10z"/>
<path d="M2439 4228 c-9 -16 -7 -17 18 -6 42 18 48 26 18 25 -15 -1 -31 -10
-36 -19z"/>
<path d="M1010 4215 c-8 -10 -38 -15 -103 -18 -81 -2 -77 -3 28 -4 66 0 112 1
102 4 -11 3 -16 11 -13 19 7 18 2 18 -14 -1z"/>
<path d="M2315 4220 c-3 -6 1 -7 9 -4 18 7 21 14 7 14 -6 0 -13 -4 -16 -10z"/>
<path d="M1083 4213 c-21 -8 -15 -21 10 -22 110 -6 508 -9 503 -3 -4 4 -103 8
-219 9 -117 2 -224 3 -239 3 -16 1 -28 5 -28 10 0 11 -7 11 -27 3z"/>
<path d="M2018 4213 c6 -2 18 -2 25 0 6 3 1 5 -13 5 -14 0 -19 -2 -12 -5z"/>
<path d="M785 4200 c-3 -5 1 -10 10 -10 9 0 13 5 10 10 -3 6 -8 10 -10 10 -2
0 -7 -4 -10 -10z"/>
<path d="M2393 4196 c0 -11 11 -14 46 -11 25 2 52 4 59 4 6 1 12 6 12 12 0 7
-7 8 -17 4 -27 -10 -73 -12 -79 -3 -8 13 -21 9 -21 -6z"/>
<path d="M3365 4200 c-18 -6 -17 -7 5 -12 14 -2 72 -5 130 -6 79 -1 100 1 87
9 -11 6 -32 8 -48 5 -16 -3 -29 -1 -29 4 0 6 -5 10 -11 10 -5 0 -7 -4 -4 -10
5 -8 -64 -5 -100 4 -5 2 -19 0 -30 -4z"/>
<path d="M638 4193 c23 -2 59 -2 80 0 20 2 1 4 -43 4 -44 0 -61 -2 -37 -4z"/>
<path d="M1610 4188 c0 -5 21 -8 48 -8 34 1 43 3 31 10 -18 11 -79 9 -79 -2z"/>
<path d="M1710 4191 c0 -7 28 -11 72 -11 87 0 85 7 -5 15 -44 4 -67 2 -67 -4z"/>
<path d="M1885 4189 c-17 -3 68 -6 188 -7 121 0 216 2 212 6 -8 9 -360 9 -400
1z"/>
<path d="M2340 4190 c20 -13 33 -13 25 0 -3 6 -14 10 -23 10 -15 0 -15 -2 -2
-10z"/>
<path d="M2558 4187 c31 -7 46 -7 54 1 9 9 -1 12 -42 11 l-55 -1 43 -11z"/>
<path d="M2643 4194 c3 -3 29 -8 58 -9 33 -2 47 0 38 6 -16 10 -106 13 -96 3z"/>
<path d="M2813 4193 c9 -2 25 -2 35 0 9 3 1 5 -18 5 -19 0 -27 -2 -17 -5z"/>
<path d="M2898 4193 c7 -3 16 -2 19 1 4 3 -2 6 -13 5 -11 0 -14 -3 -6 -6z"/>
<path d="M2931 4195 c10 -9 99 -13 99 -4 0 5 -23 9 -52 9 -28 0 -49 -2 -47 -5z"/>
<path d="M3050 4190 c20 -13 60 -13 60 0 0 6 -17 10 -37 10 -28 0 -34 -3 -23
-10z"/>
<path d="M3140 4190 l-25 -8 25 0 c14 0 39 4 55 8 l30 8 -30 0 c-16 0 -41 -4
-55 -8z"/>
<path d="M3230 4193 c0 -9 99 -8 107 1 4 3 -19 6 -50 6 -31 0 -57 -3 -57 -7z"/>
<path d="M3628 4188 c8 -8 18 -8 34 -1 21 9 20 10 -11 11 -25 0 -31 -2 -23
-10z"/>
<path d="M378 4142 l-28 -3 0 -273 0 -273 64 -74 c68 -79 156 -167 156 -157 0
4 -19 26 -42 50 -76 78 -138 155 -130 163 4 5 2 5 -5 1 -26 -15 -31 35 -29
274 2 135 4 252 5 262 1 14 16 16 109 17 59 1 123 1 142 2 204 4 1670 -9 1685
-15 16 -6 17 -6 5 3 -11 8 80 10 328 9 189 -1 345 -5 348 -10 3 -4 10 -8 15
-8 6 0 7 4 4 10 -4 6 42 9 122 9 199 0 213 0 213 9 0 7 -2902 11 -2962 4z"/>
<path d="M3390 4139 c-39 -5 -34 -6 30 -8 41 -1 179 -1 307 -1 l232 1 4 -43 4
-43 1 48 c1 31 -2 47 -10 48 -60 4 -533 3 -568 -2z"/>
<path d="M2470 4116 c0 -2 11 -6 25 -8 14 -3 25 -1 25 3 0 5 -11 9 -25 9 -14
0 -25 -2 -25 -4z"/>
<path d="M2558 4103 c7 -3 16 -2 19 1 4 3 -2 6 -13 5 -11 0 -14 -3 -6 -6z"/>
<path d="M492 4078 c-15 -15 -15 -41 -1 -55 7 -7 12 -52 12 -112 1 -80 -2
-104 -16 -119 -16 -17 -16 -19 1 -35 14 -14 14 -19 4 -26 -11 -7 -10 -9 3 -14
9 -4 14 -3 10 2 -9 15 52 23 76 11 16 -9 20 -9 14 0 -5 8 -1 11 11 9 30 -5 44
10 44 47 0 21 -4 33 -10 29 -5 -3 -10 3 -10 13 0 18 4 19 35 12 20 -5 33 -4
29 1 -3 5 2 19 11 31 16 22 16 22 14 -22 -2 -25 -8 -53 -13 -63 -9 -15 -7 -22
11 -36 18 -15 31 -17 79 -10 32 4 61 6 66 3 11 -7 146 -13 168 -7 11 3 17 9
15 14 -3 4 6 2 21 -6 33 -17 208 -13 230 6 11 9 21 8 46 -4 23 -11 37 -13 54
-5 13 6 21 16 17 22 -3 6 5 2 18 -9 18 -16 36 -20 74 -19 28 2 88 3 135 2 47
0 117 0 155 1 39 0 81 1 95 1 49 -1 125 0 140 1 8 0 33 -2 55 -4 27 -4 45 -1
57 10 14 12 20 12 40 2 25 -14 56 -13 76 3 8 7 12 40 12 100 0 61 5 98 15 119
14 27 14 31 -1 46 -17 18 -101 20 -118 3 -5 -5 -16 -5 -26 0 -18 9 -34 11
-120 10 -25 0 -58 2 -74 4 -37 5 -71 -26 -57 -53 15 -28 12 -121 -4 -115 -7 3
-26 -3 -41 -13 -27 -18 -28 -17 -22 5 3 12 3 24 -2 27 -8 5 -7 24 4 85 4 19 3
41 -2 48 -11 16 -102 23 -119 10 -7 -6 -19 -6 -30 0 -10 5 -27 8 -38 5 -33 -6
-186 -4 -197 4 -6 3 -8 2 -5 -4 4 -6 -14 -8 -48 -5 -35 3 -60 0 -70 -8 -11 -9
-18 -10 -29 -1 -15 12 -115 28 -104 16 4 -4 0 -14 -8 -22 -12 -13 -13 -19 -2
-37 17 -27 24 -146 9 -146 -6 0 -12 7 -12 15 -2 18 -1 16 -24 90 -27 90 -32
95 -91 95 -57 0 -80 -16 -71 -50 5 -20 -25 -146 -38 -159 -9 -8 -25 21 -25 45
0 12 6 27 14 33 19 16 4 77 -28 109 -22 22 -32 25 -99 24 -71 -1 -75 0 -81 22
-3 14 -16 26 -28 29 -44 11 -194 7 -206 -5z m129 -18 l89 0 0 -39 c0 -47 -16
-61 -36 -32 -10 13 -26 21 -45 21 -27 0 -29 -2 -29 -40 0 -34 3 -40 20 -40 11
0 23 7 26 15 4 8 12 15 20 15 10 0 14 -14 14 -50 0 -52 -10 -61 -36 -35 -9 8
-22 15 -30 15 -19 0 -19 -74 1 -94 28 -28 17 -36 -50 -36 -49 0 -65 3 -65 14
0 8 7 16 15 20 12 4 15 27 15 120 0 92 -3 115 -15 120 -8 3 -15 13 -15 22 0
11 5 14 16 10 9 -3 56 -6 105 -6z m274 -75 c30 -29 32 -54 6 -87 -19 -24 -19
-24 5 -73 30 -63 30 -65 -6 -65 -32 0 -53 23 -64 73 -9 38 -26 34 -26 -7 0
-21 6 -36 15 -40 34 -13 12 -26 -45 -26 -61 0 -72 8 -45 30 11 9 15 34 15 97
0 65 -3 85 -15 89 -8 4 -15 12 -15 20 0 11 18 14 75 14 67 0 79 -3 100 -25z
m215 -22 c29 -111 45 -159 57 -174 21 -25 16 -29 -42 -29 -41 0 -55 4 -55 14
0 8 5 16 12 18 23 8 -1 38 -31 38 -29 0 -49 -24 -31 -35 6 -4 10 -13 10 -21 0
-10 -12 -14 -40 -14 -40 0 -52 14 -29 37 17 17 61 177 49 181 -5 2 -10 10 -10
18 0 10 13 14 49 14 l48 0 13 -47z m202 -23 l38 -65 0 46 c0 29 -6 51 -15 59
-23 19 -8 30 41 30 45 0 54 -9 30 -29 -11 -10 -14 -36 -13 -114 2 -102 2 -102
-23 -105 -22 -2 -30 7 -65 70 l-40 73 -3 -54 c-2 -41 1 -57 12 -63 30 -17 16
-28 -34 -28 -52 0 -61 8 -34 31 23 19 16 177 -9 191 -28 15 -8 29 36 26 40 -3
43 -6 79 -68z m242 61 c3 -5 -1 -14 -9 -21 -8 -7 -15 -28 -15 -48 l0 -35 29
39 c17 24 25 43 20 50 -5 6 -6 14 -2 17 10 11 93 8 93 -3 0 -5 -16 -25 -36
-43 l-36 -33 31 -62 c18 -35 38 -65 46 -69 8 -3 15 -11 15 -19 0 -10 -14 -14
-53 -14 -59 0 -72 6 -56 26 9 12 0 38 -29 84 -6 9 -22 -25 -22 -46 0 -12 7
-27 15 -34 23 -19 8 -30 -45 -30 -49 0 -75 15 -46 26 23 9 23 176 1 194 -23
19 -8 30 45 30 27 0 51 -4 54 -9z m256 -6 c0 -8 -4 -15 -10 -15 -6 0 -10 -37
-10 -90 0 -101 9 -112 57 -64 33 33 50 19 37 -28 l-10 -33 -87 -3 c-86 -3
-102 3 -72 28 11 9 15 33 15 91 0 56 -4 82 -15 93 -27 27 -17 36 40 36 42 0
55 -3 55 -15z m203 9 c3 -4 0 -16 -8 -28 -21 -29 -21 -169 0 -186 24 -20 7
-30 -51 -30 -51 0 -72 14 -39 26 12 5 15 25 15 94 0 49 -4 92 -10 95 -5 3 -10
13 -10 21 0 10 13 14 48 14 27 0 52 -3 55 -6z m149 -64 l38 -65 0 46 c0 29 -6
51 -15 59 -26 22 -16 30 35 30 38 0 50 -4 50 -15 0 -8 -4 -15 -10 -15 -6 0
-10 -43 -10 -110 l0 -110 -29 0 c-18 0 -31 6 -35 18 -10 26 -69 122 -76 122
-12 0 3 -105 16 -113 28 -16 13 -27 -36 -27 -38 0 -50 4 -50 15 0 8 5 15 10
15 6 0 10 38 10 95 0 57 -4 95 -10 95 -5 0 -10 7 -10 16 0 12 9 14 42 12 40
-3 44 -6 80 -68z m-462 -51 c0 -86 -16 -91 -49 -17 l-23 52 28 23 c15 12 31
20 36 17 4 -3 8 -36 8 -75z m336 -4 c-3 -105 -16 -106 -15 -1 0 47 4 84 9 81
5 -3 7 -39 6 -80z m-1319 28 c-4 -17 -4 -17 -12 0 -4 9 -4 25 0 35 8 16 8 16
12 0 3 -10 3 -26 0 -35z m723 43 c0 -3 -4 -8 -10 -11 -5 -3 -10 -1 -10 4 0 6
5 11 10 11 6 0 10 -2 10 -4z m1 -62 c1 -53 -5 -94 -12 -82 -12 19 -9 122 3
110 5 -5 9 -18 9 -28z"/>
<path d="M810 3931 c0 -42 5 -47 28 -32 19 12 11 65 -10 69 -15 3 -18 -4 -18
-37z"/>
<path d="M1043 3910 c-8 -29 -7 -36 6 -41 20 -8 26 17 13 51 -10 25 -10 24
-19 -10z"/>
<path d="M2463 4075 c-34 -15 -73 -51 -97 -88 -23 -38 -18 -138 10 -185 27
-45 81 -70 146 -67 43 3 56 8 74 31 l22 27 32 -26 c17 -15 37 -27 43 -28 45
-4 87 6 120 27 38 25 39 25 64 7 50 -35 68 -42 98 -37 56 9 67 16 96 62 28 44
42 36 18 -10 -15 -28 6 -47 58 -54 30 -3 46 0 58 13 16 16 19 16 47 0 24 -13
34 -15 51 -5 33 17 37 27 37 113 0 56 3 75 10 63 6 -10 18 -14 30 -11 18 5 20
0 20 -51 0 -31 -4 -56 -10 -56 -17 0 -11 -26 10 -45 16 -14 33 -18 68 -16 57
3 79 20 63 49 -6 11 -11 43 -11 71 0 44 3 51 19 51 28 0 52 11 45 21 -3 5 1 6
9 4 35 -14 60 -112 36 -142 -20 -23 17 -51 74 -54 67 -4 81 12 67 77 -9 41 -9
50 4 60 9 6 13 13 11 16 -3 3 1 11 10 18 8 7 15 17 15 22 0 6 12 19 26 30 16
13 24 27 21 39 -3 10 0 20 7 23 14 5 13 5 -259 6 -273 0 -270 0 -317 1 -21 1
-45 -4 -53 -11 -11 -9 -18 -10 -28 -1 -14 11 -21 12 -177 12 -147 1 -163 0
-180 -16 -14 -12 -19 -12 -45 5 -48 32 -104 26 -152 -15 l-40 -34 3 27 c5 43
-19 68 -75 79 -36 7 -57 7 -78 -2z m90 -21 c37 -7 37 -7 37 -55 0 -55 -19 -67
-38 -24 -15 32 -66 35 -82 6 -16 -30 -12 -123 6 -149 19 -28 60 -29 76 -2 20
32 45 26 40 -10 -6 -39 -36 -60 -85 -60 -83 0 -127 50 -127 143 0 65 28 113
80 139 39 20 40 20 93 12z m258 -73 c26 -26 29 -36 29 -91 0 -57 -3 -65 -34
-96 -38 -38 -77 -44 -125 -20 -35 18 -51 55 -51 114 1 81 39 121 113 122 30 0
45 -7 68 -29z m159 20 c0 -5 -7 -14 -15 -21 -10 -8 -15 -31 -15 -71 0 -78 13
-111 43 -107 21 3 22 9 25 87 2 49 -1 88 -8 95 -19 19 -10 26 35 26 33 0 45
-4 45 -15 0 -8 -4 -15 -10 -15 -6 0 -10 -35 -10 -85 0 -78 -2 -88 -25 -110
-18 -19 -35 -25 -65 -25 -30 0 -47 6 -65 25 -23 22 -25 32 -25 110 0 50 -4 85
-10 85 -5 0 -10 7 -10 15 0 12 13 15 55 15 30 0 55 -4 55 -9z m255 -56 c20
-36 39 -65 42 -65 8 0 -8 94 -18 105 -18 18 -8 25 35 25 46 0 70 -15 42 -26
-13 -5 -16 -26 -16 -115 0 -106 -1 -109 -22 -109 -18 0 -32 16 -63 70 -22 38
-43 70 -47 70 -15 0 -8 -88 7 -104 26 -25 17 -36 -29 -36 -46 0 -70 15 -42 26
23 9 23 189 0 198 -26 10 -5 26 36 26 38 0 40 -2 75 -65z m340 34 c10 -43 -9
-60 -35 -31 -12 12 -25 22 -30 22 -6 0 -10 -37 -10 -84 0 -62 4 -87 15 -96 26
-21 17 -28 -40 -29 -58 0 -74 9 -50 29 11 9 15 34 15 96 0 85 -9 102 -32 64
-21 -33 -38 -24 -38 20 l0 40 99 0 99 0 7 -31z m145 22 c0 -6 -4 -13 -10 -16
-14 -9 -13 -28 3 -49 12 -17 14 -16 32 10 12 19 14 29 7 32 -7 2 -12 10 -12
18 0 10 14 14 55 14 57 0 70 -11 34 -30 -36 -20 -79 -99 -79 -146 0 -24 5 -46
10 -49 24 -15 6 -25 -44 -25 -54 0 -82 14 -52 26 28 11 20 82 -14 137 -17 26
-37 50 -45 53 -8 4 -15 12 -15 20 0 11 16 14 65 14 36 0 65 -4 65 -9z m-1176
-50 c20 -22 63 -33 70 -17 3 6 3 -2 -1 -19 -8 -39 -12 -47 -24 -39 -6 3 -19
-3 -30 -15 -37 -39 -67 -20 -64 39 1 19 3 43 4 53 1 22 24 22 45 -2z m453 -55
c-1 -35 -4 -63 -7 -61 -10 6 -11 125 -1 125 5 0 9 -28 8 -64z m117 31 c3 -16
1 -38 -4 -50 -7 -17 -9 -9 -9 32 -1 57 4 64 13 18z"/>
<path d="M2711 3956 c-19 -23 -10 -137 12 -150 28 -17 47 17 47 84 0 71 -28
103 -59 66z m35 -56 c2 -20 -2 -30 -11 -30 -7 0 -12 8 -10 18 2 9 4 26 4 36 1
29 15 10 17 -24z m-6 -55 c0 -8 -2 -15 -4 -15 -2 0 -6 7 -10 15 -3 8 -1 15 4
15 6 0 10 -7 10 -15z"/>
<path d="M3959 3969 c0 -41 0 -144 1 -229 1 -146 0 -156 -19 -170 -12 -8 -21
-18 -21 -22 0 -5 -33 -41 -72 -82 -40 -40 -92 -94 -115 -119 l-42 -45 -118 5
c-152 6 -143 6 -177 -1 -17 -4 -34 -2 -44 6 -9 7 -13 8 -9 2 5 -8 -42 -11
-164 -12 -94 0 -173 -3 -176 -6 -4 -3 151 -6 344 -6 l350 0 120 128 c66 70
127 136 137 148 16 18 17 45 16 244 0 123 -3 226 -5 229 -3 2 -5 -29 -6 -70z"/>
<path d="M421 3834 c0 -11 3 -14 6 -6 3 7 2 16 -1 19 -3 4 -6 -2 -5 -13z"/>
<path d="M760 3674 c-47 -16 -59 -27 -49 -45 5 -10 8 -61 6 -114 -2 -53 -1
-98 3 -100 15 -9 65 -14 87 -9 30 8 51 43 33 54 -8 5 -10 16 -6 25 3 10 9 15
13 12 3 -4 12 -2 20 4 17 14 16 10 -2 -35 -15 -34 -14 -36 9 -51 17 -11 35
-14 65 -9 29 5 41 3 41 -5 0 -7 5 -9 11 -5 20 12 89 15 89 4 0 -6 12 -8 28 -4
32 7 91 6 105 -3 5 -3 13 1 18 8 6 10 11 11 19 3 7 -7 24 -9 43 -4 18 4 62 3
97 -1 36 -4 67 -6 69 -3 2 2 -3 4 -12 4 -20 0 -22 11 -6 27 9 9 6 19 -10 41
-41 58 -43 77 -11 107 25 24 27 29 13 44 -10 13 -27 17 -61 15 -26 -1 -54 2
-63 7 -11 5 -29 2 -52 -10 -23 -12 -40 -15 -51 -9 -9 5 -41 11 -70 13 -42 3
-60 0 -77 -13 -18 -15 -20 -22 -10 -40 6 -11 11 -38 10 -59 -1 -37 -1 -37 -20
22 -25 75 -39 89 -92 90 -23 1 -54 9 -68 18 -28 18 -92 29 -119 21z m100 -37
c55 -28 28 -119 -35 -119 -21 0 -25 -5 -25 -30 0 -16 6 -31 15 -34 31 -12 13
-24 -35 -24 -47 0 -63 11 -40 25 6 3 10 41 10 85 0 61 -3 79 -16 84 -8 3 -12
10 -9 16 9 14 105 12 135 -3z m151 -97 c10 -36 23 -73 29 -82 15 -26 13 -28
-30 -28 -38 0 -40 1 -34 25 5 21 3 25 -14 25 -23 0 -42 -22 -24 -28 27 -9 9
-22 -30 -22 -39 0 -40 1 -25 18 23 25 50 118 42 143 -6 18 -3 20 31 17 37 -3
38 -4 55 -68z m187 58 c15 -15 16 -60 2 -74 -11 -11 -2 -42 22 -76 16 -23 8
-29 -27 -19 -22 5 -32 16 -39 39 -5 18 -13 32 -17 32 -13 0 -11 -48 1 -55 18
-11 3 -20 -31 -19 l-33 1 3 81 c2 54 -1 82 -8 82 -6 0 -11 5 -11 10 0 14 123
13 138 -2z m124 0 c-7 -7 -12 -26 -12 -42 l0 -31 19 29 c11 16 17 35 14 42 -4
10 5 14 36 14 23 0 41 -3 41 -6 0 -3 -13 -17 -30 -30 l-30 -25 25 -50 c14 -27
30 -49 36 -49 6 0 9 -5 7 -12 -2 -6 -22 -11 -44 -11 -32 0 -39 3 -39 19 -1 30
-16 65 -26 59 -13 -9 -11 -49 3 -63 13 -13 13 -13 -39 -14 -20 -1 -39 4 -41
10 -2 7 1 12 7 12 7 0 11 26 11 70 0 40 -4 70 -10 70 -5 0 -10 5 -10 10 0 6
21 10 47 10 37 0 44 -3 35 -12z m-82 -88 c0 -5 -5 -10 -11 -10 -5 0 -7 5 -4
10 3 6 8 10 11 10 2 0 4 -4 4 -10z"/>
<path d="M800 3585 c0 -24 5 -35 14 -35 20 0 30 38 16 55 -20 24 -30 17 -30
-20z"/>
<path d="M950 3541 c0 -12 0 -24 -1 -28 0 -4 4 -9 10 -11 14 -5 15 45 1 53 -5
3 -10 -3 -10 -14z"/>
<path d="M1130 3555 c0 -16 6 -25 15 -25 9 0 15 9 15 25 0 16 -6 25 -15 25 -9
0 -15 -9 -15 -25z"/>
<path d="M3608 3673 c7 -3 16 -2 19 1 4 3 -2 6 -13 5 -11 0 -14 -3 -6 -6z"/>
<path d="M1595 3654 c-11 -8 -25 -12 -31 -10 -18 7 -54 -32 -54 -59 0 -13 -7
-30 -15 -39 -38 -37 -33 -113 9 -129 9 -4 16 -13 16 -22 0 -17 16 -20 25 -5 3
6 17 10 31 10 38 0 63 17 131 86 34 35 63 64 65 64 2 0 4 -19 5 -42 1 -36 7
-48 40 -75 44 -37 76 -44 115 -26 15 7 29 9 32 4 7 -11 86 -13 86 -1 0 4 17 4
37 0 20 -5 40 -7 44 -4 4 2 11 0 14 -6 5 -8 12 -7 23 2 12 10 14 10 8 1 -4 -7
-2 -13 3 -13 6 0 11 4 11 9 0 5 9 7 20 4 11 -3 20 -1 20 4 0 7 18 7 53 1 28
-6 85 -8 126 -5 75 4 96 16 85 49 -3 10 3 21 16 28 16 8 20 8 20 -3 0 -8 14
-29 32 -46 36 -35 83 -41 123 -15 23 15 25 15 31 -1 6 -15 16 -17 64 -12 37 4
61 2 68 -5 9 -9 17 -7 32 7 18 16 25 17 54 7 47 -17 65 -15 100 12 31 23 32
23 55 5 13 -11 19 -20 15 -20 -5 -1 9 -5 31 -8 22 -3 42 -4 45 -1 3 3 16 13
30 21 23 15 26 14 43 -1 14 -14 26 -16 53 -10 19 4 52 6 73 3 24 -3 41 -1 46
6 5 9 10 9 21 1 19 -17 107 -14 142 4 16 8 32 26 36 40 3 14 13 32 22 40 8 9
11 16 5 16 -5 0 -9 13 -9 29 2 58 -76 98 -169 86 -23 -3 -44 -1 -48 4 -3 5
-18 6 -33 2 -15 -4 -88 -6 -162 -4 -89 2 -143 -1 -157 -9 -18 -9 -29 -8 -47 2
-33 17 -103 7 -121 -17 -13 -17 -14 -17 -34 1 -17 15 -41 19 -149 22 -116 4
-130 2 -149 -15 -15 -14 -23 -17 -32 -8 -20 20 -115 31 -144 16 -12 -7 -22 -7
-26 -2 -6 11 -24 10 -82 -2 -22 -4 -39 -3 -43 3 -7 12 -74 4 -93 -10 -7 -6 -9
-19 -3 -39 12 -41 -6 -37 -24 5 -8 19 -23 39 -34 45 -25 13 -83 3 -100 -18
-11 -14 -13 -12 -10 15 2 17 -1 31 -6 32 -67 12 -101 12 -126 2 -17 -7 -30
-15 -30 -19 -1 -3 -11 -19 -25 -35 -19 -24 -26 -27 -38 -18 -11 9 -22 10 -41
2 -40 -15 -45 -13 -44 19 1 31 -21 61 -44 61 -7 0 -22 -7 -33 -16z m55 -33 c0
-9 -5 -22 -12 -29 -15 -15 -42 -16 -32 -1 4 7 -1 10 -12 7 -10 -2 -20 -11 -22
-21 -3 -12 3 -17 22 -17 19 0 24 -4 19 -16 -4 -12 -2 -15 8 -12 8 3 13 10 12
14 -1 5 16 10 38 10 21 1 46 7 54 14 9 7 18 10 21 7 10 -9 -20 -48 -42 -53
-11 -3 -29 -21 -39 -41 -23 -42 -73 -67 -116 -58 -61 14 -79 68 -33 104 17 14
24 26 20 39 -9 29 17 55 53 54 23 0 31 3 28 13 -3 7 -3 16 0 19 10 9 33 -15
33 -33z m310 -18 c0 -24 -3 -43 -7 -43 -4 0 -17 12 -29 28 -19 22 -26 25 -41
16 -25 -15 -31 -105 -8 -128 22 -22 42 -20 55 4 16 29 30 25 30 -9 0 -25 -6
-31 -36 -41 -73 -24 -131 31 -121 117 8 71 43 99 124 98 32 0 33 -1 33 -42z
m1078 -19 c26 -29 29 -72 7 -113 -16 -31 -33 -41 -71 -41 -41 0 -63 18 -74 61
-27 100 71 166 138 93z m104 -45 c-4 -58 -2 -70 13 -75 10 -4 21 -1 26 7 12
19 11 106 -1 114 -21 13 -9 25 25 25 19 0 35 -4 35 -10 0 -5 -4 -10 -10 -10
-6 0 -10 -28 -10 -64 0 -77 -14 -96 -70 -96 -49 0 -60 18 -60 94 0 30 -4 58
-10 61 -24 15 -9 30 28 27 l38 -4 -4 -69z m211 23 l26 -47 1 38 c0 20 -4 37
-10 37 -5 0 -10 5 -10 10 0 6 16 10 35 10 19 0 35 -4 35 -10 0 -5 -4 -10 -10
-10 -6 0 -10 -33 -10 -80 0 -73 -2 -80 -20 -80 -14 0 -28 16 -47 53 l-28 52
-3 -34 c-2 -18 1 -38 7 -44 19 -19 12 -27 -24 -27 -34 0 -46 12 -25 25 16 10
12 121 -5 135 -22 18 -11 27 27 22 28 -3 38 -12 61 -50z m-1232 -42 c16 -47
29 -86 29 -87 0 -2 -18 -3 -40 -3 -37 0 -55 13 -28 22 19 7 -2 28 -28 28 -26
0 -32 -18 -12 -38 9 -9 3 -12 -30 -12 -44 0 -51 5 -29 24 7 6 21 37 31 69 14
47 15 61 5 73 -11 13 -7 15 30 12 l43 -3 29 -85z m135 50 c4 -22 10 -40 14
-40 5 0 11 18 15 40 7 39 8 40 46 40 36 0 51 -12 30 -24 -15 -10 -11 -109 5
-133 14 -23 14 -23 -31 -23 -42 0 -58 11 -35 25 6 3 10 25 10 47 0 51 -8 45
-24 -18 -6 -26 -17 -49 -23 -51 -6 -2 -20 22 -31 54 l-20 58 -1 -42 c-1 -23 4
-45 9 -48 21 -13 9 -25 -26 -25 -31 0 -35 2 -24 15 8 10 11 40 8 90 l-3 75 37
0 c36 0 38 -2 44 -40z m266 23 c36 -32 8 -93 -43 -93 -22 0 -29 -4 -29 -20 0
-11 7 -23 15 -26 30 -12 14 -24 -29 -24 -45 0 -45 0 -41 33 11 91 12 117 4
123 -23 14 -4 24 48 24 38 0 62 -5 75 -17z m168 3 c0 -8 3 -21 6 -30 4 -10 1
-16 -9 -16 -8 0 -17 7 -21 15 -9 23 -45 18 -57 -8 -14 -30 2 -91 24 -95 20 -4
24 37 5 56 -9 9 -3 12 30 12 23 0 42 -4 42 -10 0 -5 -4 -10 -10 -10 -5 0 -10
-15 -10 -34 0 -39 -2 -41 -47 -51 -28 -6 -37 -2 -63 23 -37 38 -41 95 -9 136
17 22 28 26 70 26 36 0 49 -4 49 -14z m161 4 c22 -12 27 -68 5 -76 -11 -4 -10
-11 3 -40 8 -18 19 -34 23 -34 4 0 8 -5 8 -11 0 -6 -14 -9 -32 -7 -27 2 -35 9
-43 36 -10 33 -25 44 -25 16 0 -8 5 -24 10 -35 10 -17 7 -19 -35 -19 -42 0
-58 11 -35 25 6 3 10 35 10 71 0 36 -4 64 -10 64 -5 0 -10 5 -10 10 0 13 106
13 131 0z m736 -5 c27 -19 39 -75 23 -106 -22 -42 -51 -59 -107 -59 -49 0 -67
10 -43 25 6 3 10 35 10 71 0 36 -4 64 -10 64 -5 0 -10 5 -10 10 0 16 113 12
137 -5z m-1593 -42 c-12 -49 -19 -57 -35 -41 -12 13 -16 12 -33 -4 -25 -23
-32 -23 -39 2 -5 20 1 60 10 60 2 0 15 -8 30 -17 25 -17 27 -16 42 5 22 29 33
27 25 -5z"/>
<path d="M1558 3519 c-25 -14 -23 -56 3 -64 25 -8 72 23 78 51 3 16 1 17 -13
5 -14 -11 -16 -11 -16 3 0 18 -26 21 -52 5z m32 -29 c0 -5 -2 -10 -4 -10 -3 0
-8 5 -11 10 -3 6 -1 10 4 10 6 0 11 -4 11 -10z"/>
<path d="M2961 3576 c-7 -8 -11 -36 -9 -63 3 -40 6 -48 23 -48 17 0 20 8 23
51 3 57 -15 87 -37 60z"/>
<path d="M2050 3546 c0 -8 -3 -21 -6 -30 -4 -11 -1 -16 10 -16 18 0 23 45 6
55 -5 3 -10 0 -10 -9z"/>
<path d="M2450 3555 c0 -20 4 -26 18 -23 9 2 17 12 17 23 0 11 -8 21 -17 23
-14 3 -18 -3 -18 -23z"/>
<path d="M2790 3556 c0 -17 5 -26 16 -26 10 0 14 7 12 22 -5 32 -28 35 -28 4z"/>
<path d="M3520 3525 c0 -36 4 -65 8 -65 19 0 32 27 32 67 0 32 -5 45 -20 53
-19 10 -20 8 -20 -55z"/>
<path d="M3270 3349 c0 -5 5 -7 10 -4 6 3 10 8 10 11 0 2 -4 4 -10 4 -5 0 -10
-5 -10 -11z"/>
<path d="M597 3320 l27 -30 1055 1 c581 1 1048 4 1038 6 -9 3 -14 9 -11 15 5
7 2 8 -7 3 -20 -13 -359 -16 -359 -4 0 6 -4 8 -9 5 -15 -9 -121 -15 -116 -6 3
5 0 12 -6 16 -8 4 -9 3 -5 -5 6 -9 -5 -12 -41 -11 -26 0 -164 -1 -305 -3 -179
-2 -255 0 -250 7 4 8 2 8 -9 0 -9 -7 -170 -10 -486 -10 l-471 1 -31 23 c-41
30 -46 28 -14 -8z"/>
<path d="M770 3326 c0 -2 7 -7 16 -10 8 -3 12 -2 9 4 -6 10 -25 14 -25 6z"/>
<path d="M1033 3323 c9 -2 25 -2 35 0 9 3 1 5 -18 5 -19 0 -27 -2 -17 -5z"/>
<path d="M2842 3313 c-32 -11 6 -23 74 -23 41 0 73 4 70 8 -3 5 -31 8 -63 7
-32 -1 -60 1 -63 5 -3 4 -11 5 -18 3z"/>
<path d="M2760 3300 l-25 -8 25 0 c14 0 34 3 45 8 20 9 20 9 0 8 -11 0 -31 -4
-45 -8z"/>
</g>
</svg>
